<?xml version="1.0" encoding="utf-8"?>
<!-- Generator: Adobe Illustrator 19.2.1, SVG Export Plug-In . SVG Version: 6.00 Build 0)  -->
<!DOCTYPE svg PUBLIC "-//W3C//DTD SVG 1.1//EN" "http://www.w3.org/Graphics/SVG/1.1/DTD/svg11.dtd">
<svg version="1.1" id="Layer_1" xmlns="http://www.w3.org/2000/svg" xmlns:xlink="http://www.w3.org/1999/xlink" x="0px" y="0px"
	 viewBox="0 0 137 391.3" style="enable-background:new 0 0 137 391.3;" xml:space="preserve">
<style type="text/css">
	.st0{fill:#2C83C5;}
	.st1{fill:#FFFFFF;}
	.st2{fill:#5DA9CD;}
	.st3{fill:#B6DEF6;}
	.st4{fill:#0777AE;}
	.st5{fill:#5AA5DA;}
	.st6{fill:#E7F6FD;}
	.st7{fill:#016090;}
	.st8{fill:#CDE3E8;}
</style>
<g>
	<path class="st0" d="M1744.3,714.8c-7.1,0.8-10,11.3-7.1,16.9c4.8,9.3,9.9-0.7,14.1-4.3c-0.3,0.5-0.3,0.9,0.1,1
		c2.7-1,2.3-6.2,1.7-8.2C1751.9,716.3,1748.3,714.4,1744.3,714.8C1737.3,715.6,1748,714.4,1744.3,714.8z"/>
	<path class="st1" d="M1800,681.2c-2.5,9-11.3,15.2-18.4,20.4c-8.5,6.2-17.8,12.7-28.4,14.6c3.4,6.9,8.2,15.4,4.5,23.2
		c0.8,0,6.9-2.9,6.7-1.1c9.4-8.4,18.6-17,26.5-26.9c3.6-4.5,6.9-9.2,9.4-14.4c1.2-2.5,2.7-5.6,2.4-8.5
		C1802.3,686,1800,683.9,1800,681.2C1797.5,690.1,1800,683.5,1800,681.2z"/>
	<path class="st1" d="M1752.7,719.1c1.8,0,0.1,7.9-0.2,8.9c-0.4,1.6-4.9,9.7-6.2,9c0.1,0.1-3.5,22.9-3.9,25.2
		c5.5-8.5,12.7-15.8,20.3-22.4c-1.7,0.8-6.3,2.5-8,1c-1.8-1.6,0.5-1.5,0.7-2.4c0.3-1,1.3-3.4,1.3-5.3
		C1756.8,730.9,1755.6,719.1,1752.7,719.1z"/>
	<path class="st1" d="M1736.2,719.7c-2,2.9-7.1,20.3-9.5,8.8c-0.9,7.1-1.4,14.3-1.6,21.4c2.6-4.8,7.5-8.1,10.2-12.9
		c1.5-2.6,1.2-3.6,0.2-6.4C1734.4,726.9,1734.5,723.6,1736.2,719.7C1733.7,723.4,1735.3,721.9,1736.2,719.7z"/>
	<path class="st1" d="M1740.7,690.1c-12.5,8.7-15,26.8-11.5,40.7c1.5-4.2,2.7-8.9,5.7-12.3c2.2-2.5,4.9-3.1,5.1-6.6
		c0.1-3.7-1.5-7-0.7-11C1739.9,697.7,1742.8,693.4,1740.7,690.1C1728.4,698.8,1742.8,693.3,1740.7,690.1z"/>
	<path class="st2" d="M1741.9,697.7c-1,3.7-1.5,8.1-0.9,11.9c0.6,3.9,1,3.3,4.2,3.3c-0.4-5.7-1-11.6-2.8-17
		C1742.3,696.5,1742.1,697.1,1741.9,697.7z"/>
	<path class="st1" d="M1770.5,578.8c-10.5,2.9-21.4,2.9-32.2,3.9c-9.7,1-20.2,3.1-29.6-0.4c0.4,18.1-0.6,35.7,2,53.7
		c2.2,15.6,6.6,32.1,18.6,43.1c14.1,12.9,34.3,4.5,46.4-7.2c3-2.9,5.8-6.2,7.7-9.9c1.5-2.8,1.2-6.5,2.9-9.1c3.4-5.3,1.2,4.3,0.5,6.2
		c-6.7,17.7-27,28.7-45.3,28.4c1.5,4.3,2.9,8.7,3.9,13.2c0.7,3.3,0.1,7.8,1.2,10.9c2.2,6.1,10.3,1.9,14.4,0.1
		c13.7-6,27.9-14.8,35.8-28c-3.1,0.2-5.1-20.8-5.4-23c-0.5-4.3-1.4-9-1-13.3c0.5-5.6,7.1-8.4,10-13.2c3.1-5.2,10.8-24.7,0.3-26.3
		c-9.1-1.5-10.2,21.7-18.9,15.5c-4-2.8-4.1-10.4-5.1-14.6C1774.3,598.7,1771.5,589.2,1770.5,578.8
		C1760.3,581.6,1771.4,588.5,1770.5,578.8z"/>
	<path class="st2" d="M1796,675.7c0.4,2.2,1.1,4.3,1.5,6.5C1798.3,680.8,1798.9,675.7,1796,675.7z"/>
	<path class="st3" d="M1848.5,752.4c-1.7-5.2-3.2-12.4-7.3-16.3c-4.7-4.5-11.2-2-15.3,2.1c-10.5,10.3-12.5,28.9-12.6,42.7
		C1826.8,773.9,1838.9,764.1,1848.5,752.4C1848,750.6,1838.9,764.1,1848.5,752.4z"/>
	<g>
		<path class="st3" d="M1718.8,784.2c0.8-6.8,2.6-13.3,3.3-20.1c1-9.1,1.4-18.2,2.3-27.2c1.4-14.1,0.3-30.7,9.5-42.5
			c-4.2,1.4-7.9,4.5-10.7,7.9c-1.9,2.3-6.2,6.7-6.8,9.6c-0.8,3.9,1.5,0.8,2.5,3.4c0.5,1.4-0.4,2.2-1.6,3.2c-2.7,2.2-5.5,1.1-6,5.3
			c-0.5,3.9,0.7,8.6,0.7,12.6c0.1,5.8,0,11.5,0,17.3c0,4.5,0.3,9.1,0.3,13.6c0,1.9,0.3,12-2.2,12.7c0,0,0.4-14.6,0.4-16.2
			c0-6.3-0.1-12.6-0.4-18.9c-0.3-6.3-0.9-12.7-0.4-19.1c0.5-5.9,3-6.9,8-9.4c-8.9-3.1,3-14.5,6.2-17.6c-5.9,1.7-11.4,4.5-17,7
			c-4.7,2.1-9.8,3.7-14.1,6.6c-8.2,5.8-8.7,17.2-11.3,26c-1.2,4.1-4.5,10.9-3.4,15.1c1.1,4.3,8,9.4,11.4,12.3
			C1698.3,773.5,1708.2,779.7,1718.8,784.2C1719,781.8,1703,777.5,1718.8,784.2z"/>
		<path class="st3" d="M1730.7,788.1c-0.2,0.2,10.7,3,12.2,3.3c-0.2-4,5.6-8.7,7.9-11.5c3.8-4.6,7.7-9.1,12.2-13
			c8.6-7.5,18.9-10.9,28.2-17.1c3-2,2.5-3,0.7-6.2c-1.6-2.9-3.9-5.6-5.1-8.7c-1-2.6-1.1-4.2,2-2.6c3.9,2,5.2,4.7,9.2,0.7
			c5.1-5.1,9.7-13.1,12.6-19.6c3.3-7.3,3-12.7-0.9-19c-0.9-1.5-3.6-6.1-5.5-4.5c-0.8,0.7-0.9,4-1.2,5c-0.7,2.5-1.9,4.7-3.1,7
			c-5.6,9.7-13.6,18.5-21.6,26.3c-9.7,9.5-20.7,17.7-29.3,28.3c-3.9,4.9-7.4,10.1-10.4,15.6c-1.6,2.9-3.3,5.8-4.6,8.7
			C1733,782.9,1732.6,786.5,1730.7,788.1C1730.6,788.2,1732.3,786.7,1730.7,788.1z"/>
		<path class="st3" d="M1789.1,735.3c2.1,3.6,8.9,10.5,5.4,14.9c-1.7,2.1-5.6,3-7.9,4c-3.5,1.6-6.8,3.4-10.1,5.3
			c-7.7,4.4-14.2,10-20.1,16.6c-4.1,4.6-7.6,11.5-12.4,15.4c12.4,2.1,25.1,2.1,37.4-0.1c6.1-1,12.1-2.6,17.9-4.6c2.7-1,5.4-2,8-3.2
			c1-0.4,3.7-1.1,4.3-2c0.6-0.9,0-3.9,0.1-5c0.3-11.1,2.1-22.6,7.8-32.4c3.8-6.5,11.3-15.8,19.8-11.5c-6.9-10.8-15.3-20.5-24.8-29.1
			c-1.1,8.5-4.9,16.7-9.7,23.7C1800.8,733.1,1796.5,739.9,1789.1,735.3C1791.1,738.6,1794.5,738.7,1789.1,735.3z"/>
	</g>
	<path class="st0" d="M1729.2,788c2.8-7.9,7.9-14.3,11.1-21.9c2.8-6.8,2.4-16,3.3-23.3c0.5-3.9,2-5.6-2-6.8c-1-0.3-3.8-1.6-4.7-1.2
		c-1.2,0.5-3,4.3-3.8,5.4c-2.2,3.1-4.3,6.2-6.5,9.3c-2.3,3.4-2.4,5.3-2.8,9.5c-0.4,3.9-0.8,7.9-1.4,11.8c-0.5,3.9-0.1,10.7-2.5,13.9
		C1722.9,785.9,1726,787,1729.2,788z"/>
	<g>
		<path class="st4" d="M1709.6,761.8C1709.6,761.8,1709.6,761.8,1709.6,761.8C1709.6,761.8,1709.6,761.8,1709.6,761.8z"/>
		<path class="st4" d="M1701.8,569.3C1701.8,569.3,1701.8,569.3,1701.8,569.3C1701.8,569.3,1701.8,569.3,1701.8,569.3z"/>
		<path class="st4" d="M1709.6,761.8c0-0.1,0-0.6,0-0.8c0,0.8,0,1.6,0,2.4C1709.5,762.8,1709.6,762,1709.6,761.8z"/>
		<path class="st4" d="M1729.4,784.7C1729.5,784.6,1729.5,784.6,1729.4,784.7C1731.7,778.8,1729.7,783.9,1729.4,784.7z"/>
		<path class="st4" d="M1813.4,758.3C1816.2,746.9,1810,771.7,1813.4,758.3L1813.4,758.3z"/>
		<path class="st4" d="M1733.9,729.1C1733.7,727.7,1734.2,734.4,1733.9,729.1L1733.9,729.1z"/>
		<path class="st4" d="M1679.5,756c-1.3-6.9,1.5-13.8,3.4-20.4c1.8-6.2,3.1-13,7-18.3c7.3-9.7,20.9-12.7,31.6-17
			c-2.6,3-12.9,13.1-5.4,16c-2.4,1.2-5.5,1.7-6.9,4.2c-1.3,2.5-0.4,5.6-0.1,8.2c0.9,8,0.7,16.1,0.6,24.1c-0.1,7.3,0.6,14.9-0.7,22
			c-0.3,1.8-0.6,7.5,2.7,4.8c1.4-1.1,1.2-5.2,1.2-6.6c0.1-12.9,0.2-26-1.1-38.9c-0.5-5.1-0.9-10.1,3.1-13.7c2.8-2.5,7.3-5,1.6-7.5
			c3.6-6.7,8.3-13.7,15.4-17.2c-7,10.3-6.8,23.7-7.7,35.6c-1,13.5-0.9,27.3-3.8,40.6c-0.5,2.2,0.2,8.9-2.1,11.8
			c3.3,1.4,3.5-0.2,4.4-3.4c0.7-2.4,0.9-4.9,1.1-7.4c0.4-5.4,0-10.9,1.2-16.3c1.2-5.6,4.6-10.2,8.2-14.5c3.4-4,5.1-4.4,10.1-4.7
			c-2.2,8.8-1.3,18.1-4.1,26.8c-2.3,7.2-7.2,13.2-9.9,20.3c-0.8,1.9-2,2.8,0.4,3.6c2.1,0.7,2.1-0.3,3-1.9c1.7-3.4,2.5-7,4.4-10.4
			c3.9-7.2,8.3-14,13.6-20.2c17.4-20.5,49-36.5,54.5-64.9c11.5,9.6,4.3,24.2-2.2,34.3c-2.9,4.5-6,10.4-12.2,8.3
			c-3.4-1.1-8-4-4.9,2.7c1.9,4.1,9.2,7.9,5.4,12.8c-2.8,3.7-9.3,5.1-13.4,7c-13.2,6.1-24.5,17.7-32.7,29.6c0,0,0.8-1.2,0.7-1.3
			c0.2,0.2-4,6.1-4.2,6.9c4.7,0.9,5.1-0.4,7.7-4.2c1.7-2.6,3.1-5.3,5.1-7.7c5-6.2,11.2-12,17.8-16.4c6.1-4,13.2-6,19.2-10
			c7-4.8,2.7-10-0.6-15.7c13.8,5.9,22.6-23,23.9-32.1c8.5,7.9,16.2,16.7,22.6,26.4c-22.7-3.1-26.9,36.2-26.9,50.8
			c2.6-1.2,2.5-1.2,3.3-3.5c0.6-1.8,0.3-4.4,0.5-6.3c0.5-4.9,1.1-9.7,2.3-14.5c1.5-6,4.1-11.7,8.2-16.5c2.9-3.3,7.4-7.2,12.2-5.9
			c6.8,1.8,9.2,12,10.8,17.7c1.7-2.1,2.5-2.5,1.9-5c-0.4-1.8-1.5-3.6-2.2-5.2c-1.8-4-3.9-8-6.3-11.7c-4.6-7.2-10.1-14-16-20.2
			c-2.5-2.5-5.3-4.8-7.6-7.5c-2.5-2.9-3.6-6.3-5.6-9.4c-4-6.2-9.5-11.3-13.2-17.8c-3.7-6.7-5.3-13.1-1-19.8
			c4.1-6.3,8.5-11.6,11.7-18.5c7.1-15.4,11.4-32.4,10.2-49.4c-1-13.9-5.6-28.3-18.6-35.1c-6.4-3.3-13.1-7-20-9.2
			c-8.3-2.7-17.4-2.8-26-2.2c-16.1,1.2-33.4,5.1-46.6,14.8c-5.6,4.2-11,9.9-10.9,17.3c0,4,1.3,7.1,4.1,9.9c2.3,2.3,4.6,4.2,4.9,7.8
			c0.3,4.1-1.1,8.5-1.1,12.6c0,4.7,0.4,9.5,0.8,14.2c0.9,10.5,2.7,20.9,5,31.1c2,8.7,5,17.2,10.4,24.4c2.7,3.6,6.1,7.1,10,9.5
			c1.9,1.1,6.8,2.1,7.6,4.4c-7.7,5.5-16.6,8.8-25.3,12.1c-7.9,2.9-16.5,5.5-22.9,11.3c-5.4,4.9-8.3,11.4-10.4,18.2
			c-1.3,4.3-2.6,8.6-3.5,12.9c-0.5,2.3-1.3,5.2-1,7.5C1676.4,752.9,1677.6,753.9,1679.5,756C1678.4,749.9,1678.3,754.7,1679.5,756z
			 M1734.4,736.3c-1.3,4.6-6.2,7.1-8.5,11.1c0.1-4.9,0.8-9.8,1.1-14.7c2.2,5.7,6.3-6.4,7.1-8
			C1733.4,728.6,1735.5,732.6,1734.4,736.3C1733.3,740.5,1735.3,733.3,1734.4,736.3z M1743.5,759.4c0.9-6.4,3.3-12.6,3.5-19
			c0-0.4-0.3-3.3-0.2-3.6c0.4-0.7,2.3-1.5,3-2.2c1.2-1.1,6.3-7.5,2-6.4c-0.4-0.2,0.5-2.3,0.6-2.6c-3.6,2.3-7.6,12.1-12.9,8.3
			c-5.9-4.3-2.7-16,3.9-17.8c8.3-2.3,12.2,7.5,12.3,14.1c0.1,4.1-4.2,14.1,3.8,11.6C1753.8,747.2,1748.1,752.8,1743.5,759.4
			C1744.4,753.2,1748.1,752.8,1743.5,759.4z M1742.4,698.3c1.1,4.6,1.7,9.3,2.1,14C1739.5,712.8,1741.5,701.6,1742.4,698.3z
			 M1788,714.3c-8.4,9.3-16.7,20.3-29.2,24.3c2.4-7.4-0.8-15.4-4.6-21.8c9.6-1.9,18.5-6.5,26.2-12.3c7.3-5.5,15.7-13,19.6-21.5
			C1805.5,694.4,1795.2,706.3,1788,714.3C1779.6,723.6,1795,706.5,1788,714.3z M1797.1,677.5c0.4,0.6,0.5,1.3,0.5,2
			C1797.1,676.5,1797.5,677.9,1797.1,677.5C1797.5,678.1,1797.1,677.5,1797.1,677.5z M1795.1,681.8c0.4,6.5-7.6,12-12,15.7
			c-6,5.1-12.6,9.7-19.8,13c-4.7,2.2-12.1,6-15.4,0.3c-3.8-6.5-2.8-15.7-5.3-22.7c19.8,1.2,41.1-14.5,46.8-33.6
			C1790.5,663.6,1794.5,672.6,1795.1,681.8C1795.4,686.5,1794.8,677.5,1795.1,681.8z M1701.8,569.3c0.2-1,0.3-1.9,0.5-2.9
			C1702.1,567.4,1702,568.4,1701.8,569.3c1-5.9,7-9.4,11.9-11.9c6.8-3.5,13.7-6.7,21.2-8.7c15.6-4.1,35.9-6.5,51,0.1
			c12.1,5.3,23.2,10.8,27.7,24c3.9,11.5,3.5,24.3,1.6,36.1c-2.7,17.2-8.9,34.9-21.1,47.8c-0.5-3.2-1.9-6.6-0.7-9.7
			c1.5-4.1,5.9-7,8.5-10.4c3.7-5.1,5.9-11.9,6.4-18.1c0.4-5.8-1.5-12.8-8.5-13c-6.1-0.2-7.8,6.5-10.3,10.8c-2.7,4.6-6.2,6.6-8.4,0.7
			c-2.1-5.7-3.2-12.2-4.8-18.1c-1-3.6-1.7-7.2-1.9-10.9c-0.2-3.1,0.1-6.7-1.1-9.6c-1.4-3.3-3.7-3-6.8-2c-4.6,1.5-9,2.6-13.9,3
			c-10.7,0.9-23.1,3.5-33.7,1.1C1714.8,579.5,1700.9,575.2,1701.8,569.3C1701.8,569.3,1701.1,573.9,1701.8,569.3z M1737.5,684.1
			c-2.1-1-4.3-1.9-6.4-2.9c2,1,4.1,1.8,6.1,2.8c-13.7-6.4-19.6-21.8-22.8-35.6c-4.4-18.8-6.1-38.3-5.2-57.6
			c8.5,2.9,16.4,7.3,24.7,10.8c8.2,3.5,17,5.7,25.9,6.9c6.4,0.8,16.1-1.3,18.5,6.6c0.8,2.7,0.3,6,2.5,8.2c2.7,2.8,5.8,1.7,8.1-0.9
			c3.1-3.6,3.7-9.1,7.5-12.2c5-4.2,8.8,0.6,8.8,5.7c0,5.6-1.8,11.9-4.4,16.7c-3.9,7.1-11.6,9-11.5,18.2c-3.4-2.5-4.5,6.3-4.9,7.9
			c-1.9,6-6.7,10.9-11.4,14.8C1763.7,680.9,1749.5,688.5,1737.5,684.1C1724.4,678.1,1747.4,687.7,1737.5,684.1z M1740.4,691.2
			c1.1,3.4-1.4,6.4-1.8,9.6c-0.4,3.7,1.5,7.4,0.2,11c-0.9,2.6-3.3,4.4-4.9,6.6c-2.1,2.9-3.5,6.4-4.6,9.8
			C1726.7,715.8,1729.7,699.2,1740.4,691.2C1741.5,694.5,1737.5,693.4,1740.4,691.2z"/>
		<path class="st4" d="M1737.2,684c0.1,0,0.2,0.1,0.3,0.1C1737.6,684.1,1737.4,684.1,1737.2,684z"/>
		<path class="st4" d="M1746.8,736.7C1746.9,736.9,1749.2,735.5,1746.8,736.7L1746.8,736.7z"/>
		<path class="st4" d="M1796.7,688.3c0.2-0.3,0.5-0.6,0.7-0.9C1797.2,687.5,1796.4,688.6,1796.7,688.3
			C1796.8,688.2,1796.5,688.5,1796.7,688.3z"/>
	</g>
	<path class="st0" d="M1816.8,597.4c-0.2-13.6-1.1-28.5-11.2-38.9c-3.3-3.4-8.7-4.2-12.9-6.7c-6.3-3.8-13-5.8-20.3-6.7
		c-14.1-1.8-28.8-0.3-42.2,4.2c-9.5,3.2-23.5,7.6-28.2,17.4c-4.9,10.1,6.5,19.6,14.1,24.1c11.9,7,26.7,10.8,40.2,13.4
		c5.9,1.2,12.7,0.8,18.4,2.4c5.7,1.6,4.8,6,5.8,10.7c1.2,5.6,4.9,6.1,7.7,1.2c2.4-4.2,4.2-10.4,9.3-12.2c12.9-4.7,10,15.3,7.9,21.4
		c-2.2,6.3-6.2,11.6-11.2,16.1c-1.3,1.1-1.8,1.1-2.2,2.4c-1.2,3.5,1.2,8.3,1.6,11.8C1809.3,644,1817.2,617.2,1816.8,597.4
		C1816.7,588,1816.8,597.8,1816.8,597.4z"/>
</g>
<g>
	<path class="st4" d="M40.9,99.4c-0.7,1.1,0.6,1.7,1.4,2.1c1.3,0.7,2.5,1.5,3.6,2.3c1.3,1,2.4,2.3,3.3,3.7c0.5,0.8,1,3.5,2.2,3.4
		c1.6-0.2,0.1-3.3-0.2-4.1c-0.7-1.4-1.6-2.7-2.7-3.8C47.4,102,42.1,97.4,40.9,99.4z"/>
	<path class="st4" d="M81.4,257.5c-1.6,0-3.6,0.4-4.8,1.5c-0.6,0.6-0.6,1.6,0.5,1.7c0.5,0,1.1-0.5,1.4-0.6c1-0.5,2-0.5,3-0.7
		C82.9,259.2,82.8,257.4,81.4,257.5z M78.3,260.2C78.2,260.2,78.2,260.2,78.3,260.2C78.3,260.2,78.3,260.2,78.3,260.2z"/>
	<path class="st4" d="M59.5,254.5c-1.7,1.7,5.2,5.1,6.3,5.6c1.2,0.5,7.1,3.6,7.7,1.6c0.4-1.4-1.8-1.6-2.6-1.9
		c-1.5-0.5-2.9-1.1-4.4-1.8c-1.5-0.7-3-1.5-4.3-2.5C61.5,255,60.3,253.6,59.5,254.5z"/>
	<path class="st4" d="M8.1,224.2c-0.6,1,0.9,1.6,1.5,2c1,0.6,1.9,1.3,2.9,1.9c0.6,0.4,1.3,0.8,1.9,1.3c1.8,1.2,3.6,2.2,5.4,3.3
		c1,0.6,2.1,1.1,3.1,1.7c0.5,0.3,2,0.8,1.7-0.4c-0.2-0.7-1.7-1.3-2.3-1.6c-2.5-1.6-5.1-3.1-7.5-4.8c-0.7-0.5-1.4-1-2.1-1.4
		C11.9,225.7,8.9,222.9,8.1,224.2z"/>
	<path class="st4" d="M28,238.2c-0.3,0.5,4.1,2.7,4.6,3c1.2,0.6,2.3,1.3,3.5,1.9c0.9,0.5,1.8,1,2.7,1.4c0.4,0.2,0.9,0.4,1.3,0.7
		c0.3,0.2,1,0.7,1.4,0.7c0.7-0.1,0.6-0.7,0.2-1c-0.3-0.3-0.8-0.4-1.2-0.6c-0.6-0.3-1.3-0.6-1.9-1c-1.9-1-3.8-1.9-5.7-2.9
		C32.4,240.1,28.4,237.6,28,238.2z"/>
	<path class="st4" d="M74.8,4.3c-2.2,0.1-4.5,0.3-6.6,0.9c-2,0.5-3.8,1.4-5.6,2.3c-3.5,1.8-6.7,4.3-9.3,7.3
		c-1.3,1.6-2.3,3.5-3.1,5.3c-0.1,0.4-0.4,0.8-0.4,1.2c0,0,0.1,0.5,0.1,0.5c0,0.1-0.5,0.3-0.7,0.3c-0.9,0.5-1.9,1-2.7,1.7
		c-2.9,2.7-4.1,6.9-3.8,10.7c0.2,2.2,0.8,4.4,1.5,6.5c0.7,2,1.2,4.1,2.2,6.1c0.9,1.9,2.2,3.5,3.2,5.3c1.1,1.8,2.1,3.7,2.8,5.7
		c0.7,1.8,0.8,3.8,1.8,5.5c0.5,0.7,0.9,1.1,1.7,1.4c0.1,0,0.3,0,0.3,0c0.1,0,0.1,0.8,0.1,0.8c0.1,0.6,0.2,1.1,0.2,1.7
		c0.3,2.2,0.7,4.6,0.2,6.9c-0.4,1.9-1.9,3.2-2.6,5.1c-0.1,0.4-0.4,0.9-0.4,1.3c0,0,0.1,0.5,0.1,0.5c0,0.1-0.5,0.3-0.7,0.4
		c-0.9,0.5-1.9,1.1-2.8,1.6c-1.8,1.1-3.6,2.2-5.4,3.4c-3.5,2.4-7.2,4.7-10.4,7.5c-1.6,1.4-3.3,2.7-4.9,4.2c-1.4,1.3-2.6,2.7-3.3,4.5
		c-1.5,4.1-2.1,8.5-3.3,12.7c-1.1,4.1-2,8.3-2.8,12.5c-0.4,1.8-1.4,3.9-0.3,5.7c0.5,0.8,1.3,1.3,1.9,1.9c0.3,0.4,0.3,0.6,0.4,1.2
		c0.1,0.6,0.1,1.2,0.2,1.8c0.9,8.7-1.4,17.3-1.3,26c0.1,4.5,1.3,8.8,2.2,13.1c0.9,4.4,2,8.8,3,13.3c1,4.3,2.2,8.6,3.3,13
		c0.5,2,1,4,1.4,6c0.1,0.5,0.2,1.1,0.3,1.6c0.1,0.6,0,0.5-0.3,1c-0.5,0.9-0.4,2.4-0.6,3.4c-0.3,2.2-0.5,4.4-0.6,6.6
		c-1.4-0.6-2.7-1.3-4.1-1.9c-1.5-0.6-3-1.1-4.5-1.7c-1.3-0.5-2.6-1.1-3.8-1.7c-1.3-0.5-2.3-1.1-3.6-0.7c-2.7,0.8-5.6,2.1-7.9,3.7
		c-0.5,0.4-0.9,1.1-1.4,1.4c-0.1,0.1-0.5,0-0.7,0.1c-0.3,0.2-0.4,0.4-0.5,0.7c-0.6,1.3-0.6,3-0.8,4.4c-0.4,3-0.5,6.1-0.6,9.2
		c-0.1,3.2-0.2,6.4-0.2,9.6c0,6.5,0.2,13,0.4,19.4c0.1,3.2,0.3,6.4,0.6,9.6c0.1,1.2-0.2,2,0.9,2.7c1.4,0.8,2.8,1.5,4.2,2.3
		c5.5,3.1,11,6.2,16.5,9.4c2.7,1.5,5.4,3,8.1,4.5c1.3,0.7,2.7,1.4,4,2.1c0.7,0.4,1.4,0.8,2.2,1.2c0.2,0.1,0.7,0.3,0.9,0.5
		c0.3,0.3,0.2,0.6,0.1,1c-0.2,6.4,0.3,12.8,0.2,19.2c-0.1,7.1-1.1,14-1,21.1c0,3.5,0.4,7,0.8,10.6c0.2,1.5,0.1,3.3,0.6,4.7
		c0.5,1.4,2.2,2.3,3.5,2.8c-0.9,1.5-1.1,3.4-1.3,5.1c-0.3,1.7-0.6,3.3,0,5c1.1,3.2,3.8,5.5,6.3,7.6c1.2,1,2.7,2.3,4.3,2.3
		c0.7,0,1.5-0.2,2.1-0.6c0.1-0.1,0.6-0.6,0.7-0.6c0.3,0,0.9,0.8,1.1,0.9c2.7,2.2,5.7,3.7,9,4.7c2,0.6,4.2,0.9,6.2,1
		c3.4,0.1,6.8,0,10.1-0.3c2.8-0.2,6.5,0.4,8.5-2.2c2.2-2.9,0.5-6-1.7-8.3c-2.6-2.7-6.3-4.3-9.7-5.8c-1.8-0.8-3.6-1.6-5.3-2.7
		c-1.7-1.1-2.9-2.4-4.2-3.9c1.1-0.1,4.2-0.7,3.9-2.3c1.7,0.7,1.7-1.8,1.6-2.8c-0.1-1.9-0.3-3.9-0.4-5.8c-0.2-3.7-0.7-7.5-0.9-11.2
		c-0.2-3.7-0.3-7.4-0.4-11.1c-0.1-1.8-0.1-3.7-0.1-5.5c0-0.9,0-1.9,0-2.8c0-0.4,0-0.8,0-1.2c0-0.5-0.2-1.2,0.3-1.2
		c-0.2,0.9,0.9,2.2,1.9,1.9c0.7-0.2,0.5-0.7,0.9-1.2c0.3-0.4,1.6-0.8,2.1-1c0,0.4-0.3,1,0.3,0.6c0,4.4,0.1,8.7,0.1,13.1
		c0,2.3,0,4.7,0.1,7c0.1,2.2,0,4.3,0.4,6.5c0.2,1,0.5,2,0.6,2.9c0.1,0.7,0.1,0.1-0.2,0.5c-0.1,0.2-0.2,0.3-0.3,0.4
		c-0.2,0.4,0,0.9,0.3,1.2c0.6,0.7,1.5,1.2,2.3,1.6c0.4,0.2,0.9,0.4,1.3,0.6c0.7,0.3,0.7,0.2,0.6,0.9c-0.3,2-0.7,4.2-0.6,6.2
		c0.1,2.1,1.3,3.8,2.8,5.2c1.7,1.7,3.8,2.9,6.1,3.7c2.2,0.8,4.3,1,6.1-0.8c0.5,0.8,2,1.4,2.8,1.8c1.2,0.7,2.3,1.3,3.5,1.9
		c2.2,1.1,4.6,1.9,6.9,2.7c4.8,1.6,10.1,2.5,15.2,2.3c2.2-0.1,4.3-0.6,5.9-2.3c1.5-1.7,1.9-4,1.1-6.1c-0.8-2.1-2.8-3.6-4.6-4.9
		c-2-1.4-4.3-2.5-6.5-3.6c-2.4-1.2-4.8-2.4-6.9-4.1c-1-0.8-2-1.8-2.9-2.7c-0.4-0.4-0.9-0.9-1.3-1.3c-0.4-0.4-0.8-1.1-1.3-1.4
		c1.6-0.8,3.3-1.8,3.8-3.6c0.5-1.7-0.3-3.9-0.6-5.6c-0.7-4.1-1.1-8.2-1.7-12.3c-0.3-2-0.5-4-0.6-6c0-0.3-0.2-1,0-1.2
		c0,0,0.3-0.2,0.3-0.2c0.4-0.4,0.2,0,0.4-0.6c0.2-0.9,0.1-2.1,0.2-3.1c0.2-4.2,0.5-8.3,0.7-12.5c0.4-8.1,1.1-16.3,1.1-24.5
		c0.1-8.3,0-16.6-0.5-24.8c-0.5-8.1-1.7-16.3-1.8-24.4c0-2.1,0-4.1,0-6.2c0-1,0-2.1-0.1-3.1c0-0.4-0.2-1-0.1-1.3
		c0.1-0.3,0.5-0.4,0.8-0.7c1.5-1.1,3-2.5,4-4.1c1.1-1.6,1.7-3.5,2.1-5.3c2.1-7.8,0.7-15.9-1.1-23.7c-0.9-4-1.6-8.1-2.2-12.1
		c-0.6-3.9-1.6-7.7-2.2-11.6c-0.6-4-1.1-8.1-1.5-12.2c-0.4-4.1-0.8-8.1-0.9-12.2c-0.2-7.9-0.5-15.8-0.7-23.6c0-0.7,0.5-4.5-1.1-3.8
		c1.5-1.5,1.9-3,2.1-5.1c0.1-1,0.1-2.1,0.4-3c0.3-1,0.6-2.1,0.9-3.2c1-4.2,0.8-8.6,0.3-12.8c-0.4-4.2-1.4-8.3-3.6-11.9
		c-2-3.3-5.6-5.5-9-7.2c-0.8-0.4-1.6-0.7-2.5-1.1c0,0-0.7-0.2-0.8-0.3c0-0.1,0.2-0.6,0.2-0.7c0.1-0.5,0.3-1.1,0.4-1.6
		c0.5-2.1,0.7-4.3,0.8-6.4c0.2-4.4,0.3-8.8-0.3-13.2c-0.1-0.8-0.2-0.4,0.3-0.8c0.3-0.2,0.5-0.4,0.6-0.7c0.3-1.1,0.2-2.5,0.3-3.6
		c0.2-2.2,0.4-4.4,0.5-6.6c0.1-4.2-0.7-8.5-2.5-12.3c-1.9-4.3-4.2-8.3-8.5-10.5c-2.1-1.1-4.4-1.7-6.7-2.1
		C79.8,4.6,77.3,4.1,74.8,4.3z M86.8,8.9C86.8,8.9,86.9,8.9,86.8,8.9L86.8,8.9z M97.1,25.4C97.1,25.4,97.1,25.5,97.1,25.4
		C97.1,25.4,97.1,25.4,97.1,25.4z M97.1,25.5C97.1,25.6,97.1,25.6,97.1,25.5C97.1,25.5,97.1,25.5,97.1,25.5z M90.6,26
		c-0.1,0.1-0.3,0.1-0.4,0.2C90.3,26.1,90.4,26,90.6,26z M90.3,26.1C90.3,26.1,90.2,26.1,90.3,26.1C90.3,26.1,90.3,26.1,90.3,26.1z
		 M94.6,26.8C94.6,26.8,94.6,26.9,94.6,26.8L94.6,26.8z M62.3,52.3c2.3-0.4,2.7-2.9,2.9-4.8c0.2-2.2,0.4-4.4,1.1-6.5
		c0.7-2,1.6-3.8,2.9-5.5c0.3-0.3,0.5-0.6,0.8-1c0.3-0.5,0.2-0.8,0.2-1.3c2.5-0.2,5.1-0.1,7.5-0.7c2.4-0.5,4.7-1.3,7-1.9
		c2.5-0.7,4.9-1.6,7.3-2.6c0,0,0.6-0.3,0.6-0.3c0.1,0,0,0.2,0.1,0.3c0.7,1,1.4,2,2,3.1c0.3,0.5,0.5,1.1,0.7,1.7
		c0.1,0.1,0.1,0.3,0.2,0.4c0.2,0.5,0.1,0.4,0,0.8c-0.2,2.3,0.2,4.8,0.4,7.1c0.5,5.2,0.6,10.5,0.2,15.7c-0.3,4.4-1.6,9.1-4,12.8
		c-0.6,0.9-1.2,1.8-2.1,2.4c-0.9,0.5-2,0.7-3,0.8c-2.1,0.3-4,0.4-6.1,0c-4-0.8-8.4-2.3-11.3-5.2c-1.2-1.2-2.3-2.4-3.1-4
		c-0.4-0.8-0.7-2.1-1.9-1.8c-1.2,0.3-0.8,1.4-0.5,2.2c1.9,4.5,5.8,7.4,10.2,9.3c3.8,1.6,7.8,2.6,11.9,2c0,0,0,0,0,0
		c-0.5,0.8-0.4,2.2-0.6,3.1c-0.2,1.4-0.5,2.9-1.1,4.2c-1.1,2.4-3.3,4.6-6,5.1c-2.9,0.6-5.8-0.8-8.2-2.3c-1.2-0.8-2.5-1.5-3.7-2.4
		c-1.2-0.9-2.2-2-3.2-3.1c-0.9-0.9-1.7-1.8-2.5-2.7c-0.3-0.3-1.5-1.2-1.6-1.6c-0.1-0.3,0.1-0.4,0.3-0.7c0.1-0.2,0.3-0.4,0.4-0.7
		c0.2-0.7-0.3-0.9-0.5-1.4c-0.2-0.3-0.1,0-0.2-0.2c-0.1-0.2,0-0.8,0-1.1c0-0.8-0.1-1.5-0.2-2.3c-0.2-1.7-0.5-3.5-0.8-5.2
		c-0.1-0.5-0.2-1-0.3-1.5c-0.1-0.1-0.1-0.2-0.2-0.3c0-0.3,0.1-0.5,0.1-0.8c0-0.3,0-0.5,0.1-0.8c0.1-0.9,0.1-1.7-0.1-2.6
		c-0.3-1.5-1-2.8-1.4-4.3c-0.4-1.3-1.1-3.1-0.6-4.4c0.1-0.4,0.2-0.7,0.6-0.9c0.5-0.3,0.4-0.2,0.8,0.1c0.5,0.5,0.8,1.1,1.2,1.6
		C59.4,51.5,60.8,52.6,62.3,52.3z M97.4,31.5c0-0.1,0-0.3,0-0.4C97.4,31.5,97.4,31.7,97.4,31.5z M61.2,31.6c-0.1,0-0.2-0.1-0.3-0.1
		C60.9,31.5,61.2,31.7,61.2,31.6C61.4,31.7,61.2,31.6,61.2,31.6z M67.6,33.3c0.1,0,0.2,0,0.3,0C67.8,33.4,67.7,33.4,67.6,33.3z
		 M61.8,50C61.8,50,61.8,50,61.8,50C61.8,50,61.8,50,61.8,50z M56.4,62.4c0-0.1,0-0.1,0-0.2C56.5,62.4,56.5,62.5,56.4,62.4z
		 M89.4,95.2c-1.8-1-3.2-2.5-4.9-3.6c-1.1-0.7-2.3-1.5-3.5-2c0,0,0,0,0,0c2.9-1.3,5.1-3.6,6.2-6.6c0.5-1.4,0.8-2.8,1.1-4.3
		c0.1-0.9,0.7-3-0.1-3.7c0,0,0,0,0,0c2.2-0.3,3.8-1.2,5.1-3c1.3-1.7,2.2-3.6,2.9-5.5c0.3-0.9,0.8-0.3,1.7,0c1.1,0.4,2.1,1,3.1,1.6
		c1.5,0.9,3.1,1.8,4.4,3c2.9,2.7,4.2,6.9,4.8,10.7c0.7,4.4,1.1,9.2,0.3,13.6c-0.1,0.5-0.1,1.6-0.4,2.1c-0.3,0.4-0.6,0.5-0.7,1.1
		c-0.1,0.6-0.1,1.3-0.1,2c-0.1,1.2-0.1,2.5-0.3,3.7c-0.2,1.3-1,2.1-2,3c0,0,0,0,0,0c-0.2-3.8-0.6-7.5-1-11.3c0-0.4-0.1-2-1-1.2
		c-0.5,0.5-0.2,2.4-0.2,3.1c0,1.4,0.1,2.7,0.1,4.1c0,5.6,0.1,11.3,0.2,16.9c0.1,7-0.3,13.9-0.5,20.9c-0.2,7.6-0.6,15.4,0.1,23
		c0.5,6.2,1.8,12.5,2.6,18.7c0.2,1.9,0.5,3.8,0.7,5.6c0.1,0.7,0.1,1.4,0.1,2.1c0,0.4-0.1,1,0.1,1.4c0.1,0.2,0.4,0.5,0.4,0.6
		c0,0.3-0.7,1.3-0.9,1.6c-0.5,0.7-1,1.5-1.7,2.1c-1.3,1.3-2.8,2.3-4.1,3.4c-5,4.1-10.6,7.5-16.6,9.7c-3.3,1.2-6.6,2.1-10,3.2
		c-3.4,1.1-6.9,1.9-10.5,2.1c-3.1,0.2-6.2,0.3-9.4,0c-1.9-0.2-3.9-0.2-5.8-0.4c-0.4,0-0.9,0-1.2-0.3c-0.3-0.3-0.4-0.9-0.6-1.2
		c-0.1-0.3-0.3-0.7-0.5-1c-0.1-0.1-0.5-0.2-0.6-0.3c-0.3-0.4-0.3-2-0.4-2.6c-0.1-0.9-0.3-1.8-0.4-2.7c-0.5-3.2-0.9-6.5-1.3-9.7
		c-0.7-6.4-1.7-12.7-1.7-19.2c0-3.3,0-6.7,0.3-10c0.4-3.7,1.5-7.4,2.7-10.9c1-3,2-6.1,2.4-9.2c0.2-1.5,0.1-3,0.3-4.5
		c0.1-1,0-1.1,0.9-1.3c0.5-0.1,1-0.2,1.5-0.5c1.2-0.9,1.6-2.9,2-4.3c0.4-1.1,0.7-2.3,1-3.5c0.8-2.8,1.5-5.6,1.9-8.6
		c0.2-1.1,0.6-3.3-0.2-4.3c-0.4-0.5-1.2-0.5-1.6,0c-0.5,0.6-0.1,1.7-0.2,2.4c-0.3,3.1-1.2,6.1-2,9.1c-0.4,1.3-0.7,2.5-1.1,3.8
		c-0.3,0.9-0.6,1.9-1,2.8c-0.4,0.8-0.8,0.8-1.6,0.9c-2.7,0.6-5.3,1.1-8.1,0.6c-3.1-0.5-6.2-1.1-9.3-1.9c-1.3-0.4-2.6-0.7-3.9-1.2
		c-1.3-0.5-2.8-0.9-3.8-1.9c-0.6-0.5-1-1-0.8-1.8c0.2-1,0.5-1.9,0.6-2.9c0.4-1.9,0.8-3.7,1.3-5.6c0.8-3.7,1.7-7.3,2.6-11
		c0.6-2.7,1.2-5.4,2.1-8c1.1-3.3,4.3-5.1,6.7-7.3c2.5-2.3,5.4-4.2,8.2-6.2c2.9-2.1,6-4,9-6c0.6-0.4,1.3-0.8,2-1.2
		c0.8-0.4,1.5-0.6,1.5-1.6c0-0.5-0.1-0.5,0.1-1.1c0.2-0.4,0.3-0.9,0.5-1.3c0.3-0.6,0.7-1.3,1.2-1.8c3,2.8,5.5,6.3,9,8.5
		c3.5,2.2,7.6,4.9,12,4c0,0.1-0.1,0.3-0.1,0.4c0.3,0.8-0.1,1.4-0.5,2.2c-0.7,1.5-1.4,3-2.1,4.5c-0.6,1.4-1.3,2.8-2.1,4.1
		c-0.4,0.6-0.7,1.1-1.2,1.6c-0.2,0.2-0.8,0.6-0.8,1c-3.6-2.1-6.4-5-9.1-8c-2.3-2.6-4.4-5.3-6.2-8.3c-0.4-0.7-1.1-1.7-1.9-0.9
		c-0.8,0.8,0.4,2.1,0.8,2.8c1,1.7,2,3.3,3.2,4.9c2.3,3.2,5,6.4,8.1,8.8c1,0.8,5.1,4.6,6.2,2.7c-0.2,0.3,0.4-1,0.2-0.7
		c0.1-0.2,0.6-0.3,0.8-0.5c0.4-0.4,0.8-0.8,1.2-1.2c0.6-0.8,1.2-1.7,1.6-2.6c0,0,0,0,0,0c0.1,0.7,0.3,1.4,0.7,2
		c0.2,0.3,0.9,1.4,1.2,1.4c-0.6,0.4-0.5,1.3-0.5,1.9c-0.1,0.8-0.1,1.7-0.2,2.5c-0.1,1.2-0.2,2.3-0.2,3.5c-0.3,4.5-0.7,9-0.9,13.5
		c-0.1,3.2-0.1,6.3-0.2,9.5c-0.1,3.2-0.4,6.5-0.4,9.7c0,3.4,0,6.7,0.1,10.1c0.1,3.5,0.5,6.9,0.6,10.4c0.1,2.6,0.1,5.2,0.5,7.8
		c0.2,1.4,0.4,3.2,1.2,4.5c0.7,1.1,2.3,2.1,3.4,2.7c1.3,0.8,2.8,1.4,4.4,1.6c1.3,0.1,2.3-0.4,3.2-1.4c1.7-1.9,3-4.2,4.1-6.4
		c1.4-2.7,2.7-5.6,2.2-8.7c-0.4-2.8-1.3-5.6-1.9-8.3c-1.2-5.2-2-10.5-2.8-15.8c-0.8-5.5-1.6-11-2.6-16.4c-0.6-3-1.5-5.9-2.2-8.9
		c-0.7-2.8-1.1-5.7-1.5-8.5c-0.1-1,0.1-2.9-1-3.3c0,0,0,0,0,0c2.4-1.3,3.1-4.8,3.2-7.3c2.3,2.3,5.5-0.7,6.9-2.5
		c2.3-2.8,3.6-6.6,2.7-10.2c-0.5-1.7-1.4-3.3-2.1-4.9c-0.4-0.9-1-3-2.4-2.2c-1.3,0.8,0.4,3.5,0.8,4.4c0.8,1.7,1.7,3.3,1.6,5.2
		c0,2-0.8,3.9-1.9,5.5C92.6,93,90.7,95.6,89.4,95.2z M84.6,94.5c0.1,0.1,0.7,0.5,0.7,0.5C85,94.9,84.8,94.7,84.6,94.5z M89.8,95.2
		C90,95.2,89.8,95.2,89.8,95.2C89.8,95.2,89.8,95.2,89.8,95.2z M89.8,95.2C89.8,95.2,89.7,95.2,89.8,95.2L89.8,95.2z M79,96.8
		c0,0.2,0.4-2.3,0,0.3C79,97,79,96.9,79,96.8z M79,96.9C79,97,79,97,79,96.9C79,96.9,79,96.9,79,96.9z M84.5,100.4
		C84.4,100.5,84.4,100.5,84.5,100.4C84.5,100.4,84.5,100.4,84.5,100.4z M79.7,101.6C79.8,101.7,79.8,101.7,79.7,101.6
		C79.8,101.7,79.7,101.6,79.7,101.6z M108.6,195.3c0.7-0.9,2-2.4,1.8-3.7c-0.1-0.3-0.2-0.4-0.4-0.7c-0.2-0.3-0.2-0.2-0.2-0.6
		c0.1-0.8,0.1-1.6,0.1-2.4c-0.2-3.1-0.7-6.2-1.1-9.3c-0.9-6.2-2.5-12.5-2.5-18.9c0-10.5,0.6-21,0.9-31.5c0.1-3.2,0-6.4,0-9.7
		c0-1.9-0.1-3.8-0.2-5.6c0-0.5,0-1,0-1.5c0-0.6-0.1-1,0.2-1.5c0.4-0.5,1.1-0.9,1.6-1.3c0,0-0.3,1.5-0.3,1.7c0,0.5-0.1,1-0.1,1.5
		c-0.1,1.8-0.1,3.7-0.1,5.5c-0.1,4,0.1,8,0.2,12.1c0.1,3.4,0.1,6.9,0.3,10.3c0.2,3.7,0.7,7.5,1.2,11.2c0.4,3.2,0.9,6.5,1.3,9.7
		c0.5,3.3,1.4,6.6,1.9,10c0.6,3.6,1.2,7.1,1.8,10.6c0.7,4,1.8,7.9,2.3,11.9c0.5,3.6,0.7,7.5,0,11.2c-0.4,2.3-1.1,4.6-2.2,6.6
		c-0.9,1.7-2.2,2.9-3.6,4.2c0,0,0,0,0,0c-0.4-3.3-0.8-6.6-1.2-9.9c-0.2-2.1-0.5-4.2-0.9-6.2C109.4,198.1,109.4,196,108.6,195.3z
		 M25,137.1c0.5,0,1.1,0.4,1.6,0.6c1,0.4,2,0.7,3,0.9c1.8,0.5,3.6,1,5.5,1.3c1.9,0.4,3.9,0.7,5.9,0.9c1,0.1,2,0.2,3,0.1
		c0.9-0.1,1.8-0.4,2.6-0.4c-0.2,1.5-0.3,3.1-0.5,4.6c-0.2,1.9-0.8,3.9-1.4,5.7c-0.9,3-2,6-2.8,9c-1.8,6.9-1.2,13.9-0.8,20.9
		c0.4,6.1,1.1,12.2,1.9,18.2c0.3,2.3,0.6,4.5,1,6.8c0.3,1.5,0.5,3,0.9,4.5c0.3,1.1,0.9,1.9,1.2,2.9c0.1,0.4,0.1,0.8,0.3,1.2
		c0.2,0.3,0.5,0.5,0.7,0.8c0.6,0.7,1,1.6,1.6,2.3c1.2,1.7,2.4,3.4,3.4,5.2c0.8,1.5,1.7,3.1,2.3,4.8c0.6,1.7,0.7,3.7,1.6,5.3
		c0,0,0,0,0,0c-0.8-0.5-2.2-1.2-3.2-1.3c0.2-0.6,0.6-1.5-0.4-1.6c-1-0.1-1.4,1.5-1.6,2.2c-0.3,1.2-0.1,2.3-0.1,3.5
		c0,0.4-0.1,0.8-0.1,1.2c0,0.3-0.2,0.6-0.2,0.9c0,0.3,0.3,0.6,0.3,0.8c0,0.4-0.1,0.2-0.3,0.3c-0.2,0.1-1,0.2-1.3,0.3
		c-1,0.2-2.1,0.1-3.1-0.1c-1-0.2-2.1-0.5-3-1c-1.1-0.6-2.1-1.4-3.2-2c-1.8-1.1-4.4-1.6-5.5-3.6c-1.2-2.1-1.3-4.7-1.3-7
		c0-2.4,0.1-4.8,0.4-7.2c0.1-0.6,0.2-1.3,0.2-1.9c0.1-0.4,0-1,0.2-1.3c0.1-0.3,0.3-0.3,0.5-0.6c0.3-0.5,0.2-1.1,0.1-1.6
		c-0.4-4-1.5-8-2.5-11.8c-1-3.9-2-7.9-2.9-11.8c-0.9-4-1.8-8.1-2.6-12.1c-0.9-4.6-2.2-9.1-2-13.9c0.1-4.3,0.7-8.5,1.1-12.8
		c0.2-2.2,0.5-4.5,0.5-6.8C25.5,141.3,25,139.1,25,137.1z M103.9,199.5c0,0,1.9-1.4,2.1-1.6c0.1-0.1,0.7-0.7,0.8-0.7
		c0.1,0,0.3,1.8,0.4,2c0.5,2.7,0.8,5.5,1.1,8.2c0.5,5,1.4,9.9,1.4,15c0,3,0,5.9,0.1,8.9c0.1,3,0.5,5.9,0.7,8.9
		c0.4,5.1,1,10.2,1.1,15.2c0.3,9.3,0.7,18.6,0.2,27.9c-0.2,4.7-0.5,9.4-0.7,14.1c-0.1,2.2-0.2,4.4-0.2,6.6c-0.1,3,0,6.1-0.3,9.1
		c-0.3,3.2-0.9,6.4-0.7,9.6c0.1,1.4,0.3,2.9,0.4,4.3c0.3,3.2,0.6,6.5,1.1,9.7c0.2,1.2,0.4,2.5,0.6,3.7c0.1,0.7,0.4,1.5,0.3,2.1
		c-0.1,0.6-0.5,0.8-0.9,1.2c-1.3,1.3-3.9,2.1-5.7,2.7c-2.3,0.7-4.5,1-6.9,1.1c-4.2,0.2-8.3,1-12.4-0.1c-1.1-0.3-2.1-0.6-3.1-1.2
		c-0.1,0-0.7-0.4-0.7-0.4c0,0,0,0,0,0c-0.1,0,0-0.1,0.1-0.2c0-0.2,0.1-0.4,0.2-0.5c0-0.3-0.2-0.7-0.3-1c-0.6-1.9-0.7-3.9-0.8-5.9
		c-0.1-3.2-0.2-6.5-0.2-9.7c0-4.3-0.5-8.6-0.9-12.8c0,0,0,0,0,0c0.3,0.2,1,1.3,1.3,0.7c0.2-0.4-0.9-1.4-1.2-1.7
		c0.2-0.1,0.4-0.1,0.6-0.1c-0.1-0.2-0.2-0.5-0.4-0.6c1.5-0.7,3.5-1.2,3.9-3c0.4-1.8,0.3-3.7,0.4-5.5c0.1-4.8,0-9.7,0-14.5
		c0-8.3,0.7-16.6,0.4-24.9c-0.1-2.2-0.3-4.3-0.5-6.5c-0.1-1,0-2.1-0.2-3.1c-0.1-0.5-0.3-1-0.8-1.2c-0.5-0.1-0.6,0.2-1,0.2
		c-0.3-0.8-1.4-1.5-2-2c-0.7-0.6-1.2-1-2-1.5c0,0,0,0,0,0c1.9-0.2,0.7-7.3,0.6-8.6c-0.2-2.2-0.5-4.4-0.9-6.5c-0.1-0.4-0.2-0.8-0.6-1
		c-0.3-0.2-1.3-0.2-1.7-0.1c-0.7,0.2-0.8,0.9-0.9,1.4c-0.3,0.9-0.5,1.8-0.8,2.6c-0.7,2.6-1.8,5.5-1.8,8.2c-1.6-0.9-3.2-1.6-4.8-2.4
		c-0.9-0.4-1.7-0.9-2.6-1.4c-1-0.6-2.3-1-3.3-1.7c-0.2-0.1-0.3-0.3-0.5-0.4c-0.2-0.1-0.8-0.2-0.9-0.3c-0.1-0.2,0-0.6-0.1-0.8
		c-0.1-1.3-0.2-2.6-0.9-3.7c-0.9-1.5-2.5-3-3.9-4.1c0,0,0,0,0,0c2,0.6,1.1-2.5,0.9-3.4c-0.4-1.7-0.8-3.3-1.6-5
		c-1.5-3.4-3.5-6.5-5.7-9.5c0,0,0,0,0,0c7.8,0.8,15.8,1,23.4-1.2c7.9-2.3,15.7-4.8,22.7-9.1C98.8,203.4,101.5,201.3,103.9,199.5z
		 M6,223.4c0.8,0,1.8-1.2,2.5-1.6c0.9-0.5,1.9-1.1,2.9-1.6c1.2-0.7,2.5-1.1,3.9-1.6c0.3-0.1,0.7-0.4,1-0.4c0.4,0,1,0.5,1.4,0.7
		c3.9,2.1,7.7,3.5,11.6,5.4c-1.6,1.6-1.8,3.7-1.9,6c-0.1,1.1-0.3,2.4,0.5,3.3c0.7,0.7,2,1.2,3,0.9c0.9-0.3,1.1-1.5,0.1-1.8
		c-0.7-0.2-1.4,0.1-1.7-0.8c-0.3-0.8,0.1-2.4,0.2-3.3c0.1-0.9,0.2-1.9,0.9-2.6c0,0,0,0,0,0c0.1,2.7,0.4,6.1,2.2,8.3
		c1.7,2.1,4.5,2.7,6.7,4.1c1.1,0.7,2.1,1.5,3.4,2c1.3,0.5,2.6,0.8,4,1c1.2,0.2,2.5,0.2,3.6-0.3c1.1-0.5,1-1.1,1.1-2.1c0,0,0,0,0,0
		c0.6,0.6,1.1,0.6,1.3,1.5c0.2,1.1,0.1,2.2,0.2,3.3c0.1,1.8,0,4.6,1.7,5.7c1.5,1,4,1,5.3-0.3c1.4-1.4,1.5-3.9,1.5-5.8
		c1.5,1,3,1.9,4.5,2.9c2,1.3,4.2,2.3,6.3,3.5c1.8,1.1,3.6,2.3,5.4,3.5c1.1,0.8,2.1,1.6,3.1,2.4c0.7,0.6,1.7,1.6,2.6,0.9c0,0,0,0,0,0
		c0.4,3.3,0.6,6.5,0.8,9.8c0.2,4.3,0.1,8.6,0,12.9c-0.2,8.9-0.1,17.9-0.2,26.8c0,1.3,0.1,2.8-0.2,4.1c-0.1,0.8-0.5,0.8-1.3,1.2
		c-0.9,0.4-1.9,0.7-2.9,1.1c-0.7,0.3-1.6,0.9-2.3,0.9c-0.5-5.3-0.7-10.8-0.7-16.1c-0.1-4.8-0.4-9.7-0.6-14.5
		c-0.3-4.7-0.1-9.5,0-14.3c0-1.2,0.1-2.5,0.1-3.7c0-0.9,0.6-3.8-1-3.6c-1.3,0.2-0.9,3.2-0.9,4.2c-0.1,2.9-0.2,5.8-0.3,8.8
		c-0.1,3.1,0,6.3,0,9.4c-1-0.4-2.1-0.6-3.1-0.9c-0.9-0.3-1.8-0.5-2.8-0.7c-1.5-0.4-3-0.8-4.5-1.2c-4.1-1.2-8.2-2.6-12.1-4.4
		c-1.9-0.8-3.8-1.7-5.5-2.9c-0.7-0.5-1.4-1-2.1-1.5c-0.1,0-0.8-0.4-0.8-0.4c0-0.1,0.1-0.4,0.1-0.4c0-0.9,0.3-1.9,0.3-2.7
		c0.2-2.1-1.4-3.1-3-4.1c-0.8-0.5-1.6-1-2.5-1.5c-0.9-0.6-1.9-1.3-2.9-1.7c-1-0.4-2.3,0-3,0.9c-0.3,0.5-0.3,0.8-0.1,1.4
		c0.1,0.3,0.2,0.5,0.2,0.8c0,0.4,0,0.8,0,1.2c0,0,0,0,0,0c-2.9-2.5-6.2-4.4-9.2-6.7c-3.3-2.6-6.3-5.4-9.2-8.3
		c-2.8-2.8-5.7-5.5-7.8-8.8c-0.2-0.4-0.5-0.8-0.6-1.2c-0.1-0.5,0-1,0-1.5c0-0.4,0-0.8,0-1.3c0-1.4,0-2.9,0.1-4.3
		c0.1-2.2,0.2-4.5,0.5-6.7c0.1-0.5,0.1-0.9,0.2-1.4C5.7,224.7,6,223.9,6,223.4z M51.8,237.4c0.8,0,0.6-1.2,0.5-1.7
		c0-0.3-0.4-1.6-0.2-1.8c0.1-0.1,0.8,0.3,1,0.3c1.4,0.5,2.3,1.3,3.4,2.3c1,0.9,2.1,1.6,2.4,2.9c0.3,1.5,0.3,3.1,0.3,4.6
		c0,1.1,0.1,3.2-0.9,4c-0.7,0.6-2.5,0.4-3.1-0.3c-0.7-0.8-0.6-2.7-0.7-3.7c-0.1-1.5,0.1-3.3-0.5-4.7c-0.2-0.6-0.6-1-1.2-1.4
		C52.8,237.9,51.8,237.3,51.8,237.4z M43.5,238.4C43.6,238.5,43.6,238.5,43.5,238.4C43.5,238.4,43.5,238.4,43.5,238.4z M75.4,248.3
		c0.4-0.3,0.4-1.5,0.4-1.9c0.1-0.8,0.2-1.5,0.4-2.3c0.2-1.6,0.5-3,1-4.6c0.6,3.8,0.6,7.7,1.2,11.6c-0.1-0.6,0,0.1,0,0.2
		c-0.7-0.5-1.4-0.9-2.1-1.4c-0.3-0.2-0.7-0.4-1-0.6c-0.4-0.4-0.4-0.3-0.4-1C75.1,248.3,75.3,248.3,75.4,248.3z M52.3,240
		C52.4,240.1,52.4,240.1,52.3,240C52.3,240,52.3,240,52.3,240z M33.7,263.3C33.6,263.3,33.6,263.3,33.7,263.3
		C33.6,263.3,33.7,263.3,33.7,263.3z M33.7,263.3C33.7,263.3,33.5,263.4,33.7,263.3C33.7,263.3,33.7,263.3,33.7,263.3z M32.9,273.8
		c-0.2,0,0.2-3.9,0.2-4.2c0.1-0.8,0.1-1.7,0.2-2.5c0-0.7,0.1-1.3,0.1-2c0-0.3-0.1-1.4,0-1.6c0.5-0.5,3.2,1.6,3.7,1.9
		c0.9,0.6,3.7,1.8,3.5,2.9c0,0,0,0,0,0c0,0,0,0,0-0.1c-0.2,1.8-0.5,3.7-0.7,5.5c0,0.3-0.1,0.7-0.2,1c-0.1,0.7-0.5,1.6-0.5,2.2
		c-2.1-1-4-2.2-6.2-3C33.6,274.1,33,273.9,32.9,273.8z M31.5,267.5c0,0.1-0.1,0.1-0.2,0.1C31.3,267.5,31.4,267.5,31.5,267.5z
		 M42.2,274.2c0.1,0,0,0.1,0,0.2C42.2,274.3,42.2,274.3,42.2,274.2z M39.6,277C39.5,277,39.5,277,39.6,277
		C39.6,277,39.6,277,39.6,277z M55.9,357.7c-1.3-0.2-2.5-0.7-3.7-1c-1.3-0.4-2.7-0.7-4-1.1c-1.6-0.5-4.9-1.1-5.4-2.9
		c-0.5-1.7-0.6-3.6-0.9-5.4c-0.3-2.7-0.5-5.4-0.5-8.1c0-4.9,0.2-9.8,0.7-14.8c0.3-3.8,0.3-7.6,0.3-11.4c0-2.3-0.1-4.7-0.2-7
		c-0.1-2.5-0.3-5.1-0.1-7.6c4.4,2.3,8.9,4.5,13.4,6.7c2.6,1.3,5.2,2.4,7.7,3.8c1.7,1,3.5,2,5.2,2.9c0.8,0.4,1.7,0.9,2.5,1.3
		c0.3,0.2,0.8,0.3,1.1,0.6c0.4,0.4,0.3,0.4,0.3,1.1c-0.1,2.9-0.2,5.8-0.2,8.7c0,5.7-0.1,11.4,0.4,17.1c0.3,3.1,0.5,6.2,0.7,9.3
		c0.1,1.9,0.4,3.9,0.4,5.7c-0.8-0.4-2.3,0.6-3.1,0.8c-1.6,0.3-3.2,0.4-4.8,0.7C62.5,357.9,59.2,358.1,55.9,357.7z M74.8,312.7
		c0-0.1,0-0.3,0-0.4C74.8,312.3,74.8,312.7,74.8,312.7z M86.9,350.1c0.1,0,0.1,0.1,0,0.3C86.9,350.3,86.9,350.2,86.9,350.1z
		 M73.1,361.8c0.1,0,0.1,0.1,0.2,0.1C73.2,361.9,73.2,361.8,73.1,361.8z M88.5,373.6C88.6,373.8,88.6,373.8,88.5,373.6
		C88.5,373.7,88.5,373.6,88.5,373.6z M88.5,373.7c0.1,0.1,0.1,0.1,0.2,0.2C88.6,373.8,88.6,373.8,88.5,373.7z M71.1,379.6
		c0,0-0.1,0-0.1,0c0.2,0,0.3,0,0.5,0.1C71.3,379.6,71.2,379.6,71.1,379.6z M70.8,381.9C70.8,381.9,70.8,381.9,70.8,381.9
		C70.8,381.9,70.8,381.9,70.8,381.9z"/>
	<path class="st5" d="M106.8,197.2c-5.3,4.4-10.9,8.5-17.2,11.4c-4.2,1.9-8.6,3.2-13,4.6c-2.2,0.7-4.5,1.4-6.8,1.9
		c-2.3,0.5-4.7,0.6-7,0.7c-4.3,0.2-8.6,0-12.9-0.4c2.1,3,4.2,6.1,5.7,9.5c0.7,1.6,1.2,3.2,1.6,5c0.2,0.9,1.1,4-0.9,3.4
		c1.4,1.3,3,2.5,4,4.2c0.7,1.1,0.8,2.5,0.9,3.8c0,0.1,0,0.5,0,0.6c0.2,0.2,0.7,0.2,0.9,0.3c0.3,0.2,0.4,0.3,0.7,0.5
		c0.9,0.6,2.1,1,3.1,1.6c0.9,0.5,1.7,1,2.6,1.4c1.6,0.8,3.2,1.5,4.8,2.4c0.3-3.1,1.2-6,2-9c0.4-1.3,0.4-3.2,2-3.3
		c1.1-0.1,1.6,0.2,1.8,1.3c0.4,2.1,0.7,4.3,0.9,6.5c0.1,1.3,1.2,8.2-0.6,8.4c0.4,0.3,0.7,0.6,1.1,0.9c0,0,0,0-0.1-0.1
		c0.9,0.7,2.6,1.7,3,2.7c2-1.6,2,2.7,2.1,3.6c0.1,2.1,0.4,4.2,0.5,6.3c0.1,3.1,0.1,6.1,0,9.2c-0.2,4.9-0.4,9.7-0.4,14.6
		c0,4.8,0.1,9.5,0,14.3c0,2.1,0.1,4.3-0.2,6.4c-0.1,1.1-0.4,2-1.3,2.6c-0.9,0.5-1.8,0.9-2.7,1.4c0.2,0.2,0.3,0.4,0.4,0.7
		c-0.2,0-0.4,0.1-0.6,0.1c0.2,0.3,1.5,1.5,1.1,1.9c-0.4,0.4-1.1-0.6-1.3-0.8c0,2.2,0.4,4.5,0.6,6.7c0.2,2.6,0.3,5.2,0.3,7.8
		c0,2.6,0.1,5.1,0.2,7.6c0,1.6,0.1,3.1,0.4,4.7c0.2,0.9,1,2.5,0.4,3.3c5,3.5,12,2,17.7,1.6c3.1-0.2,6.1-1.1,8.9-2.4
		c1.1-0.5,3-1.3,3.1-2.7c0.1-1.3-0.5-2.9-0.7-4.2c-0.8-4.7-1.2-9.4-1.7-14.1c-0.3-3.2-0.2-6.5,0.3-9.7c0.5-3.4,0.4-7,0.5-10.5
		c0.4-10.5,1.1-21.1,1.1-31.6c0-5.5-0.2-11-0.4-16.6c-0.2-5.7-0.8-11.5-1.3-17.3c-0.3-3.5-0.6-6.9-0.7-10.3c0-3.2,0-6.4-0.2-9.6
		c-0.1-2.6-0.6-5.2-0.9-7.8c-0.4-3.3-0.6-6.5-1.2-9.8C107.4,200.7,106.9,197.2,106.8,197.2z"/>
	<path class="st5" d="M42.1,298.4c-0.1,0,0.3,14.9,0.3,16c0,2-0.1,3.9-0.1,5.9c0,3-0.4,5.9-0.6,8.9c-0.4,6.4-0.5,12.9,0.4,19.3
		c0.1,1,0.3,2,0.5,3c0.1,0.6,0.1,1.4,0.5,1.9c0.5,0.5,1.4,0.9,2.1,1.1c2.7,1.1,5.6,1.6,8.3,2.5c3.4,1.1,7.2,1.1,10.7,0.5
		c1.8-0.3,3.7-0.7,5.5-0.9c0.8-0.1,1.6-0.3,2.4-0.6c0.5-0.2,1-0.5,1.5-0.3c0.1-0.7-0.1-1.7-0.2-2.5c-0.1-1.1-0.2-2.2-0.2-3.3
		c-0.2-2.8-0.4-5.5-0.6-8.3c-0.5-5.6-0.5-11.2-0.5-16.8c0-3,0.1-5.9,0.2-8.9c0-0.5,0.1-1.2,0.1-1.7c-0.1-0.5,0-0.4-0.6-0.8
		c-0.6-0.3-1.3-0.7-1.9-1c-4.4-2.2-8.5-4.8-13-6.9C51.9,303.5,47.1,300.8,42.1,298.4z"/>
	<path class="st6" d="M96.4,66.1c-0.1,0-1.1,2.6-1.2,2.9c-0.5,1-1,2-1.7,2.9c-1.4,1.9-3,3-5.4,3.3c0.8,0.8,0.2,2.9,0.1,3.9
		c-0.3,1.5-0.5,2.9-1.1,4.3c-1.2,2.9-3.3,5.1-6.2,6.4c1.3,0.6,2.5,1.3,3.7,2.1c1,0.6,2,1.3,2.9,2c0.5,0.4,1.4,1.4,2,1.4
		c1.5,0.2,3.3-2.4,4-3.5c1.1-1.8,1.9-4,1.6-6.1c-0.3-2.3-1.7-4.3-2.5-6.4c-0.3-0.7-0.8-1.8,0.3-2.2c1-0.4,1.4,0.6,1.8,1.3
		c0.8,1.7,1.8,3.4,2.4,5.2c0.7,2.1,0.7,4.5,0,6.6c-1,3.1-5.4,9.8-9.3,6.8c-0.4,1.1-0.4,2.4-0.7,3.5c-0.4,1.5-1.1,3-2.6,3.7
		c1.1,0.5,0.9,2.5,1,3.5c0.2,1.3,0.4,2.6,0.6,3.9c0.6,3.1,1.3,6,2.1,9c1.5,5.5,2,11.1,2.9,16.7c0.9,5.1,1.6,10.2,2.6,15.3
		c0.5,2.8,1.1,5.7,1.8,8.5c0.4,1.6,0.8,3.1,1.1,4.7c0.2,1.5,0,3-0.5,4.5c-0.8,2.8-2.4,5.6-4.1,7.9c-1.3,1.9-2.6,4.2-5.2,3.8
		c-1.5-0.2-3-0.8-4.3-1.6c-1.1-0.7-2.7-1.6-3.3-2.8c-0.7-1.3-0.9-3-1.2-4.5c-0.3-1.7-0.3-3.4-0.4-5c-0.2-6.1-0.7-12.1-0.7-18.2
		c0-6.7,0.3-13.3,0.5-20c0.1-7.9,0.9-15.7,1.4-23.5c0-0.6-0.1-1.5,0.5-1.9c-1.1-0.8-1.8-2.1-2-3.4c-0.5,0.7-0.8,1.4-1.3,2.1
		c-0.3,0.5-0.7,0.9-1.1,1.3c-0.3,0.3-1.1,0.6-1.3,0.9c-0.3,0.5,0,0.9-0.7,1.2c-0.5,0.2-0.9,0-1.4-0.2c-1.1-0.6-2.1-1.3-3.1-2.1
		c-3.3-2.4-5.9-5.5-8.4-8.7c-1.1-1.4-2.2-3-3.1-4.5c-0.6-0.9-1.3-2-1.7-3c-0.3-0.9,0.4-1.8,1.3-1.3c0.8,0.4,1.3,1.9,1.7,2.6
		c0.4,0.7,0.8,1.3,1.3,1.9c0.8,1.2,1.7,2.3,2.7,3.4c3.1,3.6,6.2,7,10.3,9.4c0.1-0.5,0.7-0.8,1-1.2c0.5-0.5,0.8-1.1,1.2-1.7
		c0.7-1.1,1.3-2.3,1.8-3.6c0.6-1.3,1.2-2.6,1.8-3.9c0.3-0.6,0.7-1.2,0.8-1.9c0.1-0.5-0.1-0.9,0-1.5c-4.4,0.9-8.5-1.8-12-4
		c-3.5-2.3-6-5.7-9-8.5c-0.5,0.6-0.9,1.3-1.3,2c-0.2,0.4-0.4,0.8-0.5,1.3c-0.1,0.2-0.1,0.4-0.1,0.6c0,0.3,0.1,0.4,0.1,0.7
		c-0.2,0.7-1.2,1-1.8,1.3c-0.6,0.3-1.2,0.7-1.8,1.1c-3.2,2-6.3,4-9.3,6.2c-2.7,1.9-5.4,3.7-7.8,6c-2.5,2.3-5.6,4.1-6.7,7.5
		c-0.8,2.6-1.4,5.4-2,8.1c-0.9,3.6-1.8,7.2-2.6,10.8c-0.4,2-0.9,3.9-1.3,5.8c-0.2,0.8-0.4,1.6-0.6,2.5c-0.1,0.8,0.3,1.3,1,1.9
		c1.1,0.9,2.7,1.4,4,1.9c1.4,0.5,2.9,0.9,4.4,1.3c2.9,0.8,5.8,1.3,8.8,1.7c2.8,0.4,5.4-0.2,8.2-0.7c0.4-0.1,0.6-0.1,0.9-0.4
		c0.2-0.3,0.3-0.7,0.5-1c0.4-1,0.7-2,1-2.9c0.4-1.3,0.7-2.5,1.1-3.8c0.5-1.7,0.9-3.3,1.2-5c0.2-1.3,0.6-2.7,0.6-4.1
		c0-0.7-0.3-1.6,0.6-1.9c0.8-0.3,1.3,0.3,1.5,1c0.3,1.5,0,3-0.2,4.4c-0.4,2.8-1.1,5.5-1.9,8.2c-0.4,1.3-0.7,2.6-1.2,3.9
		c-0.4,1.3-0.9,3.2-2.4,3.7c-0.4,0.2-1,0.1-1.4,0.3c-0.4,0.2-0.1,0-0.3,0.4c-0.2,0.4-0.1,1.1-0.1,1.6c-0.1,1.5-0.1,3-0.3,4.5
		c-1,6.8-4.4,13-5,19.9c-0.5,6.3-0.4,12.9,0.2,19.2c0.7,6.4,1.6,12.9,2.5,19.3c0.1,0.9,0.3,1.9,0.4,2.8c0.1,0.7,0.1,1.9,0.4,2.4
		c0.1,0.1,0.5,0.2,0.6,0.4c0.2,0.3,0.4,0.7,0.5,1.1c0.1,0.3,0.3,1,0.6,1.2c0.3,0.2,1.2,0.2,1.5,0.2c1.9,0.2,3.7,0.2,5.6,0.4
		c3.1,0.3,6.3,0.1,9.4-0.1c3.6-0.2,7-1,10.4-2.1c3.3-1,6.6-1.9,9.8-3.1c3.5-1.3,6.7-3,9.9-4.9c2.3-1.4,4.6-3.1,6.7-4.8
		c1.3-1.1,2.8-2.1,4-3.3c0.6-0.6,1.1-1.2,1.6-1.9c0.2-0.3,0.4-0.6,0.6-1c0.1-0.2,0.2-0.4,0.3-0.6c0.3-0.5,0.2-0.2,0-0.7
		c-0.5-1.5-0.3-3.3-0.5-4.9c-0.2-1.8-0.4-3.5-0.7-5.3c-0.4-3.2-1-6.6-1.4-9.9c-0.4-3-0.9-6.1-1.2-9.1c-0.3-3.5-0.2-7.1-0.2-10.7
		c0-7.8,0.5-15.6,0.7-23.4c0.1-6.3,0-12.6-0.1-18.9c0-2.3-0.1-4.6-0.1-7c0-1.5-0.1-2.9-0.1-4.4c0-0.6-0.3-2.3,0.2-2.7
		c1-0.9,1,1.2,1.1,1.6c0.4,3.6,0.8,7.2,1,10.8c0.6-0.5,1.2-1,1.6-1.7c0.5-0.8,0.5-1.8,0.6-2.7c0.1-0.8,0.1-1.7,0.2-2.5
		c0-0.7-0.1-1.9,0.4-2.5c0.3-0.4,0.4-0.3,0.5-0.8c0.2-0.8,0.3-1.6,0.5-2.4c0.3-1.8,0.3-3.5,0.2-5.3c-0.2-6.2-0.8-14-5.7-18.4
		C102.7,68.8,99.4,67.1,96.4,66.1z M50.4,110.2c-1.1-3.1-3-5.5-5.8-7.4c-0.9-0.6-1.9-1.2-2.9-1.7c-0.5-0.3-0.9-0.5-0.9-1.2
		c0-0.7,0.6-1.2,1.3-1.2c1.2,0.1,2.8,1.5,3.8,2.1c1.3,0.9,2.5,1.9,3.5,3.1c1,1.3,1.8,2.6,2.3,4.2c0.2,0.6,0.8,1.8,0.2,2.4
		C51.4,111.1,50.6,110.9,50.4,110.2z"/>
	<path class="st7" d="M16.1,218.3c-0.8,0.7-2.4,0.9-3.4,1.4c-1,0.5-2,1-3,1.6c-0.7,0.4-1.4,0.7-2,1.2c-0.4,0.3-0.7,0.7-1.1,0.9
		c0,0-0.5,0.1-0.6,0.2c-0.2,0.2-0.2,0.8-0.3,1.1c-0.9,3.9-0.8,8-0.9,11.9c0,1.1,0,2.3-0.1,3.4c0,2,2.2,4.2,3.5,5.7
		c1.6,1.9,3.4,3.5,5.2,5.3c1.8,1.8,3.6,3.6,5.6,5.3c2,1.7,4.1,3.4,6.3,4.9c2.1,1.5,4.3,2.9,6.3,4.6c0-0.5,0.2-1.4,0-1.8
		c-0.1-0.4-0.4-0.6-0.3-1.1c0.2-0.9,1.6-1.6,2.5-1.6c0.9,0,1.6,0.6,2.3,1.1c1.1,0.7,2.2,1.3,3.2,2c1.2,0.8,3,1.7,3.5,3.2
		c0.3,0.9,0,2.2-0.2,3.2c0,0.3-0.3,1-0.2,1.3c0,0.1,1.5,1,1.7,1.1c1.8,1.2,3.6,2.3,5.6,3.2c3.8,1.7,7.6,3.1,11.5,4.4
		c1.9,0.6,3.8,1.2,5.8,1.6c0.8,0.2,1.7,0.4,2.5,0.6c1.3,0.4,2.7,0.6,3.9,1.1c-0.2-5.6,0.1-11.2,0.3-16.8c0.1-1.5-0.1-3.1,0.2-4.6
		c0.2-1.4,1.8-1.1,1.9,0.2c0.1,1.7-0.1,3.4-0.1,5.1c-0.1,4.7-0.3,9.4-0.1,14.1c0.2,4.3,0.5,8.7,0.6,13c0.3,6.2,0.2,12.5,0.8,18.8
		c1.7-0.7,3.4-1.3,5-2c0.8-0.3,1.2-0.5,1.4-1.4c0.2-1.1,0.1-2.4,0.1-3.5c0-3.9-0.1-7.8,0-11.7c0.1-4.8,0.1-9.5,0.2-14.3
		c0.1-4.5,0.3-9,0-13.6c-0.2-3.4-0.4-6.9-0.8-10.3c-1,0.7-1.9-0.2-2.6-0.9c-0.9-0.8-1.8-1.5-2.8-2.2c-1.7-1.3-3.5-2.5-5.4-3.6
		c-2-1.2-4.1-2.2-6.1-3.4c-1.6-1-3.3-2.1-4.9-3.1c-0.5,1.9-0.1,4.2-1.6,5.7c-1.3,1.3-3.6,1.3-5.2,0.4c-1.7-0.9-1.7-3.3-1.8-5
		c-0.1-1.1-0.1-2.2-0.2-3.3c0-0.4,0-1-0.2-1.4c-0.2-0.3-0.8-0.5-1.1-0.9c-0.1,0.4,0,0.7-0.1,1.1c-0.1,0.6-0.7,0.9-1.2,1.1
		c-1.2,0.5-2.6,0.4-3.8,0.2c-1.2-0.2-2.4-0.5-3.6-0.9c-1.3-0.5-2.4-1.4-3.5-2.1c-2.1-1.3-4.9-2-6.5-4c-1.8-2.2-2.1-5.6-2.2-8.3
		c-0.7,0.5-0.7,1.6-0.8,2.4c-0.1,1-0.3,2.1-0.2,3.1c0.1,1,0.7,1,1.5,1.1c0.8,0.2,1.4,1.2,0.5,1.8c-0.8,0.5-2,0.1-2.7-0.3
		c-1.1-0.7-1.2-1.6-1.1-2.8c0.1-2.3-0.1-5.3,1.9-6.9c-1.8-1.1-3.9-2-5.7-2.7c-1.4-0.6-2.8-1.2-4.2-1.9c-0.7-0.3-1.3-0.7-2-1
		C17,218.7,16.5,218.3,16.1,218.3z M23.5,234.7c-3.7-2.1-7.4-4.2-11-6.5c-0.7-0.5-1.4-0.9-2.1-1.4c-0.7-0.4-2.2-1.1-2.4-1.9
		c-0.2-0.9,0.7-1.2,1.3-1c0.5,0.2,1.1,0.7,1.5,1c1.7,1.2,3.5,2.3,5.2,3.5c1.5,1,3.1,2,4.6,2.9c1,0.6,2,1.2,3,1.8
		c0.4,0.2,1,0.5,0.9,1C24.5,234.7,23.9,234.9,23.5,234.7z M29.8,239.7c-0.3-0.2-0.5-0.4-0.8-0.5c-0.3-0.2-1.6-1-0.6-1.1
		c0.6-0.1,1.7,0.7,2.2,1c1.8,0.9,3.6,1.9,5.4,2.8c1.5,0.7,2.9,1.5,4.4,2.2c0.4,0.2,2.2,0.8,1.7,1.5c-0.5,0.8-4.7-1.9-5.4-2.2
		c-1.4-0.7-2.8-1.5-4.1-2.2C31.8,240.7,30.5,240.3,29.8,239.7z M72.1,262.4c-2.8-0.9-5.7-1.9-8.3-3.3c-1.3-0.7-2.6-1.6-3.7-2.7
		c-0.5-0.5-1.2-1.1-0.7-1.8c0.4-0.5,0.9-0.4,1.4-0.1c1,0.7,1.9,1.5,3,2.2c1.4,0.8,2.9,1.5,4.4,2.1c1.4,0.6,3,0.9,4.4,1.6
		C73.8,260.8,73.6,262.8,72.1,262.4z M76.3,260.3c-0.8-1.5,2.6-2.5,3.5-2.6c0.8-0.1,3.3-0.4,2.7,1.2c-0.3,0.6-0.8,0.6-1.4,0.6
		c-0.8,0-1.5,0.2-2.3,0.5C78.1,260.2,76.9,261.3,76.3,260.3z"/>
	<path class="st8" d="M52.1,233.9c0,0.8,0.9,3.1-0.3,3.5c1,0.4,2,1.1,2.4,2.2c0.4,1.3,0.3,2.8,0.4,4.1c0.1,0.8,0.1,1.6,0.2,2.2
		c0.1,0.5,0.1,1.4,0.5,1.8c0.7,0.8,2.6,0.9,3.3,0.1c0.8-1,0.7-2.9,0.7-4.1c0-1.5,0.1-3.6-0.5-5c-0.5-1.1-2-2-2.9-2.8
		C54.7,234.9,53.6,234.4,52.1,233.9z"/>
	<path class="st8" d="M29.7,228.4c-0.6,0.3-0.5,3.7,0.3,3.5C30.8,231.7,30.6,228.1,29.7,228.4z"/>
	<path class="st8" d="M29.5,227.8c0,1,0,2.1,0.1,3.1c0,0.7,0.7,1.4,1,0.4c0.2-0.7,0-2-0.1-2.8c0-0.4,0.1-1-0.3-1.2
		C30,227.1,29.5,227.4,29.5,227.8z"/>
	<path class="st8" d="M29.4,230.2c-0.3,0.3-0.1,1.4,0.1,1.7c0.2,0.5,0.6,0.6,0.8,0C30.3,231.6,30,229.6,29.4,230.2z M30.1,230.8
		C30.1,230.8,30.1,230.6,30.1,230.8C30.1,230.8,30.1,230.8,30.1,230.8z"/>
	<path class="st8" d="M33.7,263.3c-0.6,0.3-0.3,2.3-0.4,3c0,0.9-0.1,1.8-0.2,2.8c-0.1,1-0.2,2-0.3,3c0,0.4-0.3,1.4,0,1.8
		c0.4,0.5,1.6,0.7,2.2,0.9c1.5,0.6,2.8,1.5,4.2,2.2c0.4-1.1,0.5-2.3,0.7-3.4c0.2-1.8,0.4-3.6,0.7-5.3c0,0,0,0.1,0,0.1
		c0.2-1.1-2.2-2.1-3.1-2.6C36.3,264.9,35.1,264,33.7,263.3z"/>
	<path class="st1" d="M92.6,27.7c-3.4,1.5-6.8,2.6-10.4,3.6c-2,0.6-4,1.2-6.1,1.5c-2,0.2-4,0.3-5.9,0.4c0.3,0.9-0.4,1.6-0.9,2.2
		c-0.9,1.2-1.8,2.5-2.4,4c-0.7,1.7-1.2,3.5-1.4,5.4c-0.2,1.6-0.1,3.3-0.5,4.9c-0.4,1.4-1.5,2.8-3.2,2.6c-1.8-0.1-3.1-1.7-4-3.1
		c-0.4-0.6-0.7-1.2-1.4-0.4c-0.6,0.7-0.5,1.7-0.3,2.6c0.4,1.8,1.1,3.5,1.7,5.3c0.3,0.8,0.5,1.6,0.5,2.5c0,0.5,0,0.9,0,1.4
		c0,0.5-0.3,1.3-0.2,1.7c0.1,0.4,0.4,0.7,0.4,1.2c0,0.3,0.1,0.6,0.1,0.8c0.2,1,0.3,1.9,0.5,2.9c0.2,1,0.3,1.9,0.4,2.9
		c0,0.4,0.1,0.9,0.1,1.3c0,0.3-0.2,1.1,0,1.3c0.3,0.5,0.9,0.5,0.8,1.3c0,0.6-0.5,0.8-0.7,1.3c-0.2,0.5,0.1,0.5,0.6,1
		c0.7,0.7,1.4,1.4,2.1,2.2c1.2,1.3,2.3,2.5,3.6,3.7c1.5,1.4,3.3,2.4,5,3.5c1.8,1.1,3.7,1.9,5.8,2.1c2.2,0.2,4-0.5,5.6-1.9
		c1.6-1.3,2.6-3.2,3.1-5.2c0.2-0.9,0.4-1.9,0.6-2.9c0.1-0.8,0-1.9,0.5-2.5c-1.6,0.1-3.1,0.3-4.8,0c-1.5-0.3-3.1-0.6-4.5-1.1
		c-3.3-1-6.7-2.6-9.1-5c-1.1-1.1-2.2-2.2-2.9-3.5c-0.5-0.8-2.2-4,0.1-3.9c0.9,0.1,1.1,1,1.4,1.6c0.5,0.9,1,1.8,1.7,2.6
		c0.8,0.9,1.7,1.9,2.6,2.6c2.7,2.1,6.5,3.4,9.8,4.1c1.6,0.3,3,0.5,4.6,0.3c1.7-0.2,3.8-0.2,5.1-1.3c1.5-1.2,2.4-3.1,3.2-4.8
		c0.9-1.8,1.4-3.8,1.9-5.7c0.9-3.8,0.8-7.9,0.8-11.8c0-4.8-0.6-9.6-0.8-14.4c0-0.7,0.2-1.2,0-1.8c-0.2-0.4-0.4-0.8-0.5-1.3
		c-0.4-0.8-0.8-1.6-1.3-2.3C93.3,29.1,92.6,28.4,92.6,27.7z"/>
	<path class="st1" d="M25,137.1c0.2,0,0.5,5.8,0.5,6.4c0,2.1-0.2,4.2-0.4,6.3c-0.4,3.7-0.8,7.4-1,11.1c-0.1,2.6-0.2,5.1,0.2,7.6
		c0.3,2.3,0.9,4.5,1.4,6.7c0.9,4.2,1.8,8.4,2.7,12.6c0.9,4.2,1.9,8.4,3,12.6c1,3.7,2,7.5,2.6,11.4c0.1,0.6,0.2,1.1,0.2,1.7
		c0,0.8-0.3,0.7-0.6,1.3c-0.4,0.6-0.3,2-0.4,2.7c-0.3,2.5-0.5,5.1-0.5,7.6c0,2.4,0.1,5.1,1.2,7.3c1,2,3.5,2.5,5.3,3.6
		c1.2,0.7,2.3,1.6,3.5,2.2c1.1,0.6,2.5,0.9,3.8,1.1c1.3,0.2,2.1-0.1,3.3-0.3c1-0.1,0.5-0.1,0.4-0.9c-0.1-0.5,0.2-1.2,0.2-1.6
		c0.2-1.3-0.2-2.6,0.1-4c0.2-0.7,0.7-2.6,1.7-2.5c0.5,0.1,0.7,0.5,0.7,1c-0.1,0.6-0.4,0.6,0.2,0.9c0.9,0.4,1.9,0.6,2.7,1.1
		c-0.2-0.8-0.6-1.5-0.7-2.3c-0.2-0.9-0.4-1.7-0.7-2.6c-0.5-1.5-1.3-3-2-4.4c-0.8-1.6-1.8-3.1-2.8-4.6c-0.5-0.7-0.9-1.3-1.4-2
		c-0.5-0.7-0.9-1.5-1.4-2.1c-0.8-0.8-0.8-2-1.4-3.1c-0.6-1.2-0.8-2.6-1-3.9c-0.5-2.6-0.9-5.3-1.2-8c-0.8-6-1.5-12-1.9-18
		c-0.5-6.5-1.2-13.3,0.2-19.7c0.7-3.5,1.9-6.9,3.1-10.3c0.6-1.9,1.1-3.8,1.5-5.7c0.4-1.8,0.4-3.8,0.6-5.6c-3.9,0.7-7.6,0.1-11.5-0.7
		c-1.8-0.3-3.6-0.9-5.4-1.3c-1-0.3-2-0.6-3-0.9C26.2,137.5,25.5,137.1,25,137.1z"/>
	<path class="st1" d="M108.9,108.7c-0.2,0-1.8,1.3-1.9,1.5c-0.2,0.3,0,1.3,0,1.7c0,0.6,0,1.3,0,1.9c0,2,0.1,4,0.2,6.1
		c0.1,3.5,0.1,7-0.1,10.5c-0.2,6.7-0.4,13.4-0.6,20.1c-0.1,2.6-0.1,5.1-0.2,7.7c-0.1,4,0.5,7.9,1.1,11.9c0.6,3.8,1.2,7.5,1.7,11.3
		c0.2,1.8,0.5,3.5,0.6,5.3c0.1,1,0.2,2,0.1,3c0,0.2-0.2,0.9-0.2,1.1c0.1,0.3,0.6,0.4,0.7,0.9c0.1,0.8-0.5,1.8-0.9,2.5
		c-0.2,0.3-0.8,0.9-0.9,1.2c0,0,0.3,0.3,0.3,0.4c0.1,0.3,0.1,0.6,0.2,1c0.4,2.1,0.7,4.1,1,6.2c0.6,4.1,1,8.2,1.5,12.3
		c6.1-4.9,6.7-13.7,5.9-20.9c-0.4-3.5-1.3-7.1-2-10.6c-0.7-3.4-1.2-6.8-1.8-10.2c-0.6-3.4-1.2-6.7-1.9-10.1
		c-0.6-3.1-0.9-6.2-1.4-9.4c-0.5-3.7-0.9-7.5-1.4-11.2c-0.4-3.5-0.4-7-0.5-10.5c-0.2-4.6-0.3-9.2-0.3-13.8c0-2,0.1-4,0.1-6
		C108.5,111.4,108.4,109.7,108.9,108.7z"/>
</g>
</svg>
