<?xml version="1.0" encoding="utf-8"?>
<!-- Generator: Adobe Illustrator 19.2.1, SVG Export Plug-In . SVG Version: 6.00 Build 0)  -->
<!DOCTYPE svg PUBLIC "-//W3C//DTD SVG 1.1//EN" "http://www.w3.org/Graphics/SVG/1.1/DTD/svg11.dtd">
<svg version="1.1" id="Layer_1" xmlns="http://www.w3.org/2000/svg" xmlns:xlink="http://www.w3.org/1999/xlink" x="0px" y="0px"
	 viewBox="0 0 160 195.7" style="enable-background:new 0 0 160 195.7;" xml:space="preserve">
<style type="text/css">
	.st0{fill:#2C83C5;}
	.st1{fill:#FFFFFF;}
	.st2{fill:#5DA9CD;}
	.st3{fill:#B6DEF6;}
	.st4{fill:#0777AE;}
	.st5{fill:#E7F6FD;}
	.st6{fill:#2F76BC;}
	.st7{fill:none;}
	.st8{fill:#BDE4F9;}
	.st9{fill:#84C9E1;}
	.st10{fill:#5D9D43;}
</style>
<g>
	<path class="st0" d="M1797.6,602c-7.1,0.8-10,11.3-7.1,16.9c4.8,9.3,9.9-0.7,14.1-4.3c-0.3,0.5-0.3,0.9,0.1,1
		c2.7-1,2.3-6.2,1.7-8.2C1805.2,603.5,1801.6,601.6,1797.6,602C1790.6,602.8,1801.4,601.6,1797.6,602z"/>
	<path class="st1" d="M1853.3,568.5c-2.5,9-11.3,15.2-18.4,20.4c-8.5,6.2-17.8,12.7-28.4,14.6c3.4,6.9,8.2,15.4,4.5,23.2
		c0.8,0,6.9-2.9,6.7-1.1c9.4-8.4,18.6-17,26.5-26.9c3.6-4.5,6.9-9.2,9.4-14.4c1.2-2.5,2.7-5.6,2.4-8.5
		C1855.7,573.2,1853.3,571.1,1853.3,568.5C1850.9,577.3,1853.3,570.8,1853.3,568.5z"/>
	<path class="st1" d="M1806.1,606.3c1.8,0,0.1,7.9-0.2,8.9c-0.4,1.6-4.9,9.7-6.2,9c0.1,0.1-3.5,22.9-3.9,25.2
		c5.5-8.5,12.7-15.8,20.3-22.4c-1.7,0.8-6.3,2.5-8,1c-1.8-1.6,0.5-1.5,0.7-2.4c0.3-1,1.3-3.4,1.3-5.3
		C1810.1,618.1,1808.9,606.3,1806.1,606.3z"/>
	<path class="st1" d="M1789.5,607c-2,2.9-7.1,20.3-9.5,8.8c-0.9,7.1-1.4,14.3-1.6,21.4c2.6-4.8,7.5-8.1,10.2-12.9
		c1.5-2.6,1.2-3.6,0.2-6.4C1787.7,614.1,1787.9,610.8,1789.5,607C1787.1,610.6,1788.6,609.1,1789.5,607z"/>
	<path class="st1" d="M1794.1,577.4c-12.5,8.7-15,26.8-11.5,40.7c1.5-4.2,2.7-8.9,5.7-12.3c2.2-2.5,4.9-3.1,5.1-6.6
		c0.1-3.7-1.5-7-0.7-11C1793.2,584.9,1796.2,580.6,1794.1,577.4C1781.7,586,1796.1,580.5,1794.1,577.4z"/>
	<path class="st2" d="M1795.2,585c-1,3.7-1.5,8.1-0.9,11.9c0.6,3.9,1,3.3,4.2,3.3c-0.4-5.7-1-11.6-2.8-17
		C1795.6,583.8,1795.4,584.4,1795.2,585z"/>
	<path class="st1" d="M1823.9,466c-10.5,2.9-21.4,2.9-32.2,3.9c-9.7,1-20.2,3.1-29.6-0.4c0.4,18.1-0.6,35.7,2,53.7
		c2.2,15.6,6.6,32.1,18.6,43.1c14.1,12.9,34.3,4.5,46.4-7.2c3-2.9,5.8-6.2,7.7-9.9c1.5-2.8,1.2-6.5,2.9-9.1c3.4-5.3,1.2,4.3,0.5,6.2
		c-6.7,17.7-27,28.7-45.3,28.4c1.5,4.3,2.9,8.7,3.9,13.2c0.7,3.3,0.1,7.8,1.2,10.9c2.2,6.1,10.3,1.9,14.4,0.1
		c13.7-6,27.9-14.8,35.8-28c-3.1,0.2-5.1-20.8-5.4-23c-0.5-4.3-1.4-9-1-13.3c0.5-5.6,7.1-8.4,10-13.2c3.1-5.2,10.8-24.7,0.3-26.3
		c-9.1-1.5-10.2,21.7-18.9,15.5c-4-2.8-4.1-10.4-5.1-14.6C1827.6,485.9,1824.8,476.4,1823.9,466
		C1813.6,468.9,1824.7,475.8,1823.9,466z"/>
	<path class="st2" d="M1849.4,562.9c0.4,2.2,1.1,4.3,1.5,6.5C1851.7,568,1852.3,562.9,1849.4,562.9z"/>
	<path class="st3" d="M1901.9,639.6c-1.7-5.2-3.2-12.4-7.3-16.3c-4.7-4.5-11.2-2-15.3,2.1c-10.5,10.3-12.5,28.9-12.6,42.7
		C1880.2,661.1,1892.2,651.4,1901.9,639.6C1901.3,637.9,1892.2,651.3,1901.9,639.6z"/>
	<g>
		<path class="st3" d="M1772.1,671.4c0.8-6.8,2.6-13.3,3.3-20.1c1-9.1,1.4-18.2,2.3-27.2c1.4-14.1,0.3-30.7,9.5-42.5
			c-4.2,1.4-7.9,4.5-10.7,7.9c-1.9,2.3-6.2,6.7-6.8,9.6c-0.8,3.9,1.5,0.8,2.5,3.4c0.5,1.4-0.4,2.2-1.6,3.2c-2.7,2.2-5.5,1.1-6,5.3
			c-0.5,3.9,0.7,8.6,0.7,12.6c0.1,5.8,0,11.5,0,17.3c0,4.5,0.3,9.1,0.3,13.6c0,1.9,0.3,12-2.2,12.7c0,0,0.4-14.6,0.4-16.2
			c0-6.3-0.1-12.6-0.4-18.9c-0.3-6.3-0.9-12.7-0.4-19.1c0.5-5.9,3-6.9,8-9.4c-8.9-3.1,3-14.5,6.2-17.6c-5.9,1.7-11.4,4.5-17,7
			c-4.7,2.1-9.8,3.7-14.1,6.6c-8.2,5.8-8.7,17.2-11.3,26c-1.2,4.1-4.5,10.9-3.4,15.1c1.1,4.3,8,9.4,11.4,12.3
			C1751.7,660.7,1761.5,666.9,1772.1,671.4C1772.4,669.1,1756.4,664.7,1772.1,671.4z"/>
		<path class="st3" d="M1784,675.3c-0.2,0.2,10.7,3,12.2,3.3c-0.2-4,5.6-8.7,7.9-11.5c3.8-4.6,7.7-9.1,12.2-13
			c8.6-7.5,18.9-10.9,28.2-17.1c3-2,2.5-3,0.7-6.2c-1.6-2.9-3.9-5.6-5.1-8.7c-1-2.6-1.1-4.2,2-2.6c3.9,2,5.2,4.7,9.2,0.7
			c5.1-5.1,9.7-13.1,12.6-19.6c3.3-7.3,3-12.7-0.9-19c-0.9-1.5-3.6-6.1-5.5-4.5c-0.8,0.7-0.9,4-1.2,5c-0.7,2.5-1.9,4.7-3.1,7
			c-5.6,9.7-13.6,18.5-21.6,26.3c-9.7,9.5-20.7,17.7-29.3,28.3c-3.9,4.9-7.4,10.1-10.4,15.6c-1.6,2.9-3.3,5.8-4.6,8.7
			C1786.3,670.1,1785.9,673.7,1784,675.3C1783.9,675.4,1785.6,674,1784,675.3z"/>
		<path class="st3" d="M1842.5,622.6c2.1,3.6,8.9,10.5,5.4,14.9c-1.7,2.1-5.6,3-7.9,4c-3.5,1.6-6.8,3.4-10.1,5.3
			c-7.7,4.4-14.2,10-20.1,16.6c-4.1,4.6-7.6,11.5-12.4,15.4c12.4,2.1,25.1,2.1,37.4-0.1c6.1-1,12.1-2.6,17.9-4.6c2.7-1,5.4-2,8-3.2
			c1-0.4,3.7-1.1,4.3-2c0.6-0.9,0-3.9,0.1-5c0.3-11.1,2.1-22.6,7.8-32.4c3.8-6.5,11.3-15.8,19.8-11.5c-6.9-10.8-15.3-20.5-24.8-29.1
			c-1.1,8.5-4.9,16.7-9.7,23.7C1854.1,620.3,1849.8,627.1,1842.5,622.6C1844.4,625.9,1847.8,625.9,1842.5,622.6z"/>
	</g>
	<path class="st0" d="M1782.5,675.2c2.8-7.9,7.9-14.3,11.1-21.9c2.8-6.8,2.4-16,3.3-23.3c0.5-3.9,2-5.6-2-6.8
		c-1-0.3-3.8-1.6-4.7-1.2c-1.2,0.5-3,4.3-3.8,5.4c-2.2,3.1-4.3,6.2-6.5,9.3c-2.3,3.4-2.4,5.3-2.8,9.5c-0.4,3.9-0.8,7.9-1.4,11.8
		c-0.5,3.9-0.1,10.7-2.5,13.9C1776.2,673.1,1779.4,674.3,1782.5,675.2z"/>
	<g>
		<path class="st4" d="M1762.9,649.1C1762.9,649.1,1762.9,649,1762.9,649.1L1762.9,649.1z"/>
		<path class="st4" d="M1755.2,456.6L1755.2,456.6L1755.2,456.6z"/>
		<path class="st4" d="M1762.9,649c0-0.1,0-0.6,0-0.8c0,0.8,0,1.6,0,2.4C1762.9,650.1,1762.9,649.2,1762.9,649z"/>
		<path class="st4" d="M1782.8,671.9L1782.8,671.9C1785,666.1,1783,671.2,1782.8,671.9z"/>
		<path class="st4" d="M1866.8,645.5C1869.5,634.2,1863.3,658.9,1866.8,645.5L1866.8,645.5z"/>
		<path class="st4" d="M1787.2,616.4C1787.1,614.9,1787.5,621.6,1787.2,616.4L1787.2,616.4z"/>
		<path class="st4" d="M1732.8,643.3c-1.3-6.9,1.5-13.8,3.4-20.4c1.8-6.2,3.1-13,7-18.3c7.3-9.7,20.9-12.7,31.6-17
			c-2.6,3-12.9,13.1-5.4,16c-2.4,1.2-5.5,1.7-6.9,4.2c-1.3,2.5-0.4,5.6-0.1,8.2c0.9,8,0.7,16.1,0.6,24.1c-0.1,7.3,0.6,14.9-0.7,22
			c-0.3,1.8-0.6,7.5,2.7,4.8c1.4-1.1,1.2-5.2,1.2-6.6c0.1-12.9,0.2-26-1.1-38.9c-0.5-5.1-0.9-10.1,3.1-13.7c2.8-2.5,7.3-5,1.6-7.5
			c3.6-6.7,8.3-13.7,15.4-17.2c-7,10.3-6.8,23.7-7.7,35.6c-1,13.5-0.9,27.3-3.8,40.6c-0.5,2.2,0.2,8.9-2.1,11.8
			c3.3,1.4,3.5-0.2,4.4-3.4c0.7-2.4,0.9-4.9,1.1-7.4c0.4-5.4,0-10.9,1.2-16.3c1.2-5.6,4.6-10.2,8.2-14.5c3.4-4,5.1-4.4,10.1-4.7
			c-2.2,8.8-1.3,18.1-4.1,26.8c-2.3,7.2-7.2,13.2-9.9,20.3c-0.8,1.9-2,2.8,0.4,3.6c2.1,0.7,2.1-0.3,3-1.9c1.7-3.4,2.5-7,4.4-10.4
			c3.9-7.2,8.3-14,13.6-20.2c17.4-20.5,49-36.5,54.5-64.9c11.5,9.6,4.3,24.2-2.2,34.3c-2.9,4.5-6,10.4-12.2,8.3
			c-3.4-1.1-8-4-4.9,2.7c1.9,4.1,9.2,7.9,5.4,12.8c-2.8,3.7-9.3,5.1-13.4,7c-13.2,6.1-24.5,17.7-32.7,29.6c0,0,0.8-1.2,0.7-1.3
			c0.2,0.2-4,6.1-4.2,6.9c4.7,0.9,5.1-0.4,7.7-4.2c1.7-2.6,3.1-5.3,5.1-7.7c5-6.2,11.2-12,17.8-16.4c6.1-4,13.2-6,19.2-10
			c7-4.8,2.7-10-0.6-15.7c13.8,5.9,22.6-23,23.9-32.1c8.5,7.9,16.2,16.7,22.6,26.4c-22.7-3.1-26.9,36.2-26.9,50.8
			c2.6-1.2,2.5-1.2,3.3-3.5c0.6-1.8,0.3-4.4,0.5-6.3c0.5-4.9,1.1-9.7,2.3-14.5c1.5-6,4.1-11.7,8.2-16.5c2.9-3.3,7.4-7.2,12.2-5.9
			c6.8,1.8,9.2,12,10.8,17.7c1.7-2.1,2.5-2.5,1.9-5c-0.4-1.8-1.5-3.6-2.2-5.2c-1.8-4-3.9-8-6.3-11.7c-4.6-7.2-10.1-14-16-20.2
			c-2.5-2.5-5.3-4.8-7.6-7.5c-2.5-2.9-3.6-6.3-5.6-9.4c-4-6.2-9.5-11.3-13.2-17.8c-3.7-6.7-5.3-13.1-1-19.8
			c4.1-6.3,8.5-11.6,11.7-18.5c7.1-15.4,11.4-32.4,10.2-49.4c-1-13.9-5.6-28.3-18.6-35.1c-6.4-3.3-13.1-7-20-9.2
			c-8.3-2.7-17.4-2.8-26-2.2c-16.1,1.2-33.4,5.1-46.6,14.8c-5.6,4.2-11,9.9-10.9,17.3c0,4,1.3,7.1,4.1,9.9c2.3,2.3,4.6,4.2,4.9,7.8
			c0.3,4.1-1.1,8.5-1.1,12.6c0,4.7,0.4,9.5,0.8,14.2c0.9,10.5,2.7,20.9,5,31.1c2,8.7,5,17.2,10.4,24.4c2.7,3.6,6.1,7.1,10,9.5
			c1.9,1.1,6.8,2.1,7.6,4.4c-7.7,5.5-16.6,8.8-25.3,12.1c-7.9,2.9-16.5,5.5-22.9,11.3c-5.4,4.9-8.3,11.4-10.4,18.2
			c-1.3,4.3-2.6,8.6-3.5,12.9c-0.5,2.3-1.3,5.2-1,7.5C1729.8,640.1,1731,641.2,1732.8,643.3C1731.7,637.2,1731.7,641.9,1732.8,643.3
			z M1787.8,623.5c-1.3,4.6-6.2,7.1-8.5,11.1c0.1-4.9,0.8-9.8,1.1-14.7c2.2,5.7,6.3-6.4,7.1-8
			C1786.8,615.8,1788.8,619.8,1787.8,623.5C1786.6,627.7,1788.6,620.5,1787.8,623.5z M1796.8,646.6c0.9-6.4,3.3-12.6,3.5-19
			c0-0.4-0.3-3.3-0.2-3.6c0.4-0.7,2.3-1.5,3-2.2c1.2-1.1,6.3-7.5,2-6.4c-0.4-0.2,0.5-2.3,0.6-2.6c-3.6,2.3-7.6,12.1-12.9,8.3
			c-5.9-4.3-2.7-16,3.9-17.8c8.3-2.3,12.2,7.5,12.3,14.1c0.1,4.1-4.2,14.1,3.8,11.6C1807.1,634.4,1801.4,640.1,1796.8,646.6
			C1797.7,640.4,1801.4,640.1,1796.8,646.6z M1795.8,585.5c1.1,4.6,1.7,9.3,2.1,14C1792.8,600.1,1794.9,588.8,1795.8,585.5z
			 M1841.3,601.5c-8.4,9.3-16.7,20.3-29.2,24.3c2.4-7.4-0.8-15.4-4.6-21.8c9.6-1.9,18.5-6.5,26.2-12.3c7.3-5.5,15.7-13,19.6-21.5
			C1858.8,581.6,1848.5,593.6,1841.3,601.5C1832.9,610.9,1848.4,593.7,1841.3,601.5z M1850.5,564.8c0.4,0.6,0.5,1.3,0.5,2
			C1850.4,563.7,1850.8,565.1,1850.5,564.8C1850.9,565.3,1850.5,564.8,1850.5,564.8z M1848.4,569c0.4,6.5-7.6,12-12,15.7
			c-6,5.1-12.6,9.7-19.8,13c-4.7,2.2-12.1,6-15.4,0.3c-3.8-6.5-2.8-15.7-5.3-22.7c19.8,1.2,41.1-14.5,46.8-33.6
			C1843.9,550.9,1847.8,559.9,1848.4,569C1848.7,573.7,1848.1,564.8,1848.4,569z M1755.2,456.6c0.2-1,0.3-1.9,0.5-2.9
			C1755.5,454.6,1755.3,455.6,1755.2,456.6c1-5.9,7-9.4,11.9-11.9c6.8-3.5,13.7-6.7,21.2-8.7c15.6-4.1,35.9-6.5,51,0.1
			c12.1,5.3,23.2,10.8,27.7,24c3.9,11.5,3.5,24.3,1.6,36.1c-2.7,17.2-8.9,34.9-21.1,47.8c-0.5-3.2-1.9-6.6-0.7-9.7
			c1.5-4.1,5.9-7,8.5-10.4c3.7-5.1,5.9-11.9,6.4-18.1c0.4-5.8-1.5-12.8-8.5-13c-6.1-0.2-7.8,6.5-10.3,10.8c-2.7,4.6-6.2,6.6-8.4,0.7
			c-2.1-5.7-3.2-12.2-4.8-18.1c-1-3.6-1.7-7.2-1.9-10.9c-0.2-3.1,0.1-6.7-1.1-9.6c-1.4-3.3-3.7-3-6.8-2c-4.6,1.5-9,2.6-13.9,3
			c-10.7,0.9-23.1,3.5-33.7,1.1C1768.1,466.7,1754.2,462.5,1755.2,456.6C1755.2,456.6,1754.4,461.1,1755.2,456.6z M1790.8,571.4
			c-2.1-1-4.3-1.9-6.4-2.9c2,1,4.1,1.8,6.1,2.8c-13.7-6.4-19.6-21.8-22.8-35.6c-4.4-18.8-6.1-38.3-5.2-57.6
			c8.5,2.9,16.4,7.3,24.7,10.8c8.2,3.5,17,5.7,25.9,6.9c6.4,0.8,16.1-1.3,18.5,6.6c0.8,2.7,0.3,6,2.5,8.2c2.7,2.8,5.8,1.7,8.1-0.9
			c3.1-3.6,3.7-9.1,7.5-12.2c5-4.2,8.8,0.6,8.8,5.7c0,5.6-1.8,11.9-4.4,16.7c-3.9,7.1-11.6,9-11.5,18.2c-3.4-2.5-4.5,6.3-4.9,7.9
			c-1.9,6-6.7,10.9-11.4,14.8C1817,568.2,1802.9,575.7,1790.8,571.4C1777.7,565.4,1800.8,575,1790.8,571.4z M1793.7,578.5
			c1.1,3.4-1.4,6.4-1.8,9.6c-0.4,3.7,1.5,7.4,0.2,11c-0.9,2.6-3.3,4.4-4.9,6.6c-2.1,2.9-3.5,6.4-4.6,9.8
			C1780.1,603.1,1783,586.5,1793.7,578.5C1794.8,581.8,1790.8,580.6,1793.7,578.5z"/>
		<path class="st4" d="M1790.5,571.2c0.1,0,0.2,0.1,0.3,0.1C1790.9,571.4,1790.8,571.3,1790.5,571.2z"/>
		<path class="st4" d="M1800.2,624C1800.2,624.2,1802.5,622.7,1800.2,624L1800.2,624z"/>
		<path class="st4" d="M1850,575.5c0.2-0.3,0.5-0.6,0.7-0.9C1850.6,574.8,1849.7,575.9,1850,575.5
			C1850.1,575.4,1849.8,575.8,1850,575.5z"/>
	</g>
	<path class="st0" d="M1870.2,484.6c-0.2-13.6-1.1-28.5-11.2-38.9c-3.3-3.4-8.7-4.2-12.9-6.7c-6.3-3.8-13-5.8-20.3-6.7
		c-14.1-1.8-28.8-0.3-42.2,4.2c-9.5,3.2-23.5,7.6-28.2,17.4c-4.9,10.1,6.5,19.6,14.1,24.1c11.9,7,26.7,10.8,40.2,13.4
		c5.9,1.2,12.7,0.8,18.4,2.4c5.7,1.6,4.8,6,5.8,10.7c1.2,5.6,4.9,6.1,7.7,1.2c2.4-4.2,4.2-10.4,9.3-12.2c12.9-4.7,10,15.3,7.9,21.4
		c-2.2,6.3-6.2,11.6-11.2,16.1c-1.3,1.1-1.8,1.1-2.2,2.4c-1.2,3.5,1.2,8.3,1.6,11.8C1862.6,531.3,1870.5,504.4,1870.2,484.6
		C1870,475.3,1870.2,485,1870.2,484.6z"/>
</g>
<path class="st5" d="M98.2,47.2V5.5H19.5c-7.7,0-13.9,6.2-13.9,13.9v157.5c0,7.7,6.2,13.9,13.9,13.9H140c7.7,0,13.9-6.2,13.9-13.9
	V61.1h-41.7C104.5,61.1,98.2,54.9,98.2,47.2z"/>
<path class="st6" d="M139.9,193.3H19.5c-9.1,0-16.4-7.4-16.4-16.4V19.4C3.1,10.3,10.4,3,19.5,3h78.8c1.4,0,2.5,1.1,2.5,2.5v41.7
	c0,6.3,5.1,11.4,11.4,11.4h41.7c1.4,0,2.5,1.1,2.5,2.5v115.8C156.4,186,149,193.3,139.9,193.3z M19.5,8C13.2,8,8.1,13.1,8.1,19.4
	v157.5c0,6.3,5.1,11.4,11.4,11.4H140c6.3,0,11.4-5.1,11.4-11.4V63.6h-39.2c-9.1,0-16.4-7.4-16.4-16.4V8H19.5z"/>
<rect x="103" y="57.8" class="st7" width="50.9" height="45"/>
<rect x="33.4" y="51.8" class="st7" width="44.6" height="9.3"/>
<rect x="33.4" y="98.2" class="st7" width="92.7" height="9.3"/>
<rect x="33.4" y="75" class="st7" width="92.7" height="9.3"/>
<rect x="33.4" y="121.3" class="st7" width="92.7" height="9.3"/>
<rect x="33.4" y="144.5" class="st7" width="92.7" height="9.3"/>
<rect x="33.3" y="51.8" class="st0" width="44.8" height="9.3"/>
<rect x="33.4" y="75" class="st0" width="92.7" height="9.3"/>
<rect x="33.4" y="98.2" class="st0" width="92.7" height="9.3"/>
<path class="st8" d="M107.7,63.4c0.9,0.6,43.7,44.9,43.7,44.9l-0.1-44.8L107.7,63.4z"/>
<path class="st1" d="M98.2,5.5v41.7c0,7.7,6.2,13.9,13.9,13.9h41.7L98.2,5.5z"/>
<path class="st6" d="M155.5,59.2L100.1,3.8C99.7,3.3,99,3,98.2,3H19.5C10.4,3,3.1,10.3,3.1,19.4v157.5c0,9.1,7.4,16.4,16.4,16.4H140
	c9.1,0,16.4-7.4,16.4-16.4V61.1C156.4,60.3,156,59.6,155.5,59.2z M112.1,58.6c-6.3,0-11.4-5.1-11.4-11.4V11.5l47,47L112.1,58.6
	L112.1,58.6z M151.3,176.9c0,6.3-5.1,11.4-11.4,11.4H19.5c-6.3,0-11.4-5.1-11.4-11.4V19.4C8.1,13.1,13.2,8,19.5,8h76.3v39.2
	c0,9.1,7.4,16.4,16.4,16.4h39.2v113.3H151.3z"/>
<path class="st9" d="M126,75h-6.9c2.2,2.2,4.5,4.7,6.9,7.1V75z"/>
<path class="st0" d="M98.1,121.3H33.3v9.3h55.6C91.3,126.9,94.4,123.7,98.1,121.3z"/>
<path class="st0" d="M83.7,148c0-1.2,0.1-2.3,0.2-3.5H33.4v9.3h50.9C83.9,151.9,83.7,150,83.7,148z"/>
<g>
	<g>
		<circle class="st10" cx="118" cy="150.3" r="24.4"/>
	</g>
	<g>
		<path class="st1" d="M114.7,165.2c-0.9,0-1.7-0.3-2.4-1L102.2,154c-1.3-1.3-1.3-3.4,0-4.7c1.3-1.3,3.4-1.3,4.7,0l7.2,7.2
			l12.1-19.2c1-1.6,3-2,4.6-1.1c1.6,1,2,3,1.1,4.6l-14.3,22.8c-0.5,0.9-1.4,1.4-2.5,1.5C115,165.2,114.8,165.2,114.7,165.2z"/>
	</g>
</g>
</svg>
