<?xml version="1.0" encoding="utf-8"?>
<!-- Generator: Adobe Illustrator 19.2.1, SVG Export Plug-In . SVG Version: 6.00 Build 0)  -->
<!DOCTYPE svg PUBLIC "-//W3C//DTD SVG 1.1//EN" "http://www.w3.org/Graphics/SVG/1.1/DTD/svg11.dtd">
<svg version="1.1" id="Layer_1" xmlns="http://www.w3.org/2000/svg" xmlns:xlink="http://www.w3.org/1999/xlink" x="0px" y="0px"
	 viewBox="0 0 236.5 337" style="enable-background:new 0 0 236.5 337;" xml:space="preserve">
<style type="text/css">
	.st0{fill:#2C83C5;}
	.st1{fill:#B6DEF6;}
	.st2{fill:#FFFFFF;}
	.st3{fill:#5DA9CD;}
	.st4{fill:#0777AE;}
</style>
<g>
	<path class="st0" d="M93.9,229.1c-9.3,0-12.4,15.8-8.7,22.1c2.5,4.3,7.9,4.9,11.8,2.1c2.8-2.1,3.5-6.1,5.9-8.1
		c-0.5,1.9,1.3,2,1.8,0.8c1.6-3.6,1.2-8.4-0.1-12.1c-0.2-0.6-0.8-2.2-1.3-2.6c-1.2-1-1.3-0.1-2.4-0.4
		C98.4,230.2,96.5,228.8,93.9,229.1z"/>
	<path class="st0" d="M74.6,322.5c1.5-4.2,3-8.2,5.2-12.2c3.1-5.4,8-11.5,9.8-17.4c2-6.7,1.8-15,2.7-21.9c0.5-3.8,1.1-7.6,1.4-11.4
		c0.2-3,0.2-2.4-3.2-3.5c-1.4-0.4-3.8-1.7-5.2-1.5c-1.3,0.2-1,0.4-2,1.6c-2.6,2.8-4.6,6.5-6.8,9.7c-3.3,4.7-7.6,8.9-8.2,14.7
		c-0.7,6.5-1.3,13.1-2.2,19.6c-0.9,6.1-0.9,12.4-3.4,17.8C66.5,319.7,70.5,321.2,74.6,322.5z"/>
	<g>
		<path class="st1" d="M79.4,315.9c-0.6,1.3-1.4,4.6-2.6,6.1c-0.3,0.4-0.5,0.6-0.8,0.9c5.1,1.5,10.3,2.8,15.6,3.8c0-0.1,0-0.3,0-0.4
			c0.2-2.9,5.2-7.5,6.7-9.4c3.1-4,6.9-8.8,10.7-12.9c7-7.5,14.6-13.9,23.4-19.2c4.3-2.6,8.9-4.8,13.4-7.2c1.7-0.9,3.4-1.7,5.1-2.5
			c1.1-0.5,2.2-1,3.2-1.5c1.2-0.6,2.3-1.3,3.3-2.1c-0.2-0.5-0.5-0.9-0.7-1.4c-0.3-3.4-13-19-9.4-19.9c1.1-0.3,4.5,2.9,5,3.2
			c1.5,0.9,4.6,2.8,6.6,2.2c1.8-0.5,4.9-4.9,5.9-6.3c1.7-2.2,3.4-4.6,4.9-6.9c5.4-8,15-23.7,10.6-33.6c0,0.1,0.1,0.2,0.1,0.3
			c-1.5-3.5-3.7-6.7-6.4-9.5c-0.5-0.5-2.3-2.9-3.3-2.9c-0.1,0.1-0.8,4.1-0.9,4.5c-0.7,2.2-1.5,4.3-2.4,6.4
			c-2.1,4.5-4.6,8.7-7.6,12.6c-5,6.7-10.2,13.2-16,19.2c-11.2,11.7-23.8,21.7-35.3,33.2c-10.7,10.8-18.9,23-25.7,36.6
			C81.8,311.4,80.4,313.7,79.4,315.9z"/>
		<path class="st1" d="M161.5,256.2c-3.1,2.9-6.7,1.4-10.4-0.9c2,3.3,4.1,6.6,6,10c3,5.4,3.2,7.6-2.3,10.6
			c-9.4,5.1-19.2,9.3-28.1,15.4c-8.3,5.7-15.2,13.3-21.6,21c-3.3,4-7,8.2-9.7,12.7c-0.3,0.5-0.9,1.3-1.5,2
			c7.6,1.2,15.4,1.9,23.3,1.9c22.5,0,43.8-5.3,62.7-14.6c-0.1-14,1.3-27.8,6.7-41c3.8-9.3,15.5-28.5,28.5-21.3
			c-8.7-13.6-19.6-26.2-31.6-37.1c-1.6,12.3-7.6,23.1-14.7,33C166.5,251,164.3,253.6,161.5,256.2z"/>
		<path class="st1" d="M48.9,311.6c-0.5-1.9,1.2-6.5,1.3-8.7c0.2-4.4,0.1-8.8,0.2-13.2c0-7.4,0-14.8,0-22.2c0-8.8-0.2-17.6-0.5-26.4
			c-0.1-4.7,0.1-4.4,3.7-6.5c2.1-1.2,4.2-2.4,6.3-3.4c-4.1-2.1-6.2-2.6-3.5-7.3c3.1-5.3,7-10.9,11.4-15.1c-7.1,2-13.8,5.6-20.5,8.5
			c-7.3,3.2-17.2,6.5-22.6,12.3c-6.4,6.9-8.1,19.7-10.5,28.8c-1.4,5.5-3.1,10.9-3.8,16.5c-0.2,1.6-0.6,3.5-0.6,5.2
			C20.8,292.7,34.1,303.4,48.9,311.6z"/>
		<path class="st1" d="M58.7,224.7c-2.3,3.8-0.3,2.4,2.2,4.3c3.6,2.8-1.4,4.2-3.9,5.6c-3.2,1.8-5.2,1.8-5.1,5.4c0.1,4,0.5,8,0.6,12
			c0.3,8.7,0.1,17.5,0.1,26.2c0,6.9,0.1,13.8,0,20.6c-0.1,3.6,0.1,8-1.1,11.4c-0.2,0.7-0.6,1.6-1.1,2.1c3.4,1.8,6.9,3.5,10.5,5
			c0.2-2.8,2.1-8.6,2.4-10.4c1.2-6.8,2.1-13.6,2.9-20.5c1.6-13.3,1.2-27,3.4-40.4c1.1-6.9,0.4-14,1.7-21c1.6-8,4.1-15.6,9.2-22
			c-6.3,2.5-12.5,8.1-15.8,13C62.6,218.8,60.5,221.7,58.7,224.7z"/>
	</g>
	<path class="st0" d="M116.9,11.7c-24.2,0.2-51.6,5.9-71,21.8c-9,7.4-10.5,19.2,1.6,23.4c11.4,4,24.1,2.5,35.9,1.4
		c12.1-1.1,24.2-0.6,36-3.4c2.4-0.6,4.9-1.4,7.4-1.9c3.1-0.5,2.4-0.7,2.7,1.8s1.1,3.8,1,6.4c-0.1,2,0.1,4.1,0.3,6.1
		c1.3,9.6,4.9,18.3,7.5,27.5c1.3,4.3,1.2,13.8,5.4,15.9c4.7,2.3,7.2-6.7,8.5-9.6c2.3-5,7.4-11.5,13.5-11.1
		c9.2,0.6,9.3,11.9,8.3,18.5c-1.2,8.1-4.1,16.2-9.1,22.8c-1.1,1.5-2.5,3-3.8,4.3c-1.5,1.5-4.1,2.6-5.5,4.2c-1.3,1.5-1.2,0.8-0.9,3.6
		c0.5,3.3,1.6,9.1,2.1,13.3c10.1-9.1,15.6-23.1,20.7-35.4c4.5-10.8,7.5-22.2,8.8-33.9c1.3-11.9,1-28.6-3.5-40
		c-2-5.1-4.9-10.2-8-14.7c-1.2-1.7-2.3-3.1-3.8-4.5c-1.2-1.1-2.6-2.7-4.2-3.4c-1.8-0.7-2.9,0.3-4.5-0.1s-3.4-3.3-5.2-4.4
		c-4.4-2.6-9.7-4.1-14.5-5.6C134.4,12.5,125.3,11.7,116.9,11.7z"/>
	<path class="st2" d="M164.9,186.2c-3.4,12.2-17.4,21.5-26.9,28.6c-9.2,6.8-21.3,14-32.7,16.1c4.1,8.4,10.7,20,5.7,29.6
		c1.4,0.1,8.9-3.8,8.5-1.4c10.5-9.4,20.9-18.7,30-29.6c5.7-6.8,11.4-13.9,15.2-21.9c1.6-3.3,3.6-7.3,3.7-11
		C168.4,192.9,164.9,189.5,164.9,186.2z"/>
	<path class="st2" d="M104.7,234.5c1.6,0,0.3,10.7,0,11.5c0.9,1-3.2,6.1-4.3,7.3c-0.9,0.9-2.2,1.7-3,2.6c-1,1.2-0.5,0.6-1,1.8
		c-0.9,2.1-1.1,4.8-1.5,7c-1.2,8.2-1.9,16.6-3.3,24.8c7.1-10.7,16.2-20.2,25.9-28.5c-1.8,0.7-3.7,1.7-5.7,1.8
		c-1.6,0.1-5.4-0.3-5.4-2.2c0-2.1,2.1-0.7,2.6-1.3c1.9-2.3,1.1-7.6,0.7-10.3C109.5,247.6,106.9,234.5,104.7,234.5z"/>
	<path class="st2" d="M83.6,235.4c-2.2,3.2-4,6.8-5.2,10.5c-0.5,1.5-1.1,5.5-2.6,6.5c-3.3,2.2-3.8-3.6-4.2-5.7
		c-1.3,8.9-1.8,18.4-2,27.4c2.5-4.3,5.1-8,8.4-11.7c1.5-1.7,6.5-5.8,6.6-7.8c0.1-0.9-1.8-2.7-2.1-3.6c-0.7-1.7-0.9-3.3-0.9-5.1
		C81.4,242.2,82.2,238.6,83.6,235.4z"/>
	<path class="st2" d="M89.4,197.6c-16,11-18.8,34.5-14.7,51.9c1.6-4.6,3-9,5.5-13.2c1.3-2.2,2.7-4.3,4.6-6.1
		c0.8-0.7,3.5-2.2,3.8-2.9c0.3-0.9-1.3-6.6-1.3-8c0-2.1,0-4.4,0.2-6.5c0.3-3.1,1.1-6.2,2.2-9.1C90.4,201,90.3,200.4,89.4,197.6z"/>
	<path class="st3" d="M90.8,207.3c-0.8,2.8-3.4,23.7,3.3,19.5c3-1.9-1.5-18.2-2.6-21.8C91.3,205.7,91,206.5,90.8,207.3z"/>
	<path class="st2" d="M127.4,55.5c-7.3,2-14.9,3.9-22.6,4.1c-5.2,0.1-10.2,0.1-15.4,0.6c-12.8,1.2-28.6,4.4-41-0.3
		c0.4,16.2-1.4,33.8,0.8,50.6c1.6,12.6,3.5,25.4,6.6,37.7c2.4,9.8,5.6,19.4,12.1,27.3c3.4,4.1,7.1,8.3,11.3,11.6
		c4.8,3.8,9.4,4.5,15.3,5.1c9.4,0.9,22.1-5.1,29.9-10.5c8.8-6,17.2-14,21.3-23.9c0.7-1.7,2.3-11.4,4.5-10.1
		c2.3,1.4-3.1,13.1-3.9,14.4c-6.5,11.9-19,22.9-31.7,27.7c-4,1.5-8.1,2.8-12.3,3.8c-2.2,0.5-5.5,1.9-7.6,1.6c-1.4-0.2-2.3-1-4.2-1.2
		c3.5,9.9,5.9,19.7,6.9,30.1c0.3,2.9,0.1,2.5,2.4,3.7s3.1,1.4,5.7,0.6c2.5-0.7,4.8-1.2,7.2-2.3c17.9-7.9,38-19.6,48.4-36.9
		c-4.4,0.3-6.5-33.7-6.9-36.8c-0.7-5.6-3.4-11.7,1.5-15.3c4.8-3.5,8.2-7.7,11.1-13c3.6-6.6,5.7-14.7,5.4-22.2
		c-0.3-9.7-8.6-11.9-14.7-4.5c-3.5,4.2-6.4,19.4-14.4,15.8c-3.3-1.5-4.2-5.4-4.8-8.6c-0.8-4.2-1.8-8.2-3.1-12.2
		c-2.2-6.8-4.5-13.1-5.8-20.2C128.3,66.6,128,61.3,127.4,55.5z"/>
	<path class="st3" d="M159.9,179.2c0.6,2.8,1.4,5.5,1.9,8.3C162.8,185.7,163.5,179.2,159.9,179.2z"/>
	<g>
		<path class="st4" d="M70.6,267.4L70.6,267.4C70.6,267.4,70.6,267.3,70.6,267.4z"/>
		<path class="st4" d="M11.2,281.6c-1.6-9.5,3.1-20.8,5.5-29.7c3.4-12.5,6-22.1,18-27.9c9.9-4.7,19.9-9.2,30-13.3
			c-3.6,4.3-16.1,16.9-6.9,20.4c-6,3.1-8.9,3.6-8.8,10.5c0,9.1,0.5,18.2,0.5,27.2c0,7.8,0.1,15.7,0,23.5c0,4.7,0,9.5-0.5,14.2
			c-0.1,1.1-0.8,3-1,4.5c1.1,0.6,2.3,1.2,3.4,1.8c3.6-3.6,2.1-18,2.1-21.7c0-11.7,0.2-23.4,0-35.1c-0.1-3.7-1.8-12.4-0.7-15.8
			c1.3-3.9,3.8-3.7,7.3-6.5c4.2-3.4,3.7-4.5-1.7-6.9c4.4-8.1,11.2-17.8,19.6-21.9c-7.4,10.8-7.6,22.7-8.3,35.1
			c-0.6,10.6-2.9,21.3-3.3,32.1c-0.4,11.2-1.6,22.3-3.6,33.4c-0.4,2.2-0.6,8.4-1.9,10.3c-0.3,0.4-0.7,0.8-1,1
			c1.4,0.6,2.8,1.2,4.2,1.8c1.7-3.6,1.8-9.7,2.5-13.1c1.6-8.3,1.3-17.7,3.5-25.7c1.2-4.2,4.2-8.2,6.9-11.7c1.9-2.4,5.3-7.5,7.7-9.1
			c2.8-1.9,1.7-2.3,5.3-1c0.7,0.2,2.2,0.1,2.8,0c-2.9,11.7-1.3,25.5-5.6,36.7c-2,5.1-14.7,20-13.9,27.1c1.3,0.4,2.7,0.8,4,1.2
			c1.7-2.1,2.5-6.4,3.6-8.5c3.2-6.6,6.8-12.9,10.7-19.2c6.5-10.4,14-19.1,22.9-27.5c9.7-9.2,19.8-17.5,29.1-27.1
			c11-11.4,25.1-26.5,28.2-42.6c17.2,14.4,3.6,36.7-8,50.8c-7.1,8.7-6.2,2.4-14.4,0.9c-8.8-1.6,1.4,10.7,3.7,14.8
			c4,7,2.3,6.9-4.5,10.3c-9.2,4.6-18.5,9.4-26.7,15.5c-7.1,5.4-13.3,12.2-19,19c-2.5,3.1-12,11.7-12.3,16.7c1.5,0.3,3.1,0.6,4.6,0.8
			c1.3-1.9,2.8-4.8,3.4-5.6c3.3-4.5,6.9-8.8,10.5-13c7.6-8.7,16-16,26-21.8c3.6-2,7.3-3.9,10.9-5.9c2.7-1.4,11.4-4.4,13.1-7.1
			c3.1-4.9-3.1-12.1-5.7-16.5c15.5,6.6,29.1-31.2,30.5-40.9c10.8,10,20.8,21.4,28.8,33.6c-20.5-3-29.7,25.7-32.3,41.4
			c-1.4,7.6-2,15.4-2,23.3c1.4-0.7,2.8-1.4,4.2-2.1c0.2-11.5,1.6-23,5.1-33.9c2.9-8.8,10-24.8,21.5-25.1
			c9.4-0.2,14.4,11.7,17.4,23.3c0.9-1.1,1.9-2.3,2.8-3.5c-2.9-8-6.5-15.6-10.9-22.3c-6.8-10.4-14.1-19.6-22.6-28.6
			c-3.8-4-8.7-8.1-11.4-12.3c-2.5-3.9-3.6-8.3-6.8-11.9c-4.8-5.5-6.9-7.2-10-13.9c-2.1-4.5-5.4-5.6-7.7-9.3
			c-1.6-2.4-2.8-12.4-2.1-14.9c1-3.1,6.2-7,8.3-9.8c8.1-10.8,14.5-25.8,18.3-38.9c6.5-22.1,9.1-50.7-1.8-71.7
			c-4.1-7.9-8.7-15.6-17.3-18.8c-3.7-1.4-6.7-3.4-10.7-5.3c-5-2.4-10.8-4.4-16.3-5.6C115,5.7,86.5,9.5,64.6,19.5
			c-9.2,4.2-24.1,10.7-28.1,20.9C34.7,45.1,34.7,51,38,55.1c2,2.5,6,2.7,7.7,4.7c2.4,2.9-0.2,13.3-0.6,17.4
			c-0.6,6.6-0.5,13-0.2,19.6c0.8,14.4,3,28.6,5.6,42.7c2.4,12.8,5.7,26,13.7,36.6c3,4,6.6,7.8,10.3,11.2c1.6,1.5,12.8,6.9,13.1,7.7
			c-10.8,7.7-22.6,10.9-34.8,16.2c-9.8,4.2-25.8,8.8-31.9,18c-7.7,11.7-11.6,30.7-13.6,44.5c-0.2,1.1-0.2,2.1-0.3,3
			C8.4,278.4,9.8,280,11.2,281.6z M70.5,270.6c0.1-1.1,0.1-2.1,0.2-3.2c0,0.2-0.1,0.9,0,0c0.4-5.2,0.9-10.4,1.3-15.6
			c3.2,8.6,8.8-9.7,9-10.1c-0.3,2.4-0.6,4.8-0.1,7.2c0.3,1.5,2.4,4.4,2.2,5.7C82.2,259.4,72.9,266.3,70.5,270.6z M92.9,285.9
			c0.2-1.6,0.5-3.3,0.7-4.9c0.9-6.6,0.4-17.1,3.6-23.1c1.7-3.2,9.3-7.3,8.5-12.3c-1,0.3-1.3,0.1-2,0.4c-0.2-0.1,0.7-3.1,0.8-3.4
			c-4.6,3-5.1,10.3-11.4,11.3c-9.4,1.5-9.9-11.8-7-17.6c3.5-7,9.6-7.9,15.8-3.9c0.1-0.4,0.3-0.7,0.4-1.1c3.8,1.6,6.4,15.8,6.7,18.6
			c0.3,3,0.1,5.8-0.7,8.3c0,0.1-2.1,0.3-2.2,1.1c-0.6,3.9,3.7,5.1,7.5,4C106,270.4,98.7,277.6,92.9,285.9z M90.4,217.4
			c0.1-3.2,0.3-6.3,1.1-9.4c0.5,2.1,4.3,16.3,2.6,17.8C90,229.4,90.4,218.6,90.4,217.4z M162,184.1c-0.1-0.5-0.2-1-0.4-1.4
			C161.6,180.2,162,183,162,184.1z M165,188.4c8,16.9-12.5,37.1-23.3,48.4c-5.1,5.4-10.2,10.9-15.8,15.7c-5.1,4.4-7.6,5-13.5,6.8
			c3-9.3-1.2-19.9-5.8-27.8C126.5,227.6,156.7,207.7,165,188.4z M41,52.4C41.1,52.5,41.2,52.6,41,52.4C40.8,52.2,40.9,52.2,41,52.4
			C28.1,34.9,73.8,19.1,83.1,16.6c18-4.9,41.3-6,59.2-0.8c4.4,1.3,9.2,2.7,13.2,4.9c1.8,1,3.8,4.1,5.3,4.7c3.3,1.4,4.7-0.2,8.3,2.3
			c5.3,3.8,8.7,10.9,11.4,16.7c8.6,18,5.9,42.3,1.6,60.9c-3.9,17-12.7,37.1-24.6,49.7c-0.4-3.1-2.4-8.2-1.8-11.4
			c0.6-3.7,1.7-3.4,4.8-6c8.7-7.4,13.7-19.7,14.7-30.8c1-11.4-6.4-23.1-17.7-13.9c-3.4,2.8-8.3,18.3-12.8,17.6
			c-3.5-0.6-7.5-21.7-8.6-25c-2.7-7.8-3.8-15.5-4.6-23.6c-0.2-2.1,0.2-6.4-0.7-7.8c-2.6-3.7-6.5-1-11.2,0.1
			c-8.9,2-17.2,1.9-26.1,2.5C80.1,57.6,50.9,64.8,41,52.4z M62.4,165.3c-9.2-18-11.5-42.3-13.1-62.1c-0.7-8.9-1-17.7-0.5-26.7
			c0.2-3.6-1.4-12.4,0.4-15.4c11.8,3.3,25,1.4,37.1,0.3c13.8-1.3,26.8-1.3,40.4-4.8c0.8,7,1.2,13.9,2.8,20.8c0.9,4,2.1,7.6,3.5,11.4
			c2.2,6.4,2.7,14.5,5.6,20.5c6.8,13.8,14.2-3.2,18-9.1c2.4-3.8,7.4-9,12.1-5.6c4.5,3.4,2.6,12.1,1.7,16.6c-2.2,11.1-7.5,17.5-15,25
			c-6.1,6.1-1.9,17.8-1.1,26.2c0.5,5.8,1.3,11.5,2.5,17.2c1.2,5.6,3.3,8.6,0.7,13.2c-5.1,9.1-17.2,17.1-25.9,22.7
			c-5.9,3.8-21.1,13.9-28.6,12.7c-4.8-0.8-4.5-3.3-4.9-7.4c-1-8.9-3.1-17.5-6.2-25.9c14.3,0.9,29.2-5.6,40.6-15.1
			c5.7-4.8,22.3-21.4,19.2-31c-2.6-8.1-6.2,7.7-6.9,9.2c-7.4,17.1-27,30-45.1,32.8C82.6,193.5,69.4,179.4,62.4,165.3z M87.1,200.5
			C87.3,200.4,87.2,200.4,87.1,200.5c0.6-0.6,1.2-1.1,1.8-1.5c1.2,3.9-1.8,8.3-2.3,12.3c-0.6,4.4,1.6,11,0.5,14.7
			c-0.6,1.9-2.5,3-4.3,5c-3.8,4.2-6.3,9.9-8,15.2C71.6,230.8,75.1,211.6,87.1,200.5C87,200.7,86.8,200.8,87.1,200.5z"/>
		<path class="st4" d="M93.5,281C93.3,282.7,93.7,279.8,93.5,281L93.5,281z"/>
		<path class="st4" d="M165,188.4C164.5,189.6,165.3,189,165,188.4L165,188.4z"/>
		<path class="st4" d="M87.1,200.5L87.1,200.5L87.1,200.5z"/>
		<path class="st4" d="M41,52.4L41,52.4C41,52.4,41,52.3,41,52.4C41,52.3,41,52.3,41,52.4z"/>
	</g>
	<path class="st1" d="M226.8,277.2c-0.4-1.3-0.9-2.7-1.3-4c-2.6-7.9-6.1-21.2-16.9-20c-14,2.2-20.2,19.8-23.3,31.7
		c-2.3,9.1-3.3,18.7-3.4,28.4C199.3,304.4,214.5,292.1,226.8,277.2z"/>
</g>
</svg>
