<?xml version="1.0" encoding="utf-8"?>
<!-- Generator: Adobe Illustrator 19.2.1, SVG Export Plug-In . SVG Version: 6.00 Build 0)  -->
<!DOCTYPE svg PUBLIC "-//W3C//DTD SVG 1.1//EN" "http://www.w3.org/Graphics/SVG/1.1/DTD/svg11.dtd">
<svg version="1.1" id="Layer_1" xmlns="http://www.w3.org/2000/svg" xmlns:xlink="http://www.w3.org/1999/xlink" x="0px" y="0px"
	 viewBox="0 0 236.5 337" style="enable-background:new 0 0 236.5 337;" xml:space="preserve">
<style type="text/css">
	.st0{fill:#2C83C5;}
	.st1{fill:#FFFFFF;}
	.st2{fill:#5DA9CD;}
	.st3{fill:#B6DEF6;}
	.st4{fill:#0777AE;}
</style>
<g>
	<path class="st0" d="M1839.3,679.5c-7.1,0.8-10,11.3-7.1,16.9c4.8,9.3,9.9-0.7,14.1-4.3c-0.3,0.5-0.3,0.9,0.1,1
		c2.7-1,2.3-6.2,1.7-8.2C1846.9,681,1843.3,679.1,1839.3,679.5C1832.3,680.3,1843,679.1,1839.3,679.5z"/>
	<path class="st1" d="M1895,646c-2.5,9-11.3,15.2-18.4,20.4c-8.5,6.2-17.8,12.7-28.4,14.6c3.4,6.9,8.2,15.4,4.5,23.2
		c0.8,0,6.9-2.9,6.7-1.1c9.4-8.4,18.6-17,26.5-26.9c3.6-4.5,6.9-9.2,9.4-14.4c1.2-2.5,2.7-5.6,2.4-8.5
		C1897.3,650.7,1895,648.6,1895,646C1892.5,654.8,1895,648.3,1895,646z"/>
	<path class="st1" d="M1847.7,683.8c1.8,0,0.1,7.9-0.2,8.9c-0.4,1.6-4.9,9.7-6.2,9c0.1,0.1-3.5,22.9-3.9,25.2
		c5.5-8.5,12.7-15.8,20.3-22.4c-1.7,0.8-6.3,2.5-8,1c-1.8-1.6,0.5-1.5,0.7-2.4c0.3-1,1.3-3.4,1.3-5.3
		C1851.8,695.6,1850.6,683.8,1847.7,683.8z"/>
	<path class="st1" d="M1831.2,684.5c-2,2.9-7.1,20.3-9.5,8.8c-0.9,7.1-1.4,14.3-1.6,21.4c2.6-4.8,7.5-8.1,10.2-12.9
		c1.5-2.6,1.2-3.6,0.2-6.4C1829.4,691.6,1829.5,688.3,1831.2,684.5C1828.7,688.1,1830.3,686.6,1831.2,684.5z"/>
	<path class="st1" d="M1835.7,654.9c-12.5,8.7-15,26.8-11.5,40.7c1.5-4.2,2.7-8.9,5.7-12.3c2.2-2.5,4.9-3.1,5.1-6.6
		c0.1-3.7-1.5-7-0.7-11C1834.9,662.4,1837.8,658.1,1835.7,654.9C1823.4,663.5,1837.8,658,1835.7,654.9z"/>
	<path class="st2" d="M1836.9,662.5c-1,3.7-1.5,8.1-0.9,11.9c0.6,3.9,1,3.3,4.2,3.3c-0.4-5.7-1-11.6-2.8-17
		C1837.3,661.3,1837.1,661.9,1836.9,662.5z"/>
	<path class="st1" d="M1865.5,543.5c-10.5,2.9-21.4,2.9-32.2,3.9c-9.7,1-20.2,3.1-29.6-0.4c0.4,18.1-0.6,35.7,2,53.7
		c2.2,15.6,6.6,32.1,18.6,43.1c14.1,12.9,34.3,4.5,46.4-7.2c3-2.9,5.8-6.2,7.7-9.9c1.5-2.8,1.2-6.5,2.9-9.1c3.4-5.3,1.2,4.3,0.5,6.2
		c-6.7,17.7-27,28.7-45.3,28.4c1.5,4.3,2.9,8.7,3.9,13.2c0.7,3.3,0.1,7.8,1.2,10.9c2.2,6.1,10.3,1.9,14.4,0.1
		c13.7-6,27.9-14.8,35.8-28c-3.1,0.2-5.1-20.8-5.4-23c-0.5-4.3-1.4-9-1-13.3c0.5-5.6,7.1-8.4,10-13.2c3.1-5.2,10.8-24.7,0.3-26.3
		c-9.1-1.5-10.2,21.7-18.9,15.5c-4-2.8-4.1-10.4-5.1-14.6C1869.3,563.4,1866.5,553.9,1865.5,543.5
		C1855.3,546.4,1866.4,553.3,1865.5,543.5z"/>
	<path class="st2" d="M1891,640.4c0.4,2.2,1.1,4.3,1.5,6.5C1893.3,645.5,1893.9,640.4,1891,640.4z"/>
	<path class="st3" d="M1943.5,717.1c-1.7-5.2-3.2-12.4-7.3-16.3c-4.7-4.5-11.2-2-15.3,2.1c-10.5,10.3-12.5,28.9-12.6,42.7
		C1921.8,738.6,1933.9,728.9,1943.5,717.1C1943,715.4,1933.9,728.8,1943.5,717.1z"/>
	<g>
		<path class="st3" d="M1813.8,748.9c0.8-6.8,2.6-13.3,3.3-20.1c1-9.1,1.4-18.2,2.3-27.2c1.4-14.1,0.3-30.7,9.5-42.5
			c-4.2,1.4-7.9,4.5-10.7,7.9c-1.9,2.3-6.2,6.7-6.8,9.6c-0.8,3.9,1.5,0.8,2.5,3.4c0.5,1.4-0.4,2.2-1.6,3.2c-2.7,2.2-5.5,1.1-6,5.3
			c-0.5,3.9,0.7,8.6,0.7,12.6c0.1,5.8,0,11.5,0,17.3c0,4.5,0.3,9.1,0.3,13.6c0,1.9,0.3,12-2.2,12.7c0,0,0.4-14.6,0.4-16.2
			c0-6.3-0.1-12.6-0.4-18.9c-0.3-6.3-0.9-12.7-0.4-19.1c0.5-5.9,3-6.9,8-9.4c-8.9-3.1,3-14.5,6.2-17.6c-5.9,1.7-11.4,4.5-17,7
			c-4.7,2.1-9.8,3.7-14.1,6.6c-8.2,5.8-8.7,17.2-11.3,26c-1.2,4.1-4.5,10.9-3.4,15.1c1.1,4.3,8,9.4,11.4,12.3
			C1793.3,738.2,1803.2,744.4,1813.8,748.9C1814,746.6,1798,742.2,1813.8,748.9z"/>
		<path class="st3" d="M1825.7,752.8c-0.2,0.2,10.7,3,12.2,3.3c-0.2-4,5.6-8.7,7.9-11.5c3.8-4.6,7.7-9.1,12.2-13
			c8.6-7.5,18.9-10.9,28.2-17.1c3-2,2.5-3,0.7-6.2c-1.6-2.9-3.9-5.6-5.1-8.7c-1-2.6-1.1-4.2,2-2.6c3.9,2,5.2,4.7,9.2,0.7
			c5.1-5.1,9.7-13.1,12.6-19.6c3.3-7.3,3-12.7-0.9-19c-0.9-1.5-3.6-6.1-5.5-4.5c-0.8,0.7-0.9,4-1.2,5c-0.7,2.5-1.9,4.7-3.1,7
			c-5.6,9.7-13.6,18.5-21.6,26.3c-9.7,9.5-20.7,17.7-29.3,28.3c-3.9,4.9-7.4,10.1-10.4,15.6c-1.6,2.9-3.3,5.8-4.6,8.7
			C1828,747.6,1827.6,751.2,1825.7,752.8C1825.6,752.9,1827.3,751.5,1825.7,752.8z"/>
		<path class="st3" d="M1884.1,700.1c2.1,3.6,8.9,10.5,5.4,14.9c-1.7,2.1-5.6,3-7.9,4c-3.5,1.6-6.8,3.4-10.1,5.3
			c-7.7,4.4-14.2,10-20.1,16.6c-4.1,4.6-7.6,11.5-12.4,15.4c12.4,2.1,25.1,2.1,37.4-0.1c6.1-1,12.1-2.6,17.9-4.6c2.7-1,5.4-2,8-3.2
			c1-0.4,3.7-1.1,4.3-2c0.6-0.9,0-3.9,0.1-5c0.3-11.1,2.1-22.6,7.8-32.4c3.8-6.5,11.3-15.8,19.8-11.5c-6.9-10.8-15.3-20.5-24.8-29.1
			c-1.1,8.5-4.9,16.7-9.7,23.7C1895.8,697.8,1891.5,704.6,1884.1,700.1C1886.1,703.4,1889.5,703.4,1884.1,700.1z"/>
	</g>
	<path class="st0" d="M1824.2,752.7c2.8-7.9,7.9-14.3,11.1-21.9c2.8-6.8,2.4-16,3.3-23.3c0.5-3.9,2-5.6-2-6.8
		c-1-0.3-3.8-1.6-4.7-1.2c-1.2,0.5-3,4.3-3.8,5.4c-2.2,3.1-4.3,6.2-6.5,9.3c-2.3,3.4-2.4,5.3-2.8,9.5c-0.4,3.9-0.8,7.9-1.4,11.8
		c-0.5,3.9-0.1,10.7-2.5,13.9C1817.9,750.6,1821,751.8,1824.2,752.7z"/>
	<g>
		<path class="st4" d="M1804.6,726.6C1804.6,726.6,1804.6,726.5,1804.6,726.6C1804.6,726.6,1804.6,726.6,1804.6,726.6z"/>
		<path class="st4" d="M1796.8,534.1C1796.8,534.1,1796.8,534.1,1796.8,534.1C1796.8,534.1,1796.8,534.1,1796.8,534.1z"/>
		<path class="st4" d="M1804.6,726.5c0-0.1,0-0.6,0-0.8c0,0.8,0,1.6,0,2.4C1804.5,727.6,1804.6,726.7,1804.6,726.5z"/>
		<path class="st4" d="M1824.4,749.4C1824.5,749.4,1824.5,749.4,1824.4,749.4C1826.7,743.6,1824.7,748.7,1824.4,749.4z"/>
		<path class="st4" d="M1908.4,723C1911.2,711.7,1905,736.4,1908.4,723L1908.4,723z"/>
		<path class="st4" d="M1828.9,693.9C1828.7,692.4,1829.2,699.1,1828.9,693.9L1828.9,693.9z"/>
		<path class="st4" d="M1774.5,720.8c-1.3-6.9,1.5-13.8,3.4-20.4c1.8-6.2,3.1-13,7-18.3c7.3-9.7,20.9-12.7,31.6-17
			c-2.6,3-12.9,13.1-5.4,16c-2.4,1.2-5.5,1.7-6.9,4.2c-1.3,2.5-0.4,5.6-0.1,8.2c0.9,8,0.7,16.1,0.6,24.1c-0.1,7.3,0.6,14.9-0.7,22
			c-0.3,1.8-0.6,7.5,2.7,4.8c1.4-1.1,1.2-5.2,1.2-6.6c0.1-12.9,0.2-26-1.1-38.9c-0.5-5.1-0.9-10.1,3.1-13.7c2.8-2.5,7.3-5,1.6-7.5
			c3.6-6.7,8.3-13.7,15.4-17.2c-7,10.3-6.8,23.7-7.7,35.6c-1,13.5-0.9,27.3-3.8,40.6c-0.5,2.2,0.2,8.9-2.1,11.8
			c3.3,1.4,3.5-0.2,4.4-3.4c0.7-2.4,0.9-4.9,1.1-7.4c0.4-5.4,0-10.9,1.2-16.3c1.2-5.6,4.6-10.2,8.2-14.5c3.4-4,5.1-4.4,10.1-4.7
			c-2.2,8.8-1.3,18.1-4.1,26.8c-2.3,7.2-7.2,13.2-9.9,20.3c-0.8,1.9-2,2.8,0.4,3.6c2.1,0.7,2.1-0.3,3-1.9c1.7-3.4,2.5-7,4.4-10.4
			c3.9-7.2,8.3-14,13.6-20.2c17.4-20.5,49-36.5,54.5-64.9c11.5,9.6,4.3,24.2-2.2,34.3c-2.9,4.5-6,10.4-12.2,8.3
			c-3.4-1.1-8-4-4.9,2.7c1.9,4.1,9.2,7.9,5.4,12.8c-2.8,3.7-9.3,5.1-13.4,7c-13.2,6.1-24.5,17.7-32.7,29.6c0,0,0.8-1.2,0.7-1.3
			c0.2,0.2-4,6.1-4.2,6.9c4.7,0.9,5.1-0.4,7.7-4.2c1.7-2.6,3.1-5.3,5.1-7.7c5-6.2,11.2-12,17.8-16.4c6.1-4,13.2-6,19.2-10
			c7-4.8,2.7-10-0.6-15.7c13.8,5.9,22.6-23,23.9-32.1c8.5,7.9,16.2,16.7,22.6,26.4c-22.7-3.1-26.9,36.2-26.9,50.8
			c2.6-1.2,2.5-1.2,3.3-3.5c0.6-1.8,0.3-4.4,0.5-6.3c0.5-4.9,1.1-9.7,2.3-14.5c1.5-6,4.1-11.7,8.2-16.5c2.9-3.3,7.4-7.2,12.2-5.9
			c6.8,1.8,9.2,12,10.8,17.7c1.7-2.1,2.5-2.5,1.9-5c-0.4-1.8-1.5-3.6-2.2-5.2c-1.8-4-3.9-8-6.3-11.7c-4.6-7.2-10.1-14-16-20.2
			c-2.5-2.5-5.3-4.8-7.6-7.5c-2.5-2.9-3.6-6.3-5.6-9.4c-4-6.2-9.5-11.3-13.2-17.8c-3.7-6.7-5.3-13.1-1-19.8
			c4.1-6.3,8.5-11.6,11.7-18.5c7.1-15.4,11.4-32.4,10.2-49.4c-1-13.9-5.6-28.3-18.6-35.1c-6.4-3.3-13.1-7-20-9.2
			c-8.3-2.7-17.4-2.8-26-2.2c-16.1,1.2-33.4,5.1-46.6,14.8c-5.6,4.2-11,9.9-10.9,17.3c0,4,1.3,7.1,4.1,9.9c2.3,2.3,4.6,4.2,4.9,7.8
			c0.3,4.1-1.1,8.5-1.1,12.6c0,4.7,0.4,9.5,0.8,14.2c0.9,10.5,2.7,20.9,5,31.1c2,8.7,5,17.2,10.4,24.4c2.7,3.6,6.1,7.1,10,9.5
			c1.9,1.1,6.8,2.1,7.6,4.4c-7.7,5.5-16.6,8.8-25.3,12.1c-7.9,2.9-16.5,5.5-22.9,11.3c-5.4,4.9-8.3,11.4-10.4,18.2
			c-1.3,4.3-2.6,8.6-3.5,12.9c-0.5,2.3-1.3,5.2-1,7.5C1771.4,717.6,1772.6,718.7,1774.5,720.8
			C1773.4,714.7,1773.3,719.4,1774.5,720.8z M1829.4,701c-1.3,4.6-6.2,7.1-8.5,11.1c0.1-4.9,0.8-9.8,1.1-14.7c2.2,5.7,6.3-6.4,7.1-8
			C1828.4,693.3,1830.5,697.3,1829.4,701C1828.3,705.2,1830.3,698,1829.4,701z M1838.5,724.1c0.9-6.4,3.3-12.6,3.5-19
			c0-0.4-0.3-3.3-0.2-3.6c0.4-0.7,2.3-1.5,3-2.2c1.2-1.1,6.3-7.5,2-6.4c-0.4-0.2,0.5-2.3,0.6-2.6c-3.6,2.3-7.6,12.1-12.9,8.3
			c-5.9-4.3-2.7-16,3.9-17.8c8.3-2.3,12.2,7.5,12.3,14.1c0.1,4.1-4.2,14.1,3.8,11.6C1848.8,711.9,1843.1,717.6,1838.5,724.1
			C1839.4,717.9,1843.1,717.6,1838.5,724.1z M1837.4,663c1.1,4.6,1.7,9.3,2.1,14C1834.5,677.6,1836.5,666.3,1837.4,663z M1883,679
			c-8.4,9.3-16.7,20.3-29.2,24.3c2.4-7.4-0.8-15.4-4.6-21.8c9.6-1.9,18.5-6.5,26.2-12.3c7.3-5.5,15.7-13,19.6-21.5
			C1900.5,659.1,1890.2,671.1,1883,679C1874.6,688.4,1890,671.2,1883,679z M1892.1,642.3c0.4,0.6,0.5,1.3,0.5,2
			C1892.1,641.2,1892.5,642.6,1892.1,642.3C1892.5,642.8,1892.1,642.3,1892.1,642.3z M1890.1,646.5c0.4,6.5-7.6,12-12,15.7
			c-6,5.1-12.6,9.7-19.8,13c-4.7,2.2-12.1,6-15.4,0.3c-3.8-6.5-2.8-15.7-5.3-22.7c19.8,1.2,41.1-14.5,46.8-33.6
			C1885.5,628.4,1889.5,637.4,1890.1,646.5C1890.4,651.2,1889.8,642.3,1890.1,646.5z M1796.8,534.1c0.2-1,0.3-1.9,0.5-2.9
			C1797.1,532.1,1797,533.1,1796.8,534.1c1-5.9,7-9.4,11.9-11.9c6.8-3.5,13.7-6.7,21.2-8.7c15.6-4.1,35.9-6.5,51,0.1
			c12.1,5.3,23.2,10.8,27.7,24c3.9,11.5,3.5,24.3,1.6,36.1c-2.7,17.2-8.9,34.9-21.1,47.8c-0.5-3.2-1.9-6.6-0.7-9.7
			c1.5-4.1,5.9-7,8.5-10.4c3.7-5.1,5.9-11.9,6.4-18.1c0.4-5.8-1.5-12.8-8.5-13c-6.1-0.2-7.8,6.5-10.3,10.8c-2.7,4.6-6.2,6.6-8.4,0.7
			c-2.1-5.7-3.2-12.2-4.8-18.1c-1-3.6-1.7-7.2-1.9-10.9c-0.2-3.1,0.1-6.7-1.1-9.6c-1.4-3.3-3.7-3-6.8-2c-4.6,1.5-9,2.6-13.9,3
			c-10.7,0.9-23.1,3.5-33.7,1.1C1809.8,544.2,1795.9,540,1796.8,534.1C1796.8,534.1,1796.1,538.6,1796.8,534.1z M1832.5,648.9
			c-2.1-1-4.3-1.9-6.4-2.9c2,1,4.1,1.8,6.1,2.8c-13.7-6.4-19.6-21.8-22.8-35.6c-4.4-18.8-6.1-38.3-5.2-57.6
			c8.5,2.9,16.4,7.3,24.7,10.8c8.2,3.5,17,5.7,25.9,6.9c6.4,0.8,16.1-1.3,18.5,6.6c0.8,2.7,0.3,6,2.5,8.2c2.7,2.8,5.8,1.7,8.1-0.9
			c3.1-3.6,3.7-9.1,7.5-12.2c5-4.2,8.8,0.6,8.8,5.7c0,5.6-1.8,11.9-4.4,16.7c-3.9,7.1-11.6,9-11.5,18.2c-3.4-2.5-4.5,6.3-4.9,7.9
			c-1.9,6-6.7,10.9-11.4,14.8C1858.7,645.7,1844.5,653.2,1832.5,648.9C1819.4,642.9,1842.4,652.5,1832.5,648.9z M1835.4,656
			c1.1,3.4-1.4,6.4-1.8,9.6c-0.4,3.7,1.5,7.4,0.2,11c-0.9,2.6-3.3,4.4-4.9,6.6c-2.1,2.9-3.5,6.4-4.6,9.8
			C1821.7,680.6,1824.7,664,1835.4,656C1836.5,659.3,1832.5,658.1,1835.4,656z"/>
		<path class="st4" d="M1832.2,648.7c0.1,0,0.2,0.1,0.3,0.1C1832.6,648.9,1832.4,648.8,1832.2,648.7z"/>
		<path class="st4" d="M1841.8,701.5C1841.9,701.7,1844.2,700.2,1841.8,701.5L1841.8,701.5z"/>
		<path class="st4" d="M1891.7,653c0.2-0.3,0.5-0.6,0.7-0.9C1892.2,652.3,1891.4,653.4,1891.7,653
			C1891.8,652.9,1891.5,653.3,1891.7,653z"/>
	</g>
	<path class="st0" d="M1911.8,562.1c-0.2-13.6-1.1-28.5-11.2-38.9c-3.3-3.4-8.7-4.2-12.9-6.7c-6.3-3.8-13-5.8-20.3-6.7
		c-14.1-1.8-28.8-0.3-42.2,4.2c-9.5,3.2-23.5,7.6-28.2,17.4c-4.9,10.1,6.5,19.6,14.1,24.1c11.9,7,26.7,10.8,40.2,13.4
		c5.9,1.2,12.7,0.8,18.4,2.4c5.7,1.6,4.8,6,5.8,10.7c1.2,5.6,4.9,6.1,7.7,1.2c2.4-4.2,4.2-10.4,9.3-12.2c12.9-4.7,10,15.3,7.9,21.4
		c-2.2,6.3-6.2,11.6-11.2,16.1c-1.3,1.1-1.8,1.1-2.2,2.4c-1.2,3.5,1.2,8.3,1.6,11.8C1904.3,608.8,1912.2,581.9,1911.8,562.1
		C1911.7,552.8,1911.8,562.5,1911.8,562.1z"/>
</g>
<g>
	<path class="st0" d="M94.1,233.2c-9.2,1-12.9,14.5-9.1,21.7c6.2,12,12.8-0.9,18.1-5.5c-0.4,0.7-0.4,1.1,0.2,1.3
		c3.5-1.3,3-8,2.2-10.6C103.9,235.1,99.3,232.6,94.1,233.2C85.1,234.2,99,232.7,94.1,233.2z"/>
	<path class="st1" d="M165.8,190c-3.2,11.5-14.5,19.6-23.6,26.3c-10.9,8-22.9,16.3-36.5,18.8c4.4,8.9,10.5,19.8,5.8,29.8
		c1,0.1,8.9-3.7,8.6-1.4c12.1-10.8,23.9-21.9,34.1-34.6c4.6-5.8,8.9-11.8,12-18.5c1.5-3.3,3.5-7.2,3.1-10.9
		C168.8,196.1,165.8,193.4,165.8,190C162.6,201.3,165.8,192.9,165.8,190z"/>
	<path class="st1" d="M105,238.7c2.4,0,0.1,10.2-0.2,11.4c-0.6,2.1-6.3,12.5-8,11.6c0.1,0.1-4.6,29.5-5.1,32.5
		c7.1-10.9,16.3-20.3,26.2-28.8c-2.2,1-8.1,3.3-10.2,1.3c-2.3-2.1,0.6-1.9,0.9-3c0.4-1.2,1.7-4.4,1.7-6.8
		C110.2,253.9,108.7,238.7,105,238.7z"/>
	<path class="st1" d="M83.7,239.5c-2.5,3.7-9.2,26.1-12.2,11.4c-1.2,9.2-1.8,18.4-2,27.6c3.3-6.2,9.7-10.4,13.2-16.6
		c1.9-3.4,1.5-4.7,0.3-8.3C81.3,248.7,81.6,244.5,83.7,239.5C80.5,244.2,82.5,242.3,83.7,239.5z"/>
	<path class="st1" d="M89.6,201.4c-16,11.2-19.3,34.5-14.8,52.4c1.9-5.4,3.5-11.5,7.3-15.8c2.8-3.2,6.4-4,6.5-8.4
		c0.2-4.8-1.9-9-0.9-14.2C88.4,211.1,92.3,205.6,89.6,201.4C73.7,212.6,92.2,205.5,89.6,201.4z"/>
	<path class="st2" d="M91,211.2c-1.3,4.8-1.9,10.4-1.1,15.4c0.8,5.1,1.3,4.2,5.4,4.2c-0.5-7.3-1.3-14.9-3.6-21.9
		C91.5,209.6,91.3,210.4,91,211.2z"/>
	<path class="st1" d="M127.9,58.1c-13.5,3.8-27.6,3.7-41.5,5.1c-12.5,1.2-26,4-38.1-0.6c0.5,23.2-0.8,46,2.6,69.1
		c2.9,20.1,8.5,41.3,23.9,55.5c18.1,16.6,44.2,5.8,59.8-9.3c3.8-3.7,7.4-8,9.9-12.7c1.9-3.6,1.6-8.4,3.7-11.7
		c4.4-6.8,1.6,5.6,0.7,7.9c-8.6,22.8-34.8,36.9-58.3,36.5c2,5.6,3.8,11.2,5,17c0.9,4.3,0.1,10,1.6,14.1c2.8,7.8,13.3,2.4,18.5,0.2
		c17.7-7.8,35.9-19.1,46.1-36c-3.9,0.2-6.6-26.8-7-29.6c-0.7-5.5-1.8-11.6-1.3-17.1c0.7-7.2,9.2-10.8,12.9-17
		c4-6.7,13.8-31.7,0.4-33.9c-11.8-1.9-13.2,27.9-24.3,20c-5.1-3.6-5.2-13.4-6.6-18.8C132.7,83.7,129.1,71.5,127.9,58.1
		C114.7,61.8,129,70.7,127.9,58.1z"/>
	<path class="st2" d="M160.7,182.8c0.6,2.8,1.4,5.6,2,8.4C163.7,189.4,164.4,182.8,160.7,182.8z"/>
	<path class="st3" d="M228.3,281.5c-2.2-6.6-4.2-16-9.5-21c-6.1-5.8-14.4-2.5-19.7,2.7c-13.5,13.3-16,37.2-16.2,55
		C200.4,309.2,215.9,296.7,228.3,281.5C227.6,279.3,215.9,296.6,228.3,281.5z"/>
	<g>
		<path class="st3" d="M61.2,322.5c1.1-8.7,3.3-17.2,4.3-25.9c1.3-11.7,1.8-23.4,2.9-35c1.8-18.2,0.4-39.5,12.2-54.7
			c-5.3,1.8-10.1,5.8-13.7,10.1c-2.5,3-8,8.6-8.8,12.4c-1.1,5,2,1,3.2,4.3c0.6,1.8-0.6,2.9-2,4.1c-3.5,2.9-7,1.4-7.8,6.9
			c-0.7,5,0.9,11,1,16.2c0.1,7.4,0,14.9,0,22.3c0,5.8,0.4,11.7,0.4,17.5c0,2.4,0.4,15.5-2.8,16.3c0,0,0.5-18.8,0.5-20.8
			c0-8.1-0.1-16.2-0.5-24.3c-0.4-8.1-1.1-16.4-0.5-24.5c0.6-7.7,3.9-8.9,10.3-12.1c-11.5-4,3.9-18.7,8-22.6
			c-7.6,2.2-14.7,5.8-21.9,9.1c-6,2.7-12.7,4.7-18.1,8.5c-10.5,7.4-11.2,22.1-14.5,33.5c-1.5,5.2-5.7,14-4.4,19.5
			c1.4,5.6,10.4,12,14.7,15.8C35,308.7,47.6,316.7,61.2,322.5C61.6,319.5,41,313.8,61.2,322.5z"/>
		<path class="st3" d="M76.6,327.5c-0.3,0.2,13.7,3.9,15.7,4.2c-0.3-5.1,7.2-11.2,10.2-14.8c4.9-5.9,9.9-11.7,15.7-16.7
			c11-9.6,24.4-14,36.3-22c3.8-2.6,3.2-3.9,0.9-7.9c-2.1-3.7-5-7.2-6.6-11.2c-1.4-3.4-1.4-5.4,2.6-3.3c5,2.6,6.7,6,11.8,0.9
			c6.6-6.6,12.5-16.8,16.2-25.3c4.2-9.4,3.9-16.4-1.1-24.5c-1.2-1.9-4.7-7.8-7.1-5.8c-1.1,0.9-1.2,5.1-1.6,6.4c-0.9,3.2-2.4,6.1-4,9
			c-7.2,12.5-17.5,23.8-27.8,33.8c-12.5,12.2-26.6,22.8-37.7,36.5c-5.1,6.3-9.5,13-13.4,20c-2.1,3.7-4.2,7.4-6,11.3
			C79.6,320.8,79,325.5,76.6,327.5C76.4,327.6,78.7,325.7,76.6,327.5z"/>
		<path class="st3" d="M151.8,259.6c2.8,4.7,11.4,13.5,6.9,19.1c-2.2,2.8-7.2,3.8-10.2,5.2c-4.5,2-8.8,4.4-13.1,6.8
			c-9.9,5.6-18.3,12.9-25.8,21.4c-5.3,6-9.8,14.8-16,19.8c15.9,2.7,32.3,2.6,48.2-0.1c7.8-1.3,15.5-3.3,23-6
			c3.5-1.2,6.9-2.6,10.3-4.1c1.2-0.5,4.8-1.4,5.6-2.6c0.8-1.2,0-5.1,0.1-6.4c0.4-14.3,2.8-29.1,10-41.7c4.8-8.4,14.5-20.3,25.5-14.8
			c-8.9-13.8-19.7-26.4-31.9-37.5c-1.4,11-6.2,21.5-12.5,30.5C166.8,256.7,161.3,265.5,151.8,259.6
			C154.3,263.8,158.7,263.9,151.8,259.6z"/>
	</g>
	<path class="st0" d="M74.7,327.4c3.6-10.2,10.2-18.4,14.3-28.2c3.6-8.7,3.1-20.6,4.3-30c0.6-5,2.5-7.2-2.6-8.7
		c-1.3-0.4-5-2.1-6.1-1.6c-1.6,0.6-3.9,5.6-4.9,6.9c-2.8,4-5.6,8-8.4,12c-3,4.3-3.1,6.8-3.7,12.2c-0.6,5-1.1,10.1-1.8,15.1
		c-0.7,5-0.2,13.8-3.3,17.9C66.6,324.7,70.6,326.1,74.7,327.4z"/>
	<g>
		<path class="st4" d="M49.4,293.7C49.4,293.7,49.4,293.7,49.4,293.7C49.4,293.7,49.4,293.7,49.4,293.7z"/>
		<path class="st4" d="M39.5,45.9C39.5,45.9,39.5,45.9,39.5,45.9C39.5,45.9,39.5,45.9,39.5,45.9z"/>
		<path class="st4" d="M49.4,293.6c0-0.1,0-0.8,0-1.1c0,1,0,2.1,0,3.1C49.4,295,49.4,293.9,49.4,293.6z"/>
		<path class="st4" d="M75,323.1C75,323.1,75,323.1,75,323.1C77.9,315.6,75.3,322.2,75,323.1z"/>
		<path class="st4" d="M183.1,289.1C186.7,274.6,178.6,306.4,183.1,289.1L183.1,289.1z"/>
		<path class="st4" d="M80.7,251.6C80.5,249.8,81.1,258.4,80.7,251.6L80.7,251.6z"/>
		<path class="st4" d="M10.7,286.2c-1.7-8.9,1.9-17.8,4.3-26.2c2.3-8,3.9-16.7,9-23.5c9.3-12.5,26.9-16.4,40.6-21.8
			c-3.3,3.9-16.6,16.9-6.9,20.6c-3,1.6-7.1,2.2-8.9,5.5c-1.7,3.2-0.5,7.2-0.1,10.6c1.2,10.3,0.9,20.7,0.7,31
			c-0.1,9.4,0.7,19.1-0.9,28.4c-0.4,2.3-0.8,9.6,3.5,6.1c1.8-1.5,1.5-6.6,1.5-8.5c0.2-16.7,0.3-33.5-1.4-50.1
			c-0.6-6.5-1.2-13,4-17.6c3.7-3.3,9.4-6.4,2-9.6c4.6-8.6,10.7-17.6,19.8-22.1c-9,13.3-8.7,30.5-9.9,45.9
			c-1.3,17.4-1.1,35.2-4.9,52.2c-0.6,2.9,0.2,11.4-2.7,15.2c4.2,1.8,4.5-0.2,5.7-4.4c0.9-3.1,1.2-6.4,1.4-9.6c0.5-7,0-14.1,1.6-21
			c1.6-7.2,5.9-13.2,10.6-18.7c4.4-5.1,6.6-5.6,13-6.1c-2.8,11.3-1.6,23.3-5.2,34.5c-3,9.3-9.2,17.1-12.8,26.1
			c-1,2.5-2.6,3.6,0.5,4.6c2.7,0.9,2.8-0.3,3.8-2.5c2.2-4.4,3.3-9,5.6-13.4c5-9.2,10.7-18.1,17.5-26.1c22.4-26.4,63.1-47,70.2-83.5
			c14.8,12.4,5.5,31.1-2.9,44.2c-3.7,5.7-7.7,13.4-15.7,10.7c-4.3-1.4-10.4-5.1-6.3,3.5c2.5,5.2,11.8,10.2,7,16.5
			c-3.6,4.7-12,6.6-17.2,9c-17,7.9-31.6,22.7-42.1,38c0-0.1,1-1.5,0.9-1.6c0.2,0.2-5.2,7.9-5.5,8.9c6,1.1,6.6-0.5,9.9-5.4
			c2.2-3.3,4-6.8,6.5-9.9c6.4-8,14.4-15.4,23-21.1c7.8-5.2,17.1-7.7,24.8-12.9c9-6.2,3.5-12.8-0.8-20.2
			c17.7,7.6,29.1-29.6,30.8-41.3c10.9,10.1,20.9,21.4,29.1,33.9c-29.3-4-34.7,46.7-34.7,65.3c3.3-1.6,3.2-1.5,4.2-4.5
			c0.8-2.3,0.4-5.6,0.6-8.1c0.6-6.3,1.4-12.5,3-18.6c2-7.7,5.3-15.1,10.6-21.2c3.7-4.3,9.5-9.2,15.7-7.6
			c8.8,2.3,11.8,15.4,13.9,22.7c2.2-2.6,3.2-3.2,2.5-6.4c-0.5-2.3-1.9-4.6-2.8-6.7c-2.4-5.2-5.1-10.2-8.1-15.1
			c-5.9-9.3-12.9-18.1-20.7-25.9c-3.2-3.2-6.8-6.1-9.7-9.6c-3.2-3.7-4.6-8.1-7.2-12.2c-5.2-8-12.3-14.5-17-22.9
			c-4.8-8.6-6.8-16.9-1.3-25.5c5.2-8.1,10.9-14.9,15-23.8c9.2-19.8,14.7-41.7,13.2-63.6c-1.2-17.9-7.2-36.5-23.9-45.2
			c-8.3-4.3-16.9-9-25.7-11.8c-10.7-3.4-22.4-3.6-33.5-2.8c-20.7,1.5-43,6.6-60,19.1c-7.3,5.4-14.1,12.7-14,22.3
			c0,5.1,1.7,9.1,5.3,12.7c3,3,6,5.4,6.3,10c0.4,5.3-1.4,10.9-1.5,16.2c0,6.1,0.5,12.2,1,18.2c1.2,13.5,3.4,26.9,6.4,40
			c2.6,11.2,6.4,22.1,13.4,31.4c3.5,4.7,7.8,9.2,12.8,12.2c2.4,1.5,8.8,2.7,9.7,5.6c-9.9,7.1-21.3,11.3-32.6,15.5
			c-10.2,3.8-21.2,7.1-29.4,14.6c-6.9,6.3-10.7,14.7-13.4,23.4c-1.7,5.5-3.4,11-4.5,16.7c-0.6,2.9-1.7,6.6-1.3,9.6
			C6.8,282.2,8.3,283.5,10.7,286.2C9.3,278.4,9.2,284.5,10.7,286.2z M81.5,260.8c-1.6,6-8,9.1-11,14.2c0.2-6.3,1.1-12.6,1.5-19
			c2.8,7.3,8.1-8.2,9.1-10.2C80.1,250.9,82.8,256,81.5,260.8C80,266.2,82.5,257,81.5,260.8z M93.1,290.5c1.2-8.2,4.2-16.2,4.5-24.5
			c0-0.5-0.4-4.2-0.2-4.6c0.5-0.9,3-2,3.9-2.8c1.5-1.4,8-9.6,2.6-8.2c-0.5-0.3,0.6-3,0.8-3.4c-4.7,3-9.8,15.6-16.6,10.6
			c-7.6-5.5-3.4-20.6,5-22.9c10.7-2.9,15.7,9.7,15.9,18.2c0.1,5.2-5.5,18.2,4.9,15C106.4,274.8,99,282.1,93.1,290.5
			C94.2,282.6,99,282.1,93.1,290.5z M91.7,211.9c1.4,5.9,2.2,12,2.7,18C87.9,230.6,90.6,216.2,91.7,211.9z M150.4,232.5
			c-10.8,12-21.5,26.2-37.6,31.2c3.1-9.6-1.1-19.9-5.9-28.1c12.3-2.4,23.8-8.4,33.7-15.9c9.5-7.1,20.2-16.7,25.2-27.7
			C172.9,206.9,159.6,222.3,150.4,232.5C139.6,244.5,159.4,222.5,150.4,232.5z M162.2,185.2c0.5,0.7,0.6,1.7,0.6,2.6
			C162.1,183.8,162.6,185.7,162.2,185.2C162.6,185.9,162.2,185.2,162.2,185.2z M159.5,190.7c0.5,8.3-9.8,15.4-15.4,20.2
			c-7.8,6.6-16.2,12.5-25.5,16.7c-6,2.8-15.5,7.8-19.9,0.4c-4.9-8.3-3.5-20.2-6.8-29.2c25.5,1.5,52.9-18.7,60.3-43.2
			C153.6,167.3,158.8,178.9,159.5,190.7C159.9,196.7,159.2,185.2,159.5,190.7z M39.5,45.9c0.2-1.2,0.4-2.5,0.6-3.7
			C39.9,43.5,39.7,44.7,39.5,45.9c1.2-7.6,9-12.1,15.3-15.3C63.5,26.1,72.4,22,82,19.5c20-5.3,46.2-8.3,65.7,0.2
			c15.6,6.8,29.9,13.8,35.7,30.9c5,14.8,4.5,31.2,2.1,46.5c-3.5,22.2-11.5,44.9-27.1,61.5c-0.6-4.1-2.4-8.4-0.9-12.5
			c1.9-5.2,7.6-9,10.9-13.4c4.8-6.5,7.6-15.3,8.2-23.4c0.6-7.4-1.9-16.5-10.9-16.8c-7.8-0.3-10.1,8.4-13.3,13.9
			c-3.4,5.9-8,8.4-10.8,0.8c-2.6-7.3-4.1-15.7-6.2-23.2c-1.3-4.6-2.2-9.2-2.5-14c-0.2-3.9,0.1-8.7-1.4-12.4
			c-1.8-4.3-4.7-3.9-8.7-2.6c-5.9,1.9-11.6,3.4-17.9,3.9c-13.7,1.1-29.8,4.6-43.3,1.4C56.1,59,38.2,53.5,39.5,45.9
			C39.5,45.9,38.5,51.8,39.5,45.9z M85.4,193.7c-2.7-1.2-5.5-2.4-8.2-3.8c2.5,1.3,5.2,2.3,7.8,3.6c-17.6-8.3-25.3-28.1-29.4-45.9
			c-5.7-24.2-7.9-49.3-6.7-74.1c11,3.7,21.1,9.4,31.7,13.9c10.6,4.5,21.8,7.4,33.3,8.9c8.3,1.1,20.7-1.6,23.8,8.5
			c1.1,3.5,0.4,7.7,3.2,10.5c3.5,3.5,7.5,2.2,10.4-1.2c4-4.6,4.8-11.7,9.6-15.7c6.5-5.4,11.3,0.8,11.3,7.3c0,7.1-2.3,15.4-5.7,21.6
			c-5,9.1-14.9,11.6-14.7,23.4c-4.4-3.2-5.7,8.1-6.4,10.1c-2.4,7.7-8.7,14-14.7,19C119,189.6,100.9,199.3,85.4,193.7
			C68.5,186,98.2,198.3,85.4,193.7z M89.1,202.8c1.4,4.3-1.9,8.2-2.3,12.4c-0.5,4.7,1.9,9.5,0.3,14.2c-1.2,3.4-4.3,5.7-6.3,8.5
			c-2.7,3.8-4.5,8.2-5.9,12.6C71.5,234.5,75.3,213.2,89.1,202.8C90.5,207.1,85.4,205.6,89.1,202.8z"/>
		<path class="st4" d="M85,193.5c0.1,0.1,0.2,0.1,0.4,0.2C85.5,193.7,85.3,193.6,85,193.5z"/>
		<path class="st4" d="M97.4,261.4C97.4,261.7,100.4,259.8,97.4,261.4L97.4,261.4z"/>
		<path class="st4" d="M161.6,199c0.3-0.4,0.6-0.8,0.9-1.2C162.3,198.1,161.2,199.5,161.6,199C161.7,198.9,161.3,199.4,161.6,199z"
			/>
	</g>
	<path class="st0" d="M187.5,82c-0.3-17.5-1.4-36.7-14.4-50.1c-4.3-4.4-11.2-5.4-16.6-8.6c-8.1-4.9-16.7-7.4-26.1-8.6
		c-18.2-2.3-37-0.3-54.4,5.4C63.8,24.2,45.8,30,39.7,42.6c-6.3,13,8.3,25.2,18.2,31c15.4,9,34.4,13.9,51.7,17.3
		c7.6,1.5,16.3,1,23.7,3.1c7.3,2.1,6.2,7.7,7.4,13.8c1.5,7.2,6.4,7.8,10,1.6c3.1-5.4,5.4-13.3,11.9-15.7
		c16.6-6.1,12.9,19.7,10.2,27.5c-2.8,8.2-8,15-14.4,20.8c-1.6,1.5-2.3,1.4-2.8,3.1c-1.5,4.6,1.5,10.7,2,15.2
		C177.7,142.1,187.9,107.5,187.5,82C187.3,70,187.5,82.6,187.5,82z"/>
</g>
</svg>
