<?xml version="1.0" encoding="utf-8"?>
<!-- Generator: Adobe Illustrator 19.2.1, SVG Export Plug-In . SVG Version: 6.00 Build 0)  -->
<!DOCTYPE svg PUBLIC "-//W3C//DTD SVG 1.1//EN" "http://www.w3.org/Graphics/SVG/1.1/DTD/svg11.dtd">
<svg version="1.1" id="Layer_1" xmlns="http://www.w3.org/2000/svg" xmlns:xlink="http://www.w3.org/1999/xlink" x="0px" y="0px"
	 viewBox="0 0 236.5 337" style="enable-background:new 0 0 236.5 337;" xml:space="preserve">
<style type="text/css">
	.st0{fill:#2C83C5;}
	.st1{fill:#FFFFFF;}
	.st2{fill:#5DA9CD;}
	.st3{fill:#B6DEF6;}
	.st4{fill:#0777AE;}
	.st5{fill:#2F76BC;}
</style>
<g>
	<path class="st0" d="M1839.3,679.5c-7.1,0.8-10,11.3-7.1,16.9c4.8,9.3,9.9-0.7,14.1-4.3c-0.3,0.5-0.3,0.9,0.1,1
		c2.7-1,2.3-6.2,1.7-8.2C1846.9,681,1843.3,679.1,1839.3,679.5C1832.3,680.3,1843,679.1,1839.3,679.5z"/>
	<path class="st1" d="M1895,646c-2.5,9-11.3,15.2-18.4,20.4c-8.5,6.2-17.8,12.7-28.4,14.6c3.4,6.9,8.2,15.4,4.5,23.2
		c0.8,0,6.9-2.9,6.7-1.1c9.4-8.4,18.6-17,26.5-26.9c3.6-4.5,6.9-9.2,9.4-14.4c1.2-2.5,2.7-5.6,2.4-8.5
		C1897.3,650.7,1895,648.6,1895,646C1892.5,654.8,1895,648.3,1895,646z"/>
	<path class="st1" d="M1847.7,683.8c1.8,0,0.1,7.9-0.2,8.9c-0.4,1.6-4.9,9.7-6.2,9c0.1,0.1-3.5,22.9-3.9,25.2
		c5.5-8.5,12.7-15.8,20.3-22.4c-1.7,0.8-6.3,2.5-8,1c-1.8-1.6,0.5-1.5,0.7-2.4c0.3-1,1.3-3.4,1.3-5.3
		C1851.8,695.6,1850.6,683.8,1847.7,683.8z"/>
	<path class="st1" d="M1831.2,684.5c-2,2.9-7.1,20.3-9.5,8.8c-0.9,7.1-1.4,14.3-1.6,21.4c2.6-4.8,7.5-8.1,10.2-12.9
		c1.5-2.6,1.2-3.6,0.2-6.4C1829.4,691.6,1829.5,688.3,1831.2,684.5C1828.7,688.1,1830.3,686.6,1831.2,684.5z"/>
	<path class="st1" d="M1835.7,654.9c-12.5,8.7-15,26.8-11.5,40.7c1.5-4.2,2.7-8.9,5.7-12.3c2.2-2.5,4.9-3.1,5.1-6.6
		c0.1-3.7-1.5-7-0.7-11C1834.9,662.4,1837.8,658.1,1835.7,654.9C1823.4,663.5,1837.8,658,1835.7,654.9z"/>
	<path class="st2" d="M1836.9,662.5c-1,3.7-1.5,8.1-0.9,11.9c0.6,3.9,1,3.3,4.2,3.3c-0.4-5.7-1-11.6-2.8-17
		C1837.3,661.3,1837.1,661.9,1836.9,662.5z"/>
	<path class="st1" d="M1865.5,543.5c-10.5,2.9-21.4,2.9-32.2,3.9c-9.7,1-20.2,3.1-29.6-0.4c0.4,18.1-0.6,35.7,2,53.7
		c2.2,15.6,6.6,32.1,18.6,43.1c14.1,12.9,34.3,4.5,46.4-7.2c3-2.9,5.8-6.2,7.7-9.9c1.5-2.8,1.2-6.5,2.9-9.1c3.4-5.3,1.2,4.3,0.5,6.2
		c-6.7,17.7-27,28.7-45.3,28.4c1.5,4.3,2.9,8.7,3.9,13.2c0.7,3.3,0.1,7.8,1.2,10.9c2.2,6.1,10.3,1.9,14.4,0.1
		c13.7-6,27.9-14.8,35.8-28c-3.1,0.2-5.1-20.8-5.4-23c-0.5-4.3-1.4-9-1-13.3c0.5-5.6,7.1-8.4,10-13.2c3.1-5.2,10.8-24.7,0.3-26.3
		c-9.1-1.5-10.2,21.7-18.9,15.5c-4-2.8-4.1-10.4-5.1-14.6C1869.3,563.4,1866.5,553.9,1865.5,543.5
		C1855.3,546.4,1866.4,553.3,1865.5,543.5z"/>
	<path class="st2" d="M1891,640.4c0.4,2.2,1.1,4.3,1.5,6.5C1893.3,645.5,1893.9,640.4,1891,640.4z"/>
	<path class="st3" d="M1943.5,717.1c-1.7-5.2-3.2-12.4-7.3-16.3c-4.7-4.5-11.2-2-15.3,2.1c-10.5,10.3-12.5,28.9-12.6,42.7
		C1921.8,738.6,1933.9,728.9,1943.5,717.1C1943,715.4,1933.9,728.8,1943.5,717.1z"/>
	<g>
		<path class="st3" d="M1813.8,748.9c0.8-6.8,2.6-13.3,3.3-20.1c1-9.1,1.4-18.2,2.3-27.2c1.4-14.1,0.3-30.7,9.5-42.5
			c-4.2,1.4-7.9,4.5-10.7,7.9c-1.9,2.3-6.2,6.7-6.8,9.6c-0.8,3.9,1.5,0.8,2.5,3.4c0.5,1.4-0.4,2.2-1.6,3.2c-2.7,2.2-5.5,1.1-6,5.3
			c-0.5,3.9,0.7,8.6,0.7,12.6c0.1,5.8,0,11.5,0,17.3c0,4.5,0.3,9.1,0.3,13.6c0,1.9,0.3,12-2.2,12.7c0,0,0.4-14.6,0.4-16.2
			c0-6.3-0.1-12.6-0.4-18.9c-0.3-6.3-0.9-12.7-0.4-19.1c0.5-5.9,3-6.9,8-9.4c-8.9-3.1,3-14.5,6.2-17.6c-5.9,1.7-11.4,4.5-17,7
			c-4.7,2.1-9.8,3.7-14.1,6.6c-8.2,5.8-8.7,17.2-11.3,26c-1.2,4.1-4.5,10.9-3.4,15.1c1.1,4.3,8,9.4,11.4,12.3
			C1793.3,738.2,1803.2,744.4,1813.8,748.9C1814,746.6,1798,742.2,1813.8,748.9z"/>
		<path class="st3" d="M1825.7,752.8c-0.2,0.2,10.7,3,12.2,3.3c-0.2-4,5.6-8.7,7.9-11.5c3.8-4.6,7.7-9.1,12.2-13
			c8.6-7.5,18.9-10.9,28.2-17.1c3-2,2.5-3,0.7-6.2c-1.6-2.9-3.9-5.6-5.1-8.7c-1-2.6-1.1-4.2,2-2.6c3.9,2,5.2,4.7,9.2,0.7
			c5.1-5.1,9.7-13.1,12.6-19.6c3.3-7.3,3-12.7-0.9-19c-0.9-1.5-3.6-6.1-5.5-4.5c-0.8,0.7-0.9,4-1.2,5c-0.7,2.5-1.9,4.7-3.1,7
			c-5.6,9.7-13.6,18.5-21.6,26.3c-9.7,9.5-20.7,17.7-29.3,28.3c-3.9,4.9-7.4,10.1-10.4,15.6c-1.6,2.9-3.3,5.8-4.6,8.7
			C1828,747.6,1827.6,751.2,1825.7,752.8C1825.6,752.9,1827.3,751.5,1825.7,752.8z"/>
		<path class="st3" d="M1884.1,700.1c2.1,3.6,8.9,10.5,5.4,14.9c-1.7,2.1-5.6,3-7.9,4c-3.5,1.6-6.8,3.4-10.1,5.3
			c-7.7,4.4-14.2,10-20.1,16.6c-4.1,4.6-7.6,11.5-12.4,15.4c12.4,2.1,25.1,2.1,37.4-0.1c6.1-1,12.1-2.6,17.9-4.6c2.7-1,5.4-2,8-3.2
			c1-0.4,3.7-1.1,4.3-2c0.6-0.9,0-3.9,0.1-5c0.3-11.1,2.1-22.6,7.8-32.4c3.8-6.5,11.3-15.8,19.8-11.5c-6.9-10.8-15.3-20.5-24.8-29.1
			c-1.1,8.5-4.9,16.7-9.7,23.7C1895.8,697.8,1891.5,704.6,1884.1,700.1C1886.1,703.4,1889.5,703.4,1884.1,700.1z"/>
	</g>
	<path class="st0" d="M1824.2,752.7c2.8-7.9,7.9-14.3,11.1-21.9c2.8-6.8,2.4-16,3.3-23.3c0.5-3.9,2-5.6-2-6.8
		c-1-0.3-3.8-1.6-4.7-1.2c-1.2,0.5-3,4.3-3.8,5.4c-2.2,3.1-4.3,6.2-6.5,9.3c-2.3,3.4-2.4,5.3-2.8,9.5c-0.4,3.9-0.8,7.9-1.4,11.8
		c-0.5,3.9-0.1,10.7-2.5,13.9C1817.9,750.6,1821,751.8,1824.2,752.7z"/>
	<g>
		<path class="st4" d="M1804.6,726.6C1804.6,726.6,1804.6,726.5,1804.6,726.6C1804.6,726.6,1804.6,726.6,1804.6,726.6z"/>
		<path class="st4" d="M1796.8,534.1C1796.8,534.1,1796.8,534.1,1796.8,534.1C1796.8,534.1,1796.8,534.1,1796.8,534.1z"/>
		<path class="st4" d="M1804.6,726.5c0-0.1,0-0.6,0-0.8c0,0.8,0,1.6,0,2.4C1804.5,727.6,1804.6,726.7,1804.6,726.5z"/>
		<path class="st4" d="M1824.4,749.4C1824.5,749.4,1824.5,749.4,1824.4,749.4C1826.7,743.6,1824.7,748.7,1824.4,749.4z"/>
		<path class="st4" d="M1908.4,723C1911.2,711.7,1905,736.4,1908.4,723L1908.4,723z"/>
		<path class="st4" d="M1828.9,693.9C1828.7,692.4,1829.2,699.1,1828.9,693.9L1828.9,693.9z"/>
		<path class="st4" d="M1774.5,720.8c-1.3-6.9,1.5-13.8,3.4-20.4c1.8-6.2,3.1-13,7-18.3c7.3-9.7,20.9-12.7,31.6-17
			c-2.6,3-12.9,13.1-5.4,16c-2.4,1.2-5.5,1.7-6.9,4.2c-1.3,2.5-0.4,5.6-0.1,8.2c0.9,8,0.7,16.1,0.6,24.1c-0.1,7.3,0.6,14.9-0.7,22
			c-0.3,1.8-0.6,7.5,2.7,4.8c1.4-1.1,1.2-5.2,1.2-6.6c0.1-12.9,0.2-26-1.1-38.9c-0.5-5.1-0.9-10.1,3.1-13.7c2.8-2.5,7.3-5,1.6-7.5
			c3.6-6.7,8.3-13.7,15.4-17.2c-7,10.3-6.8,23.7-7.7,35.6c-1,13.5-0.9,27.3-3.8,40.6c-0.5,2.2,0.2,8.9-2.1,11.8
			c3.3,1.4,3.5-0.2,4.4-3.4c0.7-2.4,0.9-4.9,1.1-7.4c0.4-5.4,0-10.9,1.2-16.3c1.2-5.6,4.6-10.2,8.2-14.5c3.4-4,5.1-4.4,10.1-4.7
			c-2.2,8.8-1.3,18.1-4.1,26.8c-2.3,7.2-7.2,13.2-9.9,20.3c-0.8,1.9-2,2.8,0.4,3.6c2.1,0.7,2.1-0.3,3-1.9c1.7-3.4,2.5-7,4.4-10.4
			c3.9-7.2,8.3-14,13.6-20.2c17.4-20.5,49-36.5,54.5-64.9c11.5,9.6,4.3,24.2-2.2,34.3c-2.9,4.5-6,10.4-12.2,8.3
			c-3.4-1.1-8-4-4.9,2.7c1.9,4.1,9.2,7.9,5.4,12.8c-2.8,3.7-9.3,5.1-13.4,7c-13.2,6.1-24.5,17.7-32.7,29.6c0,0,0.8-1.2,0.7-1.3
			c0.2,0.2-4,6.1-4.2,6.9c4.7,0.9,5.1-0.4,7.7-4.2c1.7-2.6,3.1-5.3,5.1-7.7c5-6.2,11.2-12,17.8-16.4c6.1-4,13.2-6,19.2-10
			c7-4.8,2.7-10-0.6-15.7c13.8,5.9,22.6-23,23.9-32.1c8.5,7.9,16.2,16.7,22.6,26.4c-22.7-3.1-26.9,36.2-26.9,50.8
			c2.6-1.2,2.5-1.2,3.3-3.5c0.6-1.8,0.3-4.4,0.5-6.3c0.5-4.9,1.1-9.7,2.3-14.5c1.5-6,4.1-11.7,8.2-16.5c2.9-3.3,7.4-7.2,12.2-5.9
			c6.8,1.8,9.2,12,10.8,17.7c1.7-2.1,2.5-2.5,1.9-5c-0.4-1.8-1.5-3.6-2.2-5.2c-1.8-4-3.9-8-6.3-11.7c-4.6-7.2-10.1-14-16-20.2
			c-2.5-2.5-5.3-4.8-7.6-7.5c-2.5-2.9-3.6-6.3-5.6-9.4c-4-6.2-9.5-11.3-13.2-17.8c-3.7-6.7-5.3-13.1-1-19.8
			c4.1-6.3,8.5-11.6,11.7-18.5c7.1-15.4,11.4-32.4,10.2-49.4c-1-13.9-5.6-28.3-18.6-35.1c-6.4-3.3-13.1-7-20-9.2
			c-8.3-2.7-17.4-2.8-26-2.2c-16.1,1.2-33.4,5.1-46.6,14.8c-5.6,4.2-11,9.9-10.9,17.3c0,4,1.3,7.1,4.1,9.9c2.3,2.3,4.6,4.2,4.9,7.8
			c0.3,4.1-1.1,8.5-1.1,12.6c0,4.7,0.4,9.5,0.8,14.2c0.9,10.5,2.7,20.9,5,31.1c2,8.7,5,17.2,10.4,24.4c2.7,3.6,6.1,7.1,10,9.5
			c1.9,1.1,6.8,2.1,7.6,4.4c-7.7,5.5-16.6,8.8-25.3,12.1c-7.9,2.9-16.5,5.5-22.9,11.3c-5.4,4.9-8.3,11.4-10.4,18.2
			c-1.3,4.3-2.6,8.6-3.5,12.9c-0.5,2.3-1.3,5.2-1,7.5C1771.4,717.6,1772.6,718.7,1774.5,720.8
			C1773.4,714.7,1773.3,719.4,1774.5,720.8z M1829.4,701c-1.3,4.6-6.2,7.1-8.5,11.1c0.1-4.9,0.8-9.8,1.1-14.7c2.2,5.7,6.3-6.4,7.1-8
			C1828.4,693.3,1830.5,697.3,1829.4,701C1828.3,705.2,1830.3,698,1829.4,701z M1838.5,724.1c0.9-6.4,3.3-12.6,3.5-19
			c0-0.4-0.3-3.3-0.2-3.6c0.4-0.7,2.3-1.5,3-2.2c1.2-1.1,6.3-7.5,2-6.4c-0.4-0.2,0.5-2.3,0.6-2.6c-3.6,2.3-7.6,12.1-12.9,8.3
			c-5.9-4.3-2.7-16,3.9-17.8c8.3-2.3,12.2,7.5,12.3,14.1c0.1,4.1-4.2,14.1,3.8,11.6C1848.8,711.9,1843.1,717.6,1838.5,724.1
			C1839.4,717.9,1843.1,717.6,1838.5,724.1z M1837.4,663c1.1,4.6,1.7,9.3,2.1,14C1834.5,677.6,1836.5,666.3,1837.4,663z M1883,679
			c-8.4,9.3-16.7,20.3-29.2,24.3c2.4-7.4-0.8-15.4-4.6-21.8c9.6-1.9,18.5-6.5,26.2-12.3c7.3-5.5,15.7-13,19.6-21.5
			C1900.5,659.1,1890.2,671.1,1883,679C1874.6,688.4,1890,671.2,1883,679z M1892.1,642.3c0.4,0.6,0.5,1.3,0.5,2
			C1892.1,641.2,1892.5,642.6,1892.1,642.3C1892.5,642.8,1892.1,642.3,1892.1,642.3z M1890.1,646.5c0.4,6.5-7.6,12-12,15.7
			c-6,5.1-12.6,9.7-19.8,13c-4.7,2.2-12.1,6-15.4,0.3c-3.8-6.5-2.8-15.7-5.3-22.7c19.8,1.2,41.1-14.5,46.8-33.6
			C1885.5,628.4,1889.5,637.4,1890.1,646.5C1890.4,651.2,1889.8,642.3,1890.1,646.5z M1796.8,534.1c0.2-1,0.3-1.9,0.5-2.9
			C1797.1,532.1,1797,533.1,1796.8,534.1c1-5.9,7-9.4,11.9-11.9c6.8-3.5,13.7-6.7,21.2-8.7c15.6-4.1,35.9-6.5,51,0.1
			c12.1,5.3,23.2,10.8,27.7,24c3.9,11.5,3.5,24.3,1.6,36.1c-2.7,17.2-8.9,34.9-21.1,47.8c-0.5-3.2-1.9-6.6-0.7-9.7
			c1.5-4.1,5.9-7,8.5-10.4c3.7-5.1,5.9-11.9,6.4-18.1c0.4-5.8-1.5-12.8-8.5-13c-6.1-0.2-7.8,6.5-10.3,10.8c-2.7,4.6-6.2,6.6-8.4,0.7
			c-2.1-5.7-3.2-12.2-4.8-18.1c-1-3.6-1.7-7.2-1.9-10.9c-0.2-3.1,0.1-6.7-1.1-9.6c-1.4-3.3-3.7-3-6.8-2c-4.6,1.5-9,2.6-13.9,3
			c-10.7,0.9-23.1,3.5-33.7,1.1C1809.8,544.2,1795.9,540,1796.8,534.1C1796.8,534.1,1796.1,538.6,1796.8,534.1z M1832.5,648.9
			c-2.1-1-4.3-1.9-6.4-2.9c2,1,4.1,1.8,6.1,2.8c-13.7-6.4-19.6-21.8-22.8-35.6c-4.4-18.8-6.1-38.3-5.2-57.6
			c8.5,2.9,16.4,7.3,24.7,10.8c8.2,3.5,17,5.7,25.9,6.9c6.4,0.8,16.1-1.3,18.5,6.6c0.8,2.7,0.3,6,2.5,8.2c2.7,2.8,5.8,1.7,8.1-0.9
			c3.1-3.6,3.7-9.1,7.5-12.2c5-4.2,8.8,0.6,8.8,5.7c0,5.6-1.8,11.9-4.4,16.7c-3.9,7.1-11.6,9-11.5,18.2c-3.4-2.5-4.5,6.3-4.9,7.9
			c-1.9,6-6.7,10.9-11.4,14.8C1858.7,645.7,1844.5,653.2,1832.5,648.9C1819.4,642.9,1842.4,652.5,1832.5,648.9z M1835.4,656
			c1.1,3.4-1.4,6.4-1.8,9.6c-0.4,3.7,1.5,7.4,0.2,11c-0.9,2.6-3.3,4.4-4.9,6.6c-2.1,2.9-3.5,6.4-4.6,9.8
			C1821.7,680.6,1824.7,664,1835.4,656C1836.5,659.3,1832.5,658.1,1835.4,656z"/>
		<path class="st4" d="M1832.2,648.7c0.1,0,0.2,0.1,0.3,0.1C1832.6,648.9,1832.4,648.8,1832.2,648.7z"/>
		<path class="st4" d="M1841.8,701.5C1841.9,701.7,1844.2,700.2,1841.8,701.5L1841.8,701.5z"/>
		<path class="st4" d="M1891.7,653c0.2-0.3,0.5-0.6,0.7-0.9C1892.2,652.3,1891.4,653.4,1891.7,653
			C1891.8,652.9,1891.5,653.3,1891.7,653z"/>
	</g>
	<path class="st0" d="M1911.8,562.1c-0.2-13.6-1.1-28.5-11.2-38.9c-3.3-3.4-8.7-4.2-12.9-6.7c-6.3-3.8-13-5.8-20.3-6.7
		c-14.1-1.8-28.8-0.3-42.2,4.2c-9.5,3.2-23.5,7.6-28.2,17.4c-4.9,10.1,6.5,19.6,14.1,24.1c11.9,7,26.7,10.8,40.2,13.4
		c5.9,1.2,12.7,0.8,18.4,2.4c5.7,1.6,4.8,6,5.8,10.7c1.2,5.6,4.9,6.1,7.7,1.2c2.4-4.2,4.2-10.4,9.3-12.2c12.9-4.7,10,15.3,7.9,21.4
		c-2.2,6.3-6.2,11.6-11.2,16.1c-1.3,1.1-1.8,1.1-2.2,2.4c-1.2,3.5,1.2,8.3,1.6,11.8C1904.3,608.8,1912.2,581.9,1911.8,562.1
		C1911.7,552.8,1911.8,562.5,1911.8,562.1z"/>
</g>
<g>
	<path class="st3" d="M115,335.5c39.9,0,78.5-17.1,105.3-46.7c3.6-4,6.7-6.8,6.7-12.4c0-5.9-2.3-11.8-4.8-17.1
		c-4.5-9.8-10.7-18.7-17.6-26.9c-15.1-18-32.4-34.4-48.8-51.3c4.9,13.5-9.5,24.6-18.3,32c-9.4,7.9-21,15.7-34,13.1
		c-4.9-1-9.8-3.4-12.9-7.4c-1.6-2-2.9-4.1-1.9-5.8c0.4-0.7,2.5-1.4,3.3-2.2c1.5-1.4,2.5-3.1,3-5.1c1-3.6-2-14.7-7.7-13.1
		c-0.3,0.1-3.2,4.8-3.6,5.3c-2.2,2.6-5,4.7-7.9,6.6c-11.1,7-24.7,8.5-35.9,15.4c-11.4,7-18,18.9-23.5,30.7
		c-2.1,4.6-4.1,9.3-5.7,14.2c-1.5,4.6-6.1,14.8-4.8,19.5c1.2,4.4,9.3,10.2,12.5,13.2c4.7,4.4,9.7,8.4,15,12.1
		C57.2,326.4,85.9,335.5,115,335.5z"/>
	<path class="st1" d="M46.6,75.6c7.1,32.3-3.2,70.1,17.3,98.7c4,5.6,9,10.5,15,14c4.6,2.7,15.5,3.8,15.9,10.2
		c0.4,6.5-6.9,9.5-4.1,17.1c2.8,7.4,10.5,10.5,18,10.1c14.8-0.9,31.4-11.6,41.4-22.1c5.1-5.4,8.3-11.5,7.8-19
		c-0.6-8.6-4.2-16.3-3.7-25.2c0.5-7.3,2.8-14.4,6.7-20.6c4.6-7.2,11.3-12.9,15.2-20.5c3-5.9,4.2-13.1,0.6-19
		c-4.6-7.4-13.7-5.9-20.8-8.8c-7.3-3-12.6-9.3-19.8-12.5c-8.2-3.6-17.4-3.6-26.2-3.4c-21.3,0.5-42.5,1.3-63.8,2"/>
	<path class="st0" d="M87.8,196.5c-9.6-5.2-19.1-12.8-25.1-21.9c-2.8-4.3-4.3-9.2-6.3-13.9c-1.5-3.5-1.9-6.6-5-3.7
		c-2.8,2.6-3.2,10.5-3.5,14.1c-0.5,5.5-0.1,11.2,1.3,16.6c1.9,7.5,12.3,21.9,2.9,28.1C63.3,208.3,76.5,204.5,87.8,196.5
		C79.2,191.9,82.3,200.4,87.8,196.5z"/>
	<path class="st0" d="M231.8,183.9c-8.8,4.7-21.2,5.5-29.2-1.4c-11.7-10.3-2.2-26.9,0.1-39.4c5.2-28.7,0.5-59.4-12.4-85.5
		C179,34.4,159.9,14.4,134.8,6.4c-24.7-7.9-52.6-3.7-74,10.9c-18.1,12.4-39.5,38-17.6,57.4c-5.5,3.5-6.2,13.1-6.1,19
		c0.1,9.3,4.2,18.3,11.1,24.5c-1.1-14-2.1-28-3.2-42c18.8,14.4,47.1,11.4,68.7,6.5c4.7-1.1,10.2-3.3,15-2.2
		c5.2,1.2,9.9,6.2,12.8,10.4c3.9,5.6,5.9,9.1,13.5,8.2c5.9-0.7,11.4-0.9,15.7,4c9,10.4-2.2,19.4-8.9,26.5c-7.6,8-8.2,19.6-8.7,30.1
		c-0.3,6.2-0.1,12.6,1.8,18.5c2,5.9,5.8,7.2,10.2,11.1c4.2,3.8,4.5,9.6,7.6,14.2c3.2,4.7,7.9,8.3,12.5,11.6
		c9.8,6.9,19.9,14,30.9,5.2C226.5,211.8,232.8,197.4,231.8,183.9C226.7,186.6,232.4,192.8,231.8,183.9
		C221.1,189.7,232.5,193.7,231.8,183.9z"/>
	<g>
		<path class="st5" d="M157,222.1C157.1,222,156.9,222.2,157,222.1C157,222.1,157,222.1,157,222.1z"/>
		<path class="st5" d="M218.4,246.4C224.3,256.3,218.3,246.1,218.4,246.4L218.4,246.4z"/>
		<path class="st5" d="M8.6,287.5c1.5-3.7,1.5-8,2.5-11.9c1.2-4.5,2.7-9,4.3-13.4c3.2-8.6,7.2-17.1,12.1-24.9
			c4.4-7.1,9.8-13.2,17.4-16.9c8.4-4.1,17.8-5.5,26.2-9.4c-9.4,23.6,14.6,42.9,36.2,44.1c13.9,0.8,27.5-5.7,38.2-14.2
			c11-8.8,22.8-20.8,25.9-35c12.4,9.8,24.7,19.8,34.7,32.1c-26.9-3.3-32.2,38.5-33.3,57.1c-0.2,4-1.9,26.8,3.2,26.7
			c4.7-0.1,2.3-9.2,2.2-11.9c-0.3-6.1-0.3-12.1,0.1-18.2c1.1-14.6,4.2-39.2,18.9-46.9c8.9-4.7,15.5,1.4,19.5,9.1
			c2,3.9,3.7,8.1,4.9,12.3c1.6,5.3,1.2,12,3.6,17c4-4.9,5-6.5,3.2-12.7c-0.9-3.3-2.1-6.6-3.3-9.9c-2.7-7.1-6.2-15.4-11-21.3
			c-10.7-13.2-23.3-24.2-36.6-34.7c-6.2-4.9-5.4-11.2-10.1-17.2c-3.8-4.9-10.4-4.2-11.3-10.7c-0.9-6.7-0.5-13,0.2-19.6
			c0.2-1.9,0.8-6.2-1.8-7c-3.6-1.1-3.6,4.6-3.8,6.5c-2.2-5.1-6.9,3.4-8.1,5.1c-4.3,6-9.1,11.7-14.7,16.6
			c-10.2,8.7-23.4,14.3-36.9,12.8c-27.2-3-35-31.4-37.3-54.3c-1.5-14.2-2.6-28.4-3.9-42.5C49.6,91.1,50.1,74,45,74.9
			c-5.1,0.9,0.1,23.1,0.4,26.6c1.2,12.6,2.2,25.3,3.8,37.9c2.9,22.6,10,48.6,34.7,55.4c-4.5,3.8-7.8,8-13.2,10.7
			c-5,2.5-10.2,4.2-15.5,5.9c-11.5,3.8-20.9,8.4-28.5,18c-7,8.8-11.9,19-15.7,29.5c-1.8,4.8-3.3,9.8-4.6,14.8
			c-0.5,2-1.9,5.1-1.8,7.2C4.8,283.7,6.5,285.2,8.6,287.5C9.8,284.6,7.1,285.8,8.6,287.5z M159.7,186.9
			C159.1,186.8,159,186.5,159.7,186.9L159.7,186.9z M78.7,207.8c2.3-3.4,12.5-16.9,14.3-7.5c0.7,3.6-4.2,11.7-1.4,14.5
			c5.9,5.8,6.6-15.6,5.5-18.5c23.5-0.9,41.6-18.5,53.5-37.3c-0.5,6.7-0.5,14.2,1.4,20.7c1.2,4.1,4.1,8.3,3,12.8
			c-2.1,8.2-14.8,17.7-21.3,22c-9.4,6.2-23.6,12.7-35,8.3c-4.1-1.6-8.4-5.5-8.8-10.2c-0.2-2.5,2.6-12.1-3.2-7.9
			c-4.2,3-1.7,11.2,0.3,14.6c2.5,4.2,6.5,7.3,11.1,8.7c10.8,3.4,23.5-1,33.1-6.1c7.8-4.2,14.4-9.8,20.4-16.2
			c2.9-3.1,12.7-12.5,9.6-17.6c11.4,9.3,3,25-4.3,34c0.3-0.4,0.6-0.7,0.9-1.1c-1.3,1.6-2.5,3.1-3.8,4.7c1-1.2,1.9-2.4,2.9-3.6
			c-12.7,15.6-31.2,30-52.4,27.7C85,247.8,65.4,227.5,78.7,207.8C80.5,205.1,74.5,214,78.7,207.8z"/>
	</g>
	<g>
		<path class="st5" d="M41.4,243.2C42.7,243.7,40.1,242.7,41.4,243.2L41.4,243.2z"/>
		<path class="st5" d="M29.6,306.9c3.2-4.1,2.2-16,2.9-20.9c1.4-9.1,3.2-18.6,6.3-27.3c1-2.7,6.1-11.4,3.8-14.2
			c-2-2.4-3.1-0.3-4.4,1.8c-5.1,8.2-7.1,19.5-9.2,28.7c-1.3,5.6-2.4,11.2-3.1,16.9c-0.3,2.5-0.6,5.1-0.7,7.6
			C25,303.8,25.8,304.1,29.6,306.9C31.6,304.4,28.1,305.8,29.6,306.9z"/>
	</g>
</g>
</svg>
