<?xml version="1.0" encoding="utf-8"?>
<!-- Generator: Adobe Illustrator 19.2.1, SVG Export Plug-In . SVG Version: 6.00 Build 0)  -->
<!DOCTYPE svg PUBLIC "-//W3C//DTD SVG 1.1//EN" "http://www.w3.org/Graphics/SVG/1.1/DTD/svg11.dtd">
<svg version="1.1" id="Layer_2" opacity="0.4" xmlns="http://www.w3.org/2000/svg" xmlns:xlink="http://www.w3.org/1999/xlink"
	 x="0px" y="0px" viewBox="0 0 16362.5 9838.2" style="enable-background:new 0 0 16362.5 9838.2;" xml:space="preserve">
<style type="text/css">
	.st0{opacity:0.5;}
	.st1{fill:#FFFFFF;}
</style>
<g class="st0">
	<path class="st1" d="M10499.1,8625.5c0,0-17.3-15.2-24.3-36.4c-9.7-20.1-7.8-43-7.8-43s-3.8,22.7,4.6,44.3
		C10480.5,8611.9,10499.1,8625.5,10499.1,8625.5z"/>
	<path class="st1" d="M10470.6,8618.4c0,0,8.3,14.6,19.2,27.5c12,11.9,26,21.3,26,21.3
		C10514.7,8668.2,10469.5,8619.4,10470.6,8618.4z"/>
	<path class="st1" d="M10544.7,8686.2c-5.2-12.7-9.6-25.8-15.5-34.6c-5.7-8.8-11.5-12.8-11.5-12.8s5.5,4.4,10.5,13.4
		c5.2,8.8,8.8,22.3,13.2,35.3c4.6,12.8,10.3,26.1,18.7,32.8c7.7,7.2,14.7,8.8,14.7,8.8s-6.9-2.1-14-9.6
		C10553.1,8712.4,10548.6,8699.5,10544.7,8686.2z"/>
	<path class="st1" d="M10894.9,8728.2c-2.8,9.8-4.7,16.4-4.7,16.4s2.3-6.4,5.7-16.1c4-9.4,6.7-23.2,8.2-36.7
		c1.2-27.5-1.4-54.6-1.4-54.6s0.8,27.4-2.1,54.4C10900,8705.1,10898.4,8718.5,10894.9,8728.2z"/>
	<path class="st1" d="M10886.1,8759.1c0,0-9.1,4.1-15.7,12c-5.5,8.7-6.8,18.6-6.8,18.6s3.1-9.5,9.6-16.5
		C10878,8764.9,10886.1,8759.1,10886.1,8759.1z"/>
	<path class="st1" d="M10905.6,8742.5c-14.5,27.4-30.1,55-30.1,55s16.9-26.4,33.3-53.7c11.8-30.1,8.9-62.2,8.9-62.2
		S10918.8,8713.8,10905.6,8742.5z"/>
	<path class="st1" d="M10859.2,8826.3c0,0,0.8-6.1,3.4-11.3c0.7-5.8,3.4-11.3,3.4-11.3s-4.2,4.5-6.7,10.3
		C10858.2,8820.3,10859.2,8826.3,10859.2,8826.3z"/>
	<path class="st1" d="M10907.2,8613.3c0,0,4-20.8,8-41.6c2.6-21.4-3.2-42.2-3.2-42.2s4,21-0.3,41.8
		C10909.5,8592.3,10907.2,8613.3,10907.2,8613.3z"/>
	<path class="st1" d="M10374.2,8188c-7.5,15.2-15.1,36.7-23.1,57.9c-7.8,21.4-10.5,45.1-5.3,61.7c4.9,16.8,15,23.7,15,23.7
		s-9.8-7.3-14-24c-4.5-16.4-0.9-39.6,7.6-60.2c7.2-21.6,13.8-43,20.8-58.6c6.4-16.3,2.9-27.9,2.9-27.9S10381.1,8172.3,10374.2,8188z
		"/>
	<path class="st1" d="M10335.9,8244.4c0,0,12.4-28.6,24.8-57.1c5.6-14.6,8.8-30.3,8.4-42.1c-0.2-11.8-3.2-19.2-3.2-19.2
		s2.5,7.5,2.1,19.2c-0.3,11.6-4.3,26.7-10.6,40.8C10346.7,8215.2,10335.9,8244.4,10335.9,8244.4z"/>
	<path class="st1" d="M10335.8,8054.7c0,0,24.2,9.4,35.6,31.6c14,20.4,10.8,46.2,10.8,46.2s5.3-25.5-7.9-48.1
		C10360.7,8062.2,10335.8,8054.7,10335.8,8054.7z"/>
	<path class="st1" d="M10662.4,7697.3c0,0-1.1,41.3,4.3,82.3c6.4,40.9,19.1,80.2,19.1,80.2s-11-39.8-15.7-80.7
		C10663.1,7738.6,10662.4,7697.3,10662.4,7697.3z"/>
	<path class="st1" d="M10689.7,7880.3c0,0,3.2,15.4,6.5,30.7c4.9,14.9,9.8,29.8,9.8,29.8s-3.2-15.4-6.5-30.7
		C10694.6,7895.2,10689.7,7880.3,10689.7,7880.3z"/>
	<path class="st1" d="M10705.9,7895.2c0,0-3.3-24.1-6.7-48.3c-5.1-23.8-10.1-47.7-10.1-47.7s3.3,24.1,6.7,48.3
		C10700.8,7871.3,10705.9,7895.2,10705.9,7895.2z"/>
	<path class="st1" d="M10751.4,8038c-4.2-8.1-7.8-20.1-12.4-31.6c-10.3-22.6-20.5-45.1-20.5-45.1s8.7,23.2,17.3,46.5
		c5.4,11.2,9.7,22.8,14.7,30.9c5.1,8.6,12.4,8.6,12.4,8.6S10755.8,8046.6,10751.4,8038z"/>
	<path class="st1" d="M10690,7578.7c7.5-30.9,15-61.8,15-61.8s-9.2,30.4-18.4,60.8c-2.8,15.8-10,29.7-13.5,41.4
		c-3.7,11.4-4.5,19.4-4.5,19.4s1.2-7.9,5.5-19C10678.1,7608.5,10686.4,7594.2,10690,7578.7z"/>
	<path class="st1" d="M10745.3,7437.3c0,0-12.2,11.5-21.2,25.8c-7.8,15-11.6,31.3-11.6,31.3s5.5-15.8,14.7-29.6
		C10734.5,7450.1,10745.3,7437.3,10745.3,7437.3z"/>
	<path class="st1" d="M10733.3,7489.1c3.9-12.2,9-19.2,9-19.2s-5.4,6.8-10,18.9c-4.7,12-7.8,29.1-10.3,46c-1.6,17-4.5,33.8-9.3,45.6
		c-4.7,11.9-10.4,18.5-10.4,18.5s6.1-6.2,11.4-18c5.5-11.7,9.3-28.7,11.8-45.6C10727,7518.1,10729.2,7501.2,10733.3,7489.1z"/>
	<path class="st1" d="M10851.8,7325c-4.4,4.5-7.3,11.7-11,18.5c-2.5,7.6-5.5,14.5-10.9,17.5c-4.7,3.4-8.7,4.2-8.7,4.2s4-0.3,9.3-3.3
		c5.9-2.4,10.3-9.7,13.4-16.7c3-7.3,5.2-15.1,8.8-19.5c3.4-4.7,7.3-6.1,7.3-6.1S10856,7320.5,10851.8,7325z"/>
	<path class="st1" d="M10955.8,7244.8c0,0-17.7,17.6-38.1,31.6c-19.1,15.7-41,27.8-41,27.8s22.6-10.5,43.1-25
		C10939.5,7263.6,10955.8,7244.8,10955.8,7244.8z"/>
	<path class="st1" d="M10932.4,7290.5c-17.7,11.2-35.7,22.3-47.7,32.7c-12.1,10.2-18.2,18.9-18.2,18.9s6.5-8.4,18.9-18.1
		c12.3-9.8,30.5-20.1,48.8-30.6c17.8-11.2,34.6-24.4,44.7-36.7c10.2-12.2,13.8-22.3,13.8-22.3s-4,9.9-14.7,21.6
		C10967.7,7267.8,10950.6,7280.1,10932.4,7290.5z"/>
	<path class="st1" d="M11208.8,7024.7c-18.7,1.7-35.4,11.5-45.1,21.2c-9.8,9.7-13.5,18.3-13.5,18.3s4.1-8.4,14.2-17.5
		c9.9-9.1,26.7-17.7,44.6-18.5c17.7-2,35.6,5.5,49.3,4.4c14.3-1.2,19.8-10.1,19.8-10.1s-5.9,8.5-19.9,9
		C11244.7,7031.9,11227.7,7023.5,11208.8,7024.7z"/>
	<path class="st1" d="M11248.7,7007.4c6.3-2.4,8.5-6.5,8.5-6.5s-2.7,3.8-8.9,5.4c-6.1,1.8-14.7,1.3-23.3,1.2
		c-17.1,1.5-34.2,3-34.2,3s17.2,0.2,34.4,0.4C11233.7,7010.3,11242.5,7010,11248.7,7007.4z"/>
	<path class="st1" d="M11333.8,6920.5c-0.7-0.7-11.5,17.3-13.8,37.8c-0.5,20.5-9.7,38.7-10.6,38.2c0.7,0.7,11.8-17.1,14-37.7
		C11324,6938.4,11332.9,6920.1,11333.8,6920.5z"/>
	<path class="st1" d="M11304.4,7032.8c0,0,17.4-12.9,27.2-32.4c9.1-19.8,8.4-41.5,8.4-41.5s-1.2,21.6-11.6,39.9
		C11320.6,7018.5,11304.4,7032.8,11304.4,7032.8z"/>
	<path class="st1" d="M11562.2,6806.4c-26,26-65.7,18.7-64.4,18.3c0,0,8.5,2.7,21.9,2c13-0.6,31.4-5.3,44.7-17.5
		c13-11.7,24.8-25.3,36.3-31.6c11.5-6.7,20.7-5.9,20.7-5.9s-9.2-1.2-21.3,5C11588,6782.6,11575.8,6795.4,11562.2,6806.4z"/>
	<path class="st1" d="M11620.3,6737.4c-1.5,10.6-10.3,17.9-10.3,17.9s10.1-5.7,13.7-17c2.6-11.6-3.2-21.6-3.2-21.6
		S11624.4,6727.5,11620.3,6737.4z"/>
	<path class="st1" d="M11680.2,6625.2c0,0-4.8,2.1-10.7,7.2c-6,4.8-12.3,13.9-17.2,22.3c-5,9-8.3,19.4-16.2,21.7
		c-7.2,3.1-12.2,0.1-12.2,0.1s4.8,3.5,12.6,0.9c8.6-1.9,13.2-12.5,18.7-20.7c4.7-9.6,9.5-18.1,15.1-23.5
		C11675.6,6627.7,11680.2,6625.2,11680.2,6625.2z"/>
	<path class="st1" d="M11703.7,6626c-17.3,13.4-34.6,26.9-34.6,26.9s18.4-12.1,36.8-24.2c18.9-14.5,20.3-39.2,18.8-38.6
		C11726.3,6589.8,11722.9,6613.6,11703.7,6626z"/>
	<path class="st1" d="M11707.1,6433.4c-0.6-1.9-0.6-3.4-0.5-4.6c-0.4,1.2-1,1.8-0.6,4.8c0.3,4.9,4.2,10.3,7.8,15
		c4.3,4.4,8.8,8.7,10.3,12.9c1.8,4.1,1.3,7.3,1.3,7.3c1.4,0.4,0.2-13.5-8.8-22.3C11712.3,6442.2,11708.1,6437.9,11707.1,6433.4z"/>
	<path class="st1" d="M11706.6,6428.7c0.2-0.7,0.3-2.8,0.3-2.8S11706.7,6427.1,11706.6,6428.7z"/>
	<path class="st1" d="M11740.2,6456c-5.1-12.9-15.1-22-15.1-22s8.7,10.4,11.8,23.1c5.3,11.9,4.8,25.5,4.8,25.5
		S11744.1,6469.3,11740.2,6456z"/>
	<path class="st1" d="M11759,6533.1c-0.2-9.4-4.4-17.4-4.4-17.4c2.5,0,0.6,34.5-1.9,34.2
		C11752.7,6549.9,11757.8,6542.4,11759,6533.1z"/>
	<path class="st1" d="M11762.6,6552.9c-6.4,12.9-21,18-21,18s15.2-3,24-16.1c7.8-13.7,3.6-28.7,3.6-28.7
		S11771.3,6541.4,11762.6,6552.9z"/>
	<path class="st1" d="M11712.7,6360.8c-3.6-20.9-20.5-33.8-19.2-34.4c-1.3,0.3,14.3,15.6,15.7,34.6c1,9.2-2.7,19-3.2,26.3
		c-0.8,7.4,0.2,12.3,0.2,12.3s-0.6-5,0.8-12.1C11708.1,6380.2,11712.7,6371.4,11712.7,6360.8z"/>
	<path class="st1" d="M11682.5,6275.7c0,0-1.9,6.9-1.8,14.2c1.6,7.1,5,13.4,5,13.4L11682.5,6275.7z"/>
	<path class="st1" d="M11700.9,6304.9c0.4,1.7,0.7,2.6,1,2.6C11701.9,6307.5,11701.5,6306.5,11700.9,6304.9z"/>
	<path class="st1" d="M11700.9,6304.9c-2.7-11.5-7.5-58.3-5.6-58.5c0,0-2.8,15.3-1.8,31.1
		C11695.3,6289.2,11699.1,6300.1,11700.9,6304.9z"/>
	<path class="st1" d="M11711.6,6189.1c11.6-13.2,23.2-26.5,23.2-26.5s-13,12.3-26.1,24.5c-10.8,15.7-8.3,34.8-7.7,34.4
		C11700.4,6221.8,11699.9,6202.7,11711.6,6189.1z"/>
	<path class="st1" d="M11853.3,5953.8c-4.8,33.7-26.1,61.3-26.1,61.3s22.7-26.4,29.5-60.7c6.7-34.3-4.4-67.3-4.4-67.3
		S11861.6,5920.7,11853.3,5953.8z"/>
	<path class="st1" d="M11808.9,6069.5c0,0,19.9-16,33.2-38c12.5-22.5,16.4-47.7,16.4-47.7s-5.7,24.9-19.4,46
		C11827.7,6052.1,11808.9,6069.5,11808.9,6069.5z"/>
	<path class="st1" d="M11884.3,5818.7c0,0-13.1,18.3-15.7,40.9c-1.9,22.6,7.4,43.2,7.4,43.2s-7.5-21.2-3.9-42.8
		C11872.7,5838.1,11884.3,5818.7,11884.3,5818.7z"/>
	<path class="st1" d="M11940,5756.6c0,0,28.5-18.5,45.9-47.7c17.2-29.4,19.7-63.2,19.7-63.2s-4.4,33.7-22.7,61.4
		C11967.4,5736.6,11940,5756.6,11940,5756.6z"/>
	<path class="st1" d="M12018.5,5589.3c3.2-13.7,11.5-25.6,11.5-25.6s-9.8,10.7-14.8,24.5c-3.9,14.2-2.1,28.6-2.1,28.6
		S12013.1,5602.3,12018.5,5589.3z"/>
	<path class="st1" d="M12012.8,5705.7c1,0.9,14.9-24.8,15.3-53.6c-1.2-28.2,5.7-55.4,6.9-55.1c-1.1-0.5-9.8,26.7-10.4,55
		C12026,5680.3,12014,5706.3,12012.8,5705.7z"/>
	<path class="st1" d="M12146.6,5413.7c0,0-15.6,2-29.8,9.2c-13.6,8.3-23.5,20.4-23.5,20.4s11.3-10.9,25.2-17.3
		C12131.4,5417.6,12146.6,5413.7,12146.6,5413.7z"/>
	<path class="st1" d="M12202.4,5400.4c17.2-6.2,32.9-15.3,32.9-15.3c0.5,1.6-68,23.3-68.5,21.8
		C12166.7,5406.8,12184.8,5405.2,12202.4,5400.4z"/>
	<path class="st1" d="M12098.3,5458.1l2.1,2.5h0.2c25.1-22.3,56.6-36.8,89.9-41c-33.8,0.4-67.4,15.5-90,40.7L12098.3,5458.1z"/>
	<path class="st1" d="M12535.6,5254.9c-12.1,7.1-25.5,19.9-39.8,31.5c-12.8,13.6-28.5,23-41.8,27.3c-13.1,4.5-22.4,5.2-22.4,5.2
		s9.3-0.2,22.7-4.1c13.4-3.5,30.5-12.7,43.7-25.6c13.7-12.3,26.7-25.8,38.2-33.3c11.5-7.7,20.7-9.7,20.7-9.7
		S12547.6,5247.7,12535.6,5254.9z"/>
	<path class="st1" d="M12566.2,5258.3c-16.2,5.8-28.8,17.3-28.8,17.3s13.7-10.1,29.8-14c15.4-6.2,32.4-5.9,32.4-5.9
		S12582.8,5253.6,12566.2,5258.3z"/>
	<path class="st1" d="M12574.6,5239.4c0,0,11.6-0.8,22.9,0.5c11.4-0.6,22.9,0.8,22.9,0.8s-11.1-3.2-22.8-4.3
		C12585.9,5236.8,12574.6,5239.4,12574.6,5239.4z"/>
	<path class="st1" d="M12807.6,5162.8c0,0,25.9-18.4,33.9-49.1c7.7-30.7-6.1-59.3-6.1-59.3s12,29.4,2.7,58.4
		C12832.2,5142.8,12807.6,5162.8,12807.6,5162.8z"/>
	<path class="st1" d="M12859,5123.7c-2.9,10.9-13.4,21.3-24.4,31.2c-9.9,10.7-20.6,21.1-25.5,31.3c-5.3,9.9-5.3,17.6-5.3,17.6
		s0.5-7.6,6.3-17c5.3-9.6,16.6-19.3,27.2-29.6c10.2-10.3,20.5-21.8,22.8-33.1c3.1-10.9,0.7-18.3,0.7-18.3
		S12862.7,5113.2,12859,5123.7z"/>
	<path class="st1" d="M12818.8,5216.2c0,0,4.8-9.3,9.5-18.6c3.2-10,6.3-19.9,6.3-19.9s-4.8,9.3-9.5,18.6
		C12821.9,5206.3,12818.8,5216.2,12818.8,5216.2z"/>
	<path class="st1" d="M12732.5,5264.2c-16.9-6.3-24.8-23.7-24.8-23.7s5.9,18.3,23.3,26.9c17.8,7.7,35.6,0.5,35.6,0.5
		S12748.2,5273,12732.5,5264.2z"/>
	<path class="st1" d="M12675.3,5238.3c0,0,8.9,17.4,24.2,29.9c15.9,11.7,35.1,15.9,35.1,15.9s-18.6-6-32.9-18.7
		C12685.8,5254.8,12675.3,5238.3,12675.3,5238.3z"/>
	<path class="st1" d="M12702,4893.8c11.2,28.8,35.4,47.9,35.4,47.9s-23-20.5-32.1-49.2c-12.3-27.4-8.9-58-8.9-58
		S12691,4864.9,12702,4893.8z"/>
	<path class="st1" d="M12688,4813.9c6.5-25,26.5-42.7,26.5-42.7s-21.3,16.2-29.8,41.6c-8.2,25.6-0.6,51.2-0.6,51.2
		S12678.4,4837.9,12688,4813.9z"/>
	<path class="st1" d="M12731.9,4722.2c6.6-9.8,8.8-25.6,16.2-38.6c6.6-13.9,11.4-28.7,21.4-35.3c8.8-7.3,16.6-9.1,16.6-9.1
		s-7.8,1.3-17.3,8.3c-10.5,6.2-16.6,21.4-23.8,34.6c-6.9,14.1-8.2,29.9-14.1,39.7c-5.5,10.1-12.6,14-12.6,14
		S12725.6,4732.1,12731.9,4722.2z"/>
	<path class="st1" d="M12781.2,4656.2c-13.2,11.8-18.9,28.4-18.9,28.4s7.5-15.8,21.2-25.7c12-11.9,28.8-16.8,28.8-16.8
		S12795,4645.1,12781.2,4656.2z"/>
	<path class="st1" d="M12846.9,4613.2c-12.2,10.6-28.7,13.7-28.7,13.7s16.8-1.3,30.8-10.9c13.5-10.5,19.7-26.1,19.7-26.1
		S12860.7,4604.7,12846.9,4613.2z"/>
	<path class="st1" d="M13056.9,4541c-22.7,11.3-48.1,16.4-67.1,16.9c-19.1,0.7-31.8-1.8-31.8-1.8s12.5,2.9,31.8,2.9
		c19.2,0.1,45-4.1,68.6-14.8c23.3-11.1,43.8-26.8,58.6-38.8c14.7-12.3,24.5-20.5,24.5-20.5s-10.1,7.8-25.2,19.6
		C13101.1,4516,13080.2,4530.9,13056.9,4541z"/>
	<path class="st1" d="M12993.1,4582.1c0,0,34.7,0.8,67-12.4c32.1-13.5,56.1-38.7,56.1-38.7s-25.3,23.8-57.4,35.4
		C13027.8,4581,12993.1,4582.1,12993.1,4582.1z"/>
	<path class="st1" d="M13199.2,4455.2c0,0,27.1-16.7,56.3-28.7c28.3-14.1,58.7-23.6,58.7-23.6s-30.8,7.8-60.1,20.4
		C13225.3,4437.1,13199.2,4455.2,13199.2,4455.2z"/>
	<path class="st1" d="M13392.9,4417.3c-15.8-11.1-34.9-11.6-34.9-11.6s18.9,2.4,32.8,14.4c15.6,9.6,23.6,26.9,23.6,26.9
		S13408.3,4429,13392.9,4417.3z"/>
	<path class="st1" d="M13361.4,4428.7c0,0,15.5,7.2,26.5,19.7c12.7,10.7,20.2,26.1,20.2,26.1s-5.8-16.1-17.8-28.6
		C13377.6,4434.3,13361.4,4428.7,13361.4,4428.7z"/>
	<path class="st1" d="M13736,4638.5c0,0-14.1,5.3-28.9,21.9c-15.2,15.5-30.1,42.2-55,56.9c-24.6,15.5-57.1,11.6-74.8-0.9
		c-18.5-12-24.7-26.1-24.7-26.1s5.7,14.3,24.1,27c17.5,13.1,50.8,18.4,77.2,3c25.6-16.2,39.3-43.4,54-59.2
		C13722.1,4644.2,13736,4638.5,13736,4638.5z"/>
	<path class="st1" d="M13808.8,4549.2c-8.6,13.4-15.9,28.5-24.2,43.2c-15.5,29.9-29.6,60.9-46.8,79.5
		c-16.6,19.2-32.4,26.4-32.4,26.4s16-6.7,33.2-25.7c17.9-18.4,32.8-49.1,49-78.4c7.9-14.8,15-30.3,23-43.7
		c8.8-12.9,19-23.8,28.9-31.5c19.9-15.9,37.4-18.4,37.4-18.4s-17.5,2-38,17.5C13828.7,4525.6,13818.2,4536.3,13808.8,4549.2z"/>
	<path class="st1" d="M14379.8,4266.7c0,0-55.3,41.2-117.5,70c-60.9,31.6-127.3,50.1-127.3,50.1s66.8-16.7,128.8-47
		C14325.6,4309.4,14379.8,4266.7,14379.8,4266.7z"/>
	<path class="st1" d="M14457.7,4234.4c0,0-9.7,4.1-19.5,8.2c-8.9,5.6-17.8,11.3-17.8,11.3s9.7-4.1,19.5-8.2
		C14448.8,4240.1,14457.7,4234.4,14457.7,4234.4z"/>
	<path class="st1" d="M14237.5,4398.9c0,0,57.3-28.6,114.6-57.2c56.5-30.1,113-60.3,113-60.3s-57.3,28.6-114.6,57.2
		C14294,4368.8,14237.5,4398.9,14237.5,4398.9z"/>
	<path class="st1" d="M14745.9,3905.8c0,0,11.7,5.4,21.3,21.2c9.6,15.3,14.9,40.7,8.1,63.8c-5.7,23.6-21.1,43.4-34,56.1
		c-13.1,12.7-23.4,19.4-23.4,19.4s10.5-6.3,24.1-18.6c13.4-12.2,29.9-31.8,36.6-55.9c6.3-24.5-0.2-50.1-10.5-65.4
		C14757.8,3910.7,14745.9,3905.8,14745.9,3905.8z"/>
	<path class="st1" d="M14607.5,4144.2c0,0,17.6-13.5,35.2-27c16.5-14.9,32.9-29.7,32.9-29.7s-17.6,13.5-35.2,27
		C14624,4129.4,14607.5,4144.2,14607.5,4144.2z"/>
	<path class="st1" d="M14091,3816.4c-19.2-0.5-46.3-3.8-67.4-18.9c-21.8-14.1-33.9-38.7-41-56.5c-7.1-18.2-10.7-30.8-10.7-30.8
		s3.2,12.6,9.7,31.1c6.5,18.1,17.8,43.5,40,59c22.6,14.9,50,17.1,69.3,17.1c19.6-0.1,32.6-1.7,32.6-1.7S14110.6,3816.9,14091,3816.4
		z"/>
	<path class="st1" d="M13900.1,3637.5c0,0,17.1,4.3,29.1,16.2c13.8,9.9,20.8,26,20.8,26s-5.2-16.8-18.6-28.7
		C13917.6,3639.9,13900.1,3637.5,13900.1,3637.5z"/>
	<path class="st1" d="M14083.1,3748.7c-28.9-9.3-54.3-41.9-69.9-77.8c-16.7-35.2-37.4-70.9-63.7-86.2
		c-25.5-16.8-46.7-12.4-46.7-12.4s21.3-3.8,46.1,13.4c25.7,15.8,45.2,51.1,61.2,86.8c16.3,35.6,43.2,68.5,72.6,77.2
		c14,5.2,26.8,4.9,35.2,3.2c8.4-1.9,12.8-4.3,12.8-4.3s-4.4,2.3-12.9,4C14109.5,3754.1,14096.8,3754.1,14083.1,3748.7z"/>
	<path class="st1" d="M13859.9,3432.4c-0.7-0.2,10.6-0.8,15.8,11c3.5,12.2,5.6,28.3,4.4,45.2c1,33.4-6.9,66.1-6.9,66.1
		s9.6-32.3,10.4-66.1c0.4-16.8-2.8-33.7-6.9-45.5C13870.4,3430.8,13859.2,3432.4,13859.9,3432.4z"/>
	<path class="st1" d="M13935.4,3447.9c1.9,12.1,1.1,20.3,1.1,20.3s1.3-8.2,0-20.4c-1.2-12.3-5.7-28.3-13-43.2
		c-19.2-26.6-38.4-53.1-38.4-53.1s17.7,27.4,35.3,54.7C13928.3,3420.3,13933.5,3435.9,13935.4,3447.9z"/>
	<path class="st1" d="M14741.4,3611.8c1.4,17.3-0.2,28.9-0.2,28.9s2.1-11.5,1.3-29c-0.7-17.4-5.5-40.7-15.8-61.8
		c-11-20.8-27.4-37.7-34.7-53.3c-6.3-16.7,0.8-27.9,0.8-27.9s-7.5,10.9-1.8,28.3c6.8,16.1,22.8,33.9,32.6,54.6
		C14734.5,3571.8,14740.1,3594.6,14741.4,3611.8z"/>
	<path class="st1" d="M14986.9,3628.6c23,6,36.6,14.5,36.6,14.5s-13.3-8.9-36.3-15.6c-22.7-6.9-55.5-9.4-86.5-0.7
		c-30.2,9.8-57.4,28.5-81.8,26.9c-24.5,0.1-35.5-14.1-35.5-14.1s10.6,14.5,35.5,15.2c24.8,2.2,53.1-16,82.9-24.7
		C14931.6,3620.9,14964.2,3622.4,14986.9,3628.6z"/>
	<path class="st1" d="M15049.3,3700.1c-22.3-5.9-48.2-22.9-77.6-32.8c-30.3-10.1-61.8-1-83.6,4.2c-22.4,5.5-37.8,5-37.8,5
		s15.5,1,38.1-3.9c22.2-4.6,53.3-12.6,82.4-1.9c29,8.8,55.7,25.2,78.3,30.5c22.5,6.1,38,2.9,38,2.9S15071.5,3706.7,15049.3,3700.1z"
		/>
	<path class="st1" d="M15062.7,3642.7c0,0,46,7.6,92.2,1.4c46.2-6.6,88.3-26.5,88.3-26.5s-42.9,18.2-88.8,23.1
		C15109,3648.5,15062.7,3642.7,15062.7,3642.7z"/>
	<path class="st1" d="M16102.8,3513.9c0,0,10.9,55.6-4.3,109.3c-11,54.7-46.1,99.2-46.1,99.2s36.6-43.3,49.5-98.4
		C16115.6,3569.1,16102.8,3513.9,16102.8,3513.9z"/>
	<path class="st1" d="M15985.6,3855.6c-15.5,20.5-41.6,37-61,27.1c-17.7-9-25.2-21.2-25.6-20.5c0.5-0.6,7.4,11.7,25.1,21.5
		c19.7,10.9,47.8-5.6,64.1-25.9c17.4-20.4,29.6-44.7,35.9-63.6c6.5-18.9,8.1-32.2,8.1-32.2s-2.1,13.2-9.1,31.8
		C16016.2,3812.5,16003.4,3836.1,15985.6,3855.6z"/>
	<path class="st1" d="M16088.9,3751.2c-19,39-37.9,78-37.9,78s20.5-38.2,41-76.4c19-39,37.9-78,37.9-78S16109.4,3713,16088.9,3751.2
		z"/>
	<path class="st1" d="M15584.3,2486.9c0,0,9.6,19.1,13.7,50.4c4.5,30.9,0.7,74.3-18.4,111.6c-18.3,37.2-43.6,72.7-47.3,104.9
		c-5.5,31.9,6.3,51.4,6.3,51.4s-11.3-19.7-5.2-51.2c4.4-31.8,30-66.2,49.4-103.5c18.6-38.4,21.5-82.3,16.3-113.2
		C15594.3,2505.8,15584.3,2486.9,15584.3,2486.9z"/>
	<path class="st1" d="M15616.6,2410.7c-6.5-27.7-6.4-46.7-6.4-46.7s-0.5,19.1,5.4,47c5.4,28,18,63.8,28,100.2
		c10.9,36,15.1,74.2,10.5,102.3c-4.2,28.2-15.3,44.4-15.3,44.4s11.4-15.9,16.3-44.2c5.3-28.1,1.9-66.8-8.2-103.4
		C15636,2473.8,15622.6,2438.4,15616.6,2410.7z"/>
	<path class="st1" d="M15579.4,2348.8c5.4-18.5,10.9-36.9,10.9-36.9s-7.1,17.9-14.2,35.8c-5.4,18.5-10.9,36.9-10.9,36.9
		S15572.3,2366.7,15579.4,2348.8z"/>
	<path class="st1" d="M15529.6,2079.4c-8.3-56.7-5.1-114.2-5.1-114.2s-5,57.4,1.6,114.6c7.2,57.2,25.6,111.7,25.6,111.7
		S15535,2136.5,15529.6,2079.4z"/>
	<path class="st1" d="M15570,2078.7c0,0-1.8-52.8-3.7-105.6c-3.6-52.7-7.2-105.4-7.2-105.4s1.8,52.8,3.7,105.6
		C15566.4,2026,15570,2078.7,15570,2078.7z"/>
	<path class="st1" d="M15393,1698.3c-16.7-13.5-42.5-26.3-69.1-36.5c-26.5-9.9-55.1-16.2-70.9-30.9c-16.3-14.5-15.8-30.6-15.8-30.6
		s-1.1,16,15.1,31.4c15.8,15.5,44.4,22.7,70.5,33.4c26.8,9.3,52.7,21.2,69.7,34.1c17.1,12.7,25.5,24.5,25.5,24.5
		S15409.9,1711.6,15393,1698.3z"/>
	<path class="st1" d="M15278.2,1589c5.5,8.4,12.6,13.8,17.6,19.7c12.5,10.7,24.6,6.4,24,6.5c0.6-0.1-11.7,3.5-23.2-7.3
		c-4.7-5.9-11.9-12.2-16.5-20.1c-4.9-8.3-10.2-17.1-15.4-25.9c-22.4-34.4-44.9-68.8-44.9-68.8s21,35.3,41.9,70.7
		C15267.3,1572.4,15273,1581,15278.2,1589z"/>
	<path class="st1" d="M14632.3,1010.9c23.9,30.8,41.1,84.1,85.2,116.3c43,31.1,93,50.1,121.7,77.9c30.1,26.3,37,53.3,37,53.3
		s-6.4-27.1-36.3-54.1c-28.4-28.4-78.5-48.5-120.3-79.9c-43.7-30.7-61.9-83.5-86.4-114.2c-23.6-32.6-49.7-42.1-49.7-42.1
		S14609.4,978.1,14632.3,1010.9z"/>
	<path class="st1" d="M14725,1064.3c18.9,16.4,42.5,26.2,60.7,29.6c18.2,3.6,30.6,2.5,30.6,2.5s-12.5,0.7-30.4-3.5
		c-17.9-3.9-40.7-14.5-58.6-31.1c-18.7-15.7-33.3-35.8-43.5-51c-10-15.5-16.7-25.8-16.7-25.8s6.3,10.6,15.7,26.4
		C14692.6,1026.8,14706.5,1047.5,14725,1064.3z"/>
	<path class="st1" d="M14503.6,729.3c-6.2-30-15.6-59.6-27.1-79.6c-11.2-20.2-22.8-30.6-22.8-30.6s11.3,10.7,21.8,31.1
		c10.8,20.2,19.3,49.8,24.6,79.8c6.2,29.9,12.1,60.1,19.8,81.8c7.4,21.8,15.6,34.9,15.6,34.9s-7.8-13.3-14.5-35.2
		C14514,789.6,14509,759.5,14503.6,729.3z"/>
	<path class="st1" d="M14512.2,630.8c-18.3-25.5-37.8-50-48.9-70.8c-11.4-20.6-14.7-36.1-14.7-36.1s2.9,15.6,13.7,36.6
		c10.5,21.2,29.4,46.4,47,72.2c18.2,25.2,32,53.9,35.7,77.1c4,23.3-1.1,38.8-1.1,38.8s5.6-15.3,2.2-38.9
		C14543.1,686.2,14529.9,656.9,14512.2,630.8z"/>
	<path class="st1" d="M14413,507.5c-1.7-19,4.7-37.6,4.7-37.6s-8.2,17.8-8.2,37.6c1,19.8,10,37.2,10,37.2S14412.1,526.6,14413,507.5
		z"/>
	<path class="st1" d="M10255.7,7967c-15.9-11.4-32.4-21.7-42.4-32.3c-10.3-10.3-14.3-19.4-14.3-19.4s3.6,9.3,13.5,20.2
		c9.7,11.1,25.9,22.5,41.1,34.3c15.6,11.4,28.9,25.8,36.5,38.2c7.8,12.3,10.5,21.8,10.5,21.8s-2.3-9.6-9.6-22.4
		C10283.9,7994.5,10271,7979.3,10255.7,7967z"/>
	<path class="st1" d="M10193.5,7893.6c0,0-7.6-11-19.6-17.2c-12.6-5.2-25.8-3.8-25.8-3.8s13.3,0.5,24.4,6.9
		C10184.5,7883.8,10193.5,7893.6,10193.5,7893.6z"/>
	<path class="st1" d="M10218,7974.7c-9-11.6-16.1-30.3-29.7-45.3c-14.3-14.1-31.9-23.8-45.6-29.2c-13.8-5.5-23.6-6.7-23.6-6.7
		s9.8,1.7,23.2,7.7c13.3,5.9,30.4,16.3,43.5,30.6c13.7,13.7,21.8,32.2,31.4,43.5c9.2,11.8,18.5,16,18.5,16
		S10226.5,7986.7,10218,7974.7z"/>
	<path class="st1" d="M9910.7,7959.1c-25.5-8.4-42.2-30.6-53.3-46.9c-11.6-17.5-28-17.1-27.3-16.8c-0.6-0.3,15.6-0.2,26.5,17.5
		c10.5,16.4,26.7,39.8,52.9,49.4c25.5,10.1,54.1,6.1,71.9-2.7c18.3-8.4,27.2-18.9,27.2-18.9s-9.2,10.1-27.6,17.9
		C9963,7966.7,9934.9,7969.6,9910.7,7959.1z"/>
	<path class="st1" d="M9803.1,7855.9c0,0-22.5-26.2-52.7-42.9c-30.5-16.3-64.7-20.9-64.7-20.9s33.9,6.4,63,24
		C9779.3,7830.9,9803.1,7855.9,9803.1,7855.9z"/>
	<path class="st1" d="M9702.4,7845.5c0,0,34.3,12.8,65,32.5c31.9,17.5,59.5,41.6,59.5,41.6s-26.4-25.4-57.7-44.6
		C9737.3,7856.6,9702.4,7845.5,9702.4,7845.5z"/>
	<path class="st1" d="M9528.2,7804.8c0,0,32.4-4.9,64.5-0.5c32.4,1.8,63.2,12.9,63.2,12.9s-30.2-12.8-62.9-16.4
		C9560.3,7798.1,9528.2,7804.8,9528.2,7804.8z"/>
	<path class="st1" d="M9201.3,7872.5c2.7-11.9-1.2-19.4-1.2-19.4s3.4,7.7,0.1,19.2c-2.7,11.6-12.6,23.8-22.3,36.2
		c-9.4,12.7-14.3,29.6-10.1,41.3c3.5,12,12.4,15,12,15c0,0-8.3-3.5-11-15.3c-3.4-11.5,2.1-27,11.9-39
		C9189.6,7897.8,9199.2,7884.5,9201.3,7872.5z"/>
	<path class="st1" d="M9212.3,7908.4c0,0-11.7,12.3-14.9,29.2c-2.3,17,4.8,32.4,4.8,32.4s-5.3-16.1-1.4-31.8
		C9202.2,7922,9212.3,7908.4,9212.3,7908.4z"/>
	<path class="st1" d="M8391.3,7947.7c0,0-78.2-4.6-150.5,24.9c-72.9,28-126.9,84.8-126.9,84.8s55.3-55.5,128.2-81.5
		C8313,7945.1,8391.3,7947.7,8391.3,7947.7z"/>
	<path class="st1" d="M8417.4,7945.7c0,0,29-1.6,56.6,5.6c28.2,4.7,54,17.9,54,17.9s-24.9-14.9-53.3-21.4
		C8446.2,7942.3,8417.4,7945.7,8417.4,7945.7z"/>
	<path class="st1" d="M8303.7,7990.6c0,0,43.6-13.2,88.6-11.1c45-1.2,88.4,12.9,88.4,12.9s-42.7-15.8-88.4-16.4
		C8346.7,7975.7,8303.7,7990.6,8303.7,7990.6z"/>
	<path class="st1" d="M7822.8,8251.1c0,0,43.7-34.9,91.9-62.8c46.9-30.1,97.9-53,97.9-53s-51.7,21.3-99.7,50
		C7865.4,8214.8,7822.8,8251.1,7822.8,8251.1z"/>
	<path class="st1" d="M7788.9,8330.4c0,0,16.7-32,44.5-54c25.7-24.5,59.8-36.5,59.8-36.5s-34.6,10.3-62,33.8
		C7803.9,8297.6,7788.9,8330.4,7788.9,8330.4z"/>
	<path class="st1" d="M7727.6,8337.9c-25.8,38.3-36.6,83.1-36.6,83.1s12.6-44.3,39.5-81.1c24.1-38.7,60.5-66.9,60.5-66.9
		S7753.5,8299.7,7727.6,8337.9z"/>
	<path class="st1" d="M6048.3,9520.2c-13.2-49.2-50.1-84.7-50.1-84.7s35.5,36.8,46.8,85.6c7.5,23.4,7,48.6,11.4,66.9
		c3.9,18.6,13.7,27.5,13.7,27.5s-9.4-9.2-12.6-27.7C6053.7,9569.6,6055.1,9544.4,6048.3,9520.2z"/>
	<path class="st1" d="M5973.9,9397.7c0,0-15.4-28.3-35.1-53.8c-20.7-24.8-45-45.9-45-45.9s23.1,22.4,42.2,48.1
		C5957,9370.3,5973.9,9397.7,5973.9,9397.7z"/>
	<path class="st1" d="M5858,9299.8c0,0,46.2,45.3,81.9,98.9c38.2,51.8,65.2,110.7,65.2,110.7s-25.3-59.5-62.3-112.7
		C5905.4,9343.8,5858,9299.8,5858,9299.8z"/>
	<path class="st1" d="M5655,9034c0,0,15.3,23.6,36.7,42.2c22,17.8,47.9,28.8,47.9,28.8s-25.2-12.7-45.6-31.5
		C5671.8,9056.6,5655,9034,5655,9034z"/>
	<path class="st1" d="M5565.2,8945.2c0,0,14.2,12.3,28.5,24.7c15.3,11,30.6,21.9,30.6,21.9s-14.2-12.3-28.5-24.7
		C5580.5,8956.2,5565.2,8945.2,5565.2,8945.2z"/>
	<path class="st1" d="M3830.9,7364.4c0,0,33.6,61.2,67.3,122.3c35.2,60.3,70.3,120.6,70.3,120.6s-33.6-61.2-67.3-122.3
		C3866.1,7424.7,3830.9,7364.4,3830.9,7364.4z"/>
	<path class="st1" d="M3742.4,7306.6c0,0-50.7-11.6-92.7-41.1c-44-26.4-75.2-68-75.2-68s29.7,42.7,73.3,70.9
		C3691.3,7296.8,3742.4,7306.6,3742.4,7306.6z"/>
	<path class="st1" d="M3773.8,7391c-58.6-53.4-134.5-77.4-134.5-77.4s75.2,25.8,132.1,80c60.3,50.4,94.4,122.3,94.4,122.3
		S3833.4,7443.2,3773.8,7391z"/>
	<path class="st1" d="M3197.3,6836.9c23.8,34.5,48.7,48.5,48.7,48.5s-24.6-14.4-47.8-49.2c-24.2-34-41.3-87-57.4-139.8
		c-16.6-52.6-41.5-103.9-72.6-132.3c-30.1-29.5-58.4-35.9-58.4-35.9s28.2,6.8,57.7,36.6c30.4,28.8,54.3,79.9,70,132.6
		C3154.3,6749.9,3172.4,6803.1,3197.3,6836.9z"/>
	<path class="st1" d="M3176.8,6888c-28.9-36.6-51.9-77.7-65.4-110c-13.7-32.3-19.8-55-19.8-55s5.6,22.8,18.8,55.4
		c12.9,32.7,35.2,74.3,63.6,111.7c29.1,36.9,63.8,68.9,92.2,89.6c28.3,20.9,48.9,32,48.9,32s-20.5-11.5-48.3-32.9
		C3239,6957.7,3205.1,6925.2,3176.8,6888z"/>
	<path class="st1" d="M2879.6,6270.9c-25.6-61.6-78-134-132.2-203.7c-54.9-69.2-107.9-140.7-134.3-201.8
		c-14.2-29.9-22-56.7-26.2-75.5c-4-18.9-6.3-29.7-6.3-29.7s2.2,10.8,6,29.8c4,18.8,11.5,45.8,25.5,75.9
		c25.8,61.5,78.3,133.8,132.5,203.5c54.9,69.2,107.8,140.8,133.9,202c14.2,29.9,21.8,56.8,25.9,75.6c3.9,19,6.1,29.8,6.1,29.8
		s-2.1-10.9-5.8-29.8C2900.9,6328.1,2893.5,6301,2879.6,6270.9z"/>
	<path class="st1" d="M2745.1,5970c0,0-26-28.1-43-62c-19.4-32.6-29-69.6-29-69.6s7.8,37.5,26,71.3
		C2717.8,5943.2,2745.1,5970,2745.1,5970z"/>
	<path class="st1" d="M2484.8,5460.3c-5.9-39.2-4.6-79.3,0.7-108.6c4.9-29.4,11.6-48.3,11.6-48.3s-7.1,18.7-12.7,48.1
		c-5.9,29.3-8.2,69.6-3,109.3c6.1,39.6,19.4,77.7,33.2,104.2c13.5,26.7,25.5,42.7,25.5,42.7s-11.6-16.3-24.5-43.2
		C2502.4,5537.8,2490,5499.6,2484.8,5460.3z"/>
	<path class="st1" d="M2543.6,5226.4c-5.2-65.9-37-124-37-124s30.1,59,33.5,124.3c7.9,65-11.8,128.2-11.8,128.2
		S2549.7,5292.2,2543.6,5226.4z"/>
	<path class="st1" d="M2495.8,5306.5c0,0,0.2-29.2,0.3-58.4c-1.6-29.2-3.2-58.4-3.2-58.4s-0.2,29.2-0.3,58.4
		C2494.2,5277.4,2495.8,5306.5,2495.8,5306.5z"/>
	<path class="st1" d="M2551.7,4245.8c0,0,0,111-17.1,220.4c-13.7,109.9-44.3,216.6-44.3,216.6s32.3-106.2,47.7-216.1
		C2553.5,4356.7,2551.7,4245.8,2551.7,4245.8z"/>
	<path class="st1" d="M2467.3,4834.6c1.1,49.5,2.3,98.9,2.3,98.9s0.6-49.5,1.2-99c-1.1-49.5-2.3-98.9-2.3-98.9
		S2467.9,4785.1,2467.3,4834.6z"/>
	<path class="st1" d="M2411.5,4636.5c-12.4,60.5-18.1,122.4-14.4,168.7c3.3,46.3,13.7,75.7,13.7,75.7s-10-29.6-12.6-75.8
		c-3.1-46.2,3.5-107.8,16.7-167.9c12.1-60.4,27-120.3,34.2-166c7.6-45.7,8.4-76.6,8.4-76.6s-1.3,30.9-9.5,76.4
		C2440.2,4516.6,2424.5,4576.2,2411.5,4636.5z"/>
	<path class="st1" d="M2416.1,3401.5c49.4,83.3,68,179.2,68,179.2s-16.7-96.2-64.9-180.9c-46.8-85.5-120-150.2-120-150.2
		S2371,3315.7,2416.1,3401.5z"/>
	<path class="st1" d="M2151.2,3148c0,0,60.1,59.3,109.3,127.6c51.7,66.4,91.8,140.7,91.8,140.7s-38.5-75.1-89.1-142.8
		C2212.5,3206,2151.2,3148,2151.2,3148z"/>
	<path class="st1" d="M1965,2970.8c0,0-91.5-61.5-162.9-144.8c-74.8-80.2-125.8-177.9-125.8-177.9s49.3,98.6,123.2,180.3
		C1872.6,2910.9,1965,2970.8,1965,2970.8z"/>
	<path class="st1" d="M1962.1,3012.3c-95.6-88.5-210.3-150.8-210.3-150.8s113.8,63.8,207.9,153.4c97.4,85.9,171,193.6,171,193.6
		S2058.7,3099.8,1962.1,3012.3z"/>
	<path class="st1" d="M1664.1,2558.5c0,0,6.2-17.5,15.5-43.7c8.7-26.4,19.3-62.4,20.7-99.9c1-37.5-10.1-74.6-25-98.2
		c-14.8-24-30.8-34.4-30.8-34.4s15.8,10.8,29.9,35c14.3,23.8,24.2,60.7,22.4,97.5c-0.5,37-10.2,73.2-18.3,99.7
		C1669.8,2540.8,1664.1,2558.5,1664.1,2558.5z"/>
	<path class="st1" d="M1549.2,2143.3c-30.4-35.3-60.8-70.7-60.8-70.7s29.1,36.5,58.1,72.9c30.4,35.3,60.8,70.7,60.8,70.7
		S1578.3,2179.8,1549.2,2143.3z"/>
	<path class="st1" d="M1568.2,2216c0,0,41.1,42.2,56.2,98c19.6,54.4,10,112.5,10,112.5s11.4-57.7-6.7-113.5
		C1610.6,2256.8,1568.2,2216,1568.2,2216z"/>
	<path class="st1" d="M888.3,1815.7c-27.6-66.5-46.8-136.2-56.2-189.4c-9.8-53.2-12.2-89.2-12.2-89.2s2,36.1,11.1,89.4
		c8.7,53.4,27.1,123.5,54,190.6c27.8,66.7,63.9,129.6,95.1,173.8c30.9,44.4,54.7,71.6,54.7,71.6s-23.5-27.4-53.8-72.2
		C950.4,1945.7,915.2,1882.5,888.3,1815.7z"/>
	<path class="st1" d="M776.6,1301.9c-17.1-36.8-40.5-70.2-61-92.5c-20.3-22.5-36.2-35.1-36.2-35.1s15.6,12.9,35.3,35.8
		c20,22.6,42.5,56.4,58.7,93.2c16.9,36.5,27.3,75.7,31,105.6c4.1,29.9,3.4,50.2,3.4,50.2s1.1-20.2-2.4-50.3
		C802.4,1378.7,792.8,1339,776.6,1301.9z"/>
	<path class="st1" d="M718.6,1302.5c0,0,20.9,128.6,41.9,257.2c22.7,128.3,45.3,256.6,45.3,256.6s-20.9-128.6-41.9-257.1
		C741.2,1430.8,718.6,1302.5,718.6,1302.5z"/>
	<path class="st1" d="M611.6,1057.7c0,0-47-39.7-78.2-92.2C499.1,915.1,483,855.6,483,855.6s14.3,59.9,47.4,111.7
		C563.4,1019.4,611.6,1057.7,611.6,1057.7z"/>
	<path class="st1" d="M566.1,1124.6c-41.1-48.6-74.2-103.2-74.2-103.2s31.6,55.5,71.5,105.4c40.5,49.4,88.1,91.9,88.1,91.9
		S605.1,1175,566.1,1124.6z"/>
	<path class="st1" d="M288.9,547.9c15.5,38,18.3,65.5,18.3,65.5s-2.3-27.6-17.3-66c-14.3-38.7-43.6-85.3-74.3-130.5
		c-31.3-44.7-61.4-90.5-76.5-128.8c-15.7-37.9-18.8-65.4-18.8-65.4s2.6,27.5,17.8,65.8c14.5,38.6,44,85.1,74.6,130.3
		C244,463.6,274,509.6,288.9,547.9z"/>
	<path class="st1" d="M191.2,455.3c0,0,32.6,91.6,83.8,174.4c50.9,82.9,118.2,153.2,118.2,153.2s-65.9-71.5-115.2-155
		C225.5,546.3,191.2,455.3,191.2,455.3z"/>
	<path class="st1" d="M9220,7959c-0.6-9.6,2.3-15.7,2.3-15.7s-3.4,5.8-3.4,15.7c-0.5,10,4,22.4,7.9,34.5c5.1,11.9,9.9,23.9,8.7,33.7
		c-0.4,9.7-4.3,15.2-4.3,15.2s4.3-5.2,5.4-15.1c1.8-10-2.3-22.8-6.5-34.7C9225.4,7980.6,9220.1,7968.6,9220,7959z"/>
	<path class="st1" d="M9111.9,8048.2c-8.3-2.7-16.8-10.7-25.4-18.7c-8.9-7.2-18.3-14.8-27.1-16.8c-8.6-2.6-14.5-1-14.5-1
		s6-1.1,14.1,2.1c8.4,2.6,16.9,10.6,25.4,18.6c8.9,7.2,18.3,14.8,27.1,17c8.6,2.6,14.5,1.2,14.5,1.2S9120,8051.4,9111.9,8048.2z"/>
	<path class="st1" d="M8740.8,8007.3c0,0,10.9,22.7,32.7,35.5c22,12.4,47.1,10.4,47.1,10.4s-25.2,0.1-45.4-13.4
		C8753.4,8029.1,8740.8,8007.3,8740.8,8007.3z"/>
	<path class="st1" d="M8865.6,8043.7c0,0-1.1,0.2-2.9,0.4C8864.5,8044.1,8865.5,8043.9,8865.6,8043.7z"/>
	<path class="st1" d="M8833.4,8045.3c12.1,0.9,24-0.5,29.3-1.2c-10.6,0.1-47.2-4-57.6-6.5
		C8810.1,8039.5,8821.4,8043.4,8833.4,8045.3z"/>
	<path class="st1" d="M8805.1,8037.6c-1.7-0.7-2.8-1.1-2.8-1.1C8802.3,8036.8,8803.4,8037.2,8805.1,8037.6z"/>
	<path class="st1" d="M8786.5,8028.8c0,0-4.6-3.6-9.1-7.2c-5.4-2-10.9-4.1-10.9-4.1s4.6,3.6,9.1,7.1
		C8781.1,8026.7,8786.5,8028.8,8786.5,8028.8z"/>
	<path class="st1" d="M7941.9,8203.8c-9,2.8-18.2,6.4-23.8,11.1c-5.7,4.6-7.4,9.3-7.4,9.3s2.1-4.5,8-8.4c5.8-4,14.8-6.7,24-8.6
		c9.1-2.8,18.1-6.8,23.5-11.7c5.5-4.9,6.8-9.7,6.8-9.7s-1.8,4.7-7.5,8.8C7960,8198.9,7951.1,8201.8,7941.9,8203.8z"/>
	<path class="st1" d="M7700.8,8515.6c0,0-7.1-47.3,9.3-91.3c12.5-45.3,45.9-79.5,45.9-79.5s-34.8,32.9-49.2,78.4
		C7691.8,8468.6,7700.8,8515.6,7700.8,8515.6z"/>
	<path class="st1" d="M7671.2,8512.8c0,0-0.9-16.4,1-32.6c-0.1-16.3,2.7-32.5,2.7-32.5s-4.5,15.8-6.2,32.3
		C7668.5,8496.6,7671.2,8512.8,7671.2,8512.8z"/>
	<path class="st1" d="M7680.9,8540.4c0,0,2.9,10.1,5.8,20.3c4.5,9.5,9.1,19,9.1,19s-2.9-10.1-5.8-20.3
		C7685.4,8549.9,7680.9,8540.4,7680.9,8540.4z"/>
	<path class="st1" d="M5493,8872.2c-15.4-6.8-29.5-16.6-38.3-25.8c-8.9-9.1-12.9-16.8-12.9-16.8s3.5,7.9,12.1,17.5
		c8.4,9.7,22.2,20.4,37.5,28.2c15.3,7,32.2,12,42.4,19.2c10.2,7.9,12.1,16.9,12.1,16.9s-1.4-9.1-11.4-17.7
		C5524.2,8885.6,5508.1,8880.1,5493,8872.2z"/>
	<path class="st1" d="M5443.5,8874.4c-18.5-16.5-33.8-36.6-42.3-53.2c-8.7-16.6-11.3-29-11.3-29s2.2,12.5,10.3,29.5
		c8,17,22.7,37.8,40.9,55.3c18.6,16.9,39.7,30.7,55.5,40.7c16,9.8,26.7,16.3,26.7,16.3s-10.4-6.9-26.1-17.2
		C5481.8,8906.2,5461.4,8891.7,5443.5,8874.4z"/>
	<path class="st1" d="M5399.5,9206c5.9,10.5,5.9,18.8,5.9,18.8s0.5-8.3-5-19.3c-4.9-11.4-17.1-22.6-28.7-33.3
		c-12.4-10.2-24.9-20.5-30.1-31.5c-5.8-10.5-5.6-18.9-5.6-18.9s-0.7,8.3,4.7,19.4c4.7,11.5,16.9,22.7,28.6,33.4
		C5381.6,9184.9,5394.1,9195.1,5399.5,9206z"/>
	<path class="st1" d="M5383.7,9297.5c0,0,12-9.9,18.6-24.3c5.5-14.8,4-30.3,4-30.3s-0.3,15.6-7.2,29
		C5394.4,9286.2,5383.7,9297.5,5383.7,9297.5z"/>
	<path class="st1" d="M5415.4,9181.2c0,0,6.7,8.6,11.9,23.7c5.2,14.9,7.7,36.8,1.9,57c-4.6,20.6-17.2,38.5-28.9,49.2
		c-11.8,10.8-21.7,15.1-21.7,15.1s10.1-3.9,22.4-14.3c12.2-10.3,26-28,31.6-49.1c5.2-21.3,1.6-43.4-4.3-58.2
		C5422.4,9189.5,5415.4,9181.2,5415.4,9181.2z"/>
	<path class="st1" d="M5322.8,9349.1l-6.6-1.6l6.6,2.5l0.3,0.1l0.2-0.3c10.2-12.9,21-25,34.4-34.8
		C5343.1,9322.4,5330.1,9334.1,5322.8,9349.1z"/>
	<path class="st1" d="M5042,9100.1c-8.4-5.5-21.5-9-33-14.7c-24.5-9.6-43.4-28.7-43.4-28.7s17.5,20.3,41.9,31.8
		c12.4,5.2,25.3,7.7,33.9,12.5c8.8,4.6,12.2,10.6,12.2,10.6S5050.7,9105.4,5042,9100.1z"/>
	<path class="st1" d="M4855.2,8793.7c0,0-5,22.6-10,45.1c-3.3,22.9-6.6,45.8-6.6,45.8s5-22.6,10-45.1
		C4851.9,8816.6,4855.2,8793.7,4855.2,8793.7z"/>
	<path class="st1" d="M4812.6,8908.9c1.5-30,15.1-57.3,15.1-57.3s-15.3,26.4-18.6,56.9c-2.8,30.6,7.1,59.5,7.1,59.5
		S4808.2,8938.5,4812.6,8908.9z"/>
	<path class="st1" d="M4826.1,8987.5c0,0,7.6,7.8,15.2,15.6c8.7,6.5,17.5,13,17.5,13s-7.6-7.8-15.2-15.6
		C4834.8,8994,4826.1,8987.5,4826.1,8987.5z"/>
	<path class="st1" d="M4652.9,8592.6c0,0,24.4,27.1,55.1,46.9c31.1,19.2,66.1,29.6,66.1,29.6s-34.4-12.1-64.2-32.5
		C4678.6,8618.5,4652.9,8592.6,4652.9,8592.6z"/>
	<path class="st1" d="M4603.4,8583.7c0,0,20.4,28.5,47.7,50.6c27.8,21.5,60.2,34.9,60.2,34.9s-31.7-15-58.1-37.6
		C4625.3,8611.1,4603.4,8583.7,4603.4,8583.7z"/>
	<path class="st1" d="M4444.5,8159.3c-0.5-0.7-4.9,13,6.1,28.3c4.4,7.8,10,17,9.9,28.3c0.3,11-3.2,22.7-9.6,32.5
		c-11.8,20.8-36.3,30.4-53.7,32.3c-17.8,2.3-29.8-0.2-29.8-0.2s11.9,2.9,30,1.3c17.6-1.4,43.1-9.9,56.5-31.6
		c6.3-10.6,9.5-23,8.8-34.5c-0.3-11.8-6.5-21.1-11.1-28.6C4440,8172.2,4444,8158.8,4444.5,8159.3z"/>
	<path class="st1" d="M4417.3,8242c-9.7,10.3-25.7,8.2-25.2,7.9c-0.6,0.1,15,4.8,27.6-5.4c11.5-11,8.9-27.2,8.7-26.6
		C4428.7,8217.4,4428.9,8233.5,4417.3,8242z"/>
	<path class="st1" d="M4425.9,8136.3c0,0-2.8-19.1-15.6-33.6c-14.5-11.7-29.1-23.3-29.1-23.3s13.2,12.8,26.5,25.6
		C4421.2,8117.8,4425.9,8136.3,4425.9,8136.3z"/>
	<path class="st1" d="M4340,8037.3c0,0,4.9,6.3,9.9,12.6c6.2,5.1,12.4,10.1,12.4,10.1s-4.9-6.3-9.9-12.6
		C4346.1,8042.3,4340,8037.3,4340,8037.3z"/>
	<path class="st1" d="M4132.6,7824.6c0,0-13.6-32.2-34.1-60.5c-21.1-27.6-42.2-55.1-42.2-55.1s19.7,28.6,39.4,57.2
		C4117.4,7793.3,4132.6,7824.6,4132.6,7824.6z"/>
	<path class="st1" d="M4137.1,7906.5c-14-22.8-18-50.4-26.8-68.8c-8.2-19-19.8-27.1-19.8-27.1s11.3,8.5,18.8,27.5
		c8.2,18.5,11.1,46,24.8,70.2c14.3,23.6,36.9,40.7,55.4,48.9c18.6,8.5,32.3,9.7,32.3,9.7s-13.7-1.7-31.9-10.7
		C4171.8,7947.5,4150.2,7929.9,4137.1,7906.5z"/>
	<path class="st1" d="M4198.9,7927.3c0,0-14.7-7.6-25.4-19.8c-12.4-10.4-20.2-25-20.2-25s6.2,15.4,17.8,27.5
		C4183.4,7921.3,4198.9,7927.3,4198.9,7927.3z"/>
	<path class="st1" d="M2882.1,6204.7c0,0-10.7-33.8-28.4-64.6c-18.5-30.3-43-56-43-56s23.1,26.9,40,57.8
		C2869.6,6171.5,2882.1,6204.7,2882.1,6204.7z"/>
	<path class="st1" d="M2934.6,6356.6c0,0,4.6,30.3,16.8,58.6c13.1,27.9,32.6,51.5,32.6,51.5s-18.2-24.7-29.5-52.9
		C2941,6386.6,2934.6,6356.6,2934.6,6356.6z"/>
	<path class="st1" d="M2525.2,5474.4c0,0,3.6,26.6,13.8,51.7c11.2,24.6,28.1,45.5,28.1,45.5s-15.5-22-24.9-46.9
		C2530.6,5500.7,2525.2,5474.4,2525.2,5474.4z"/>
	<path class="st1" d="M7715.4,8674c1.5,30.9-5.9,61.3-5.9,61.3s9.1-29.9,9.4-61.3c-0.6-31.4-10-61.2-10-61.2
		S7716.5,8643.1,7715.4,8674z"/>
	<path class="st1" d="M7710.3,8539.9c0,0,10.2,21.2,15.7,43.9c7.6,22,10.6,45.4,10.6,45.4s-1.2-23.5-7.3-46.4
		C7722.1,8560.3,7710.3,8539.9,7710.3,8539.9z"/>
	<path class="st1" d="M8970.5,8082.4c-24.4,0.2-40.3-20.9-38.8-21.2c-1.5,0,12.7,22.8,38.6,24.6c24.2,0.7,46.3-8.1,46.3-8.1
		S8993.6,8084.9,8970.5,8082.4z"/>
</g>
</svg>
