<?xml version="1.0" encoding="utf-8"?>
<!-- Generator: Adobe Illustrator 19.2.1, SVG Export Plug-In . SVG Version: 6.00 Build 0)  -->
<!DOCTYPE svg PUBLIC "-//W3C//DTD SVG 1.1//EN" "http://www.w3.org/Graphics/SVG/1.1/DTD/svg11.dtd">
<svg version="1.1" id="Layer_1" xmlns="http://www.w3.org/2000/svg" xmlns:xlink="http://www.w3.org/1999/xlink" x="0px" y="0px"
	 viewBox="0 0 156.6 189.3" style="enable-background:new 0 0 156.6 189.3;" xml:space="preserve">
<style type="text/css">
	.st0{fill:#2983C7;}
</style>
<path class="st0" d="M156,70.1L86.5,0.7H17.3C8,0.7,0.5,8.2,0.5,17.4v154.5c0,9.2,7.5,16.7,16.7,16.7h122c9.2,0,16.7-7.5,16.7-16.7
	V70.1z M86.9,15l54.8,54.8H96c-5,0-9.1-4.1-9.1-9.1V15z M139.3,178.7h-122c-3.8,0-6.8-3.1-6.8-6.8V17.4c0-3.8,3.1-6.8,6.8-6.8h59.7
	v50.1c0,10.5,8.5,19.1,19.1,19.1h50.1v92.2C146.1,175.7,143,178.7,139.3,178.7z"/>
</svg>
